RisingSun-Black.ufo
<glyph name="exclam" format="2">
  <advance width="362"/>
  <unicode hex="0021"/>
  <outline>
    <contour>
      <point x="68" y="103" type="qcurve" smooth="yes"/>
      <point x="68" y="80"/>
      <point x="86" y="39"/>
      <point x="117" y="8"/>
      <point x="158" y="-10"/>
      <point x="181" y="-10" type="qcurve" smooth="yes"/>
      <point x="204" y="-10"/>
      <point x="245" y="8"/>
      <point x="276" y="39"/>
      <point x="294" y="80"/>
      <point x="294" y="103" type="qcurve" smooth="yes"/>
      <point x="294" y="126"/>
      <point x="276" y="167"/>
      <point x="245" y="198"/>
      <point x="204" y="216"/>
      <point x="181" y="216" type="qcurve" smooth="yes"/>
      <point x="158" y="216"/>
      <point x="117" y="198"/>
      <point x="86" y="167"/>
      <point x="68" y="126"/>
    </contour>
    <contour>
      <point x="236" y="300" type="line"/>
      <point x="276" y="550" type="line"/>
      <point x="276" y="717" type="line"/>
      <point x="86" y="717" type="line"/>
      <point x="86" y="550" type="line"/>
      <point x="126" y="300" type="line"/>
    </contour>
  </outline>
</glyph>
<glyph name="dollar" format="2">
  <advance width="649"/>
  <unicode hex="0024"/>
  <outline>
    <contour>
      <point x="291" y="-129" type="line"/>
      <point x="371" y="-129" type="line"/>
      <point x="371" y="95" type="line"/>
      <point x="291" y="95" type="line"/>
    </contour>
    <contour>
      <point x="357" y="115" type="line"/>
      <point x="357" y="603" type="line"/>
      <point x="305" y="589" type="line"/>
      <point x="305" y="117" type="line"/>
    </contour>
    <contour>
      <point x="291" y="609" type="line"/>
      <point x="371" y="623" type="line"/>
      <point x="371" y="815" type="line"/>
      <point x="291" y="815" type="line"/>
    </contour>
    <contour>
      <point x="594" y="639" type="line"/>
      <point x="570" y="651"/>
      <point x="510" y="678"/>
      <point x="441" y="701"/>
      <point x="367" y="716"/>
      <point x="328" y="716" type="qcurve" smooth="yes"/>
      <point x="276" y="716"/>
      <point x="180" y="685"/>
      <point x="106" y="625"/>
      <point x="63" y="535"/>
      <point x="63" y="476" type="qcurve" smooth="yes"/>
      <point x="63" y="437"/>
      <point x="84" y="377"/>
      <point x="128" y="330"/>
      <point x="196" y="293"/>
      <point x="243" y="277" type="qcurve" smooth="yes"/>
      <point x="275" y="266"/>
      <point x="332" y="250"/>
      <point x="376" y="234"/>
      <point x="401" y="213"/>
      <point x="401" y="198" type="qcurve" smooth="yes"/>
      <point x="401" y="184"/>
      <point x="376" y="167"/>
      <point x="344" y="167" type="qcurve" smooth="yes"/>
      <point x="303" y="167"/>
      <point x="222" y="191"/>
      <point x="157" y="221"/>
      <point x="116" y="245"/>
      <point x="116" y="245" type="qcurve"/>
      <point x="32" y="74" type="line"/>
      <point x="64" y="55"/>
      <point x="139" y="25"/>
      <point x="220" y="3"/>
      <point x="302" y="-9"/>
      <point x="341" y="-9" type="qcurve" smooth="yes"/>
      <point x="391" y="-9"/>
      <point x="487" y="14"/>
      <point x="564" y="66"/>
      <point x="611" y="153"/>
      <point x="611" y="217" type="qcurve" smooth="yes"/>
      <point x="611" y="267"/>
      <point x="581" y="337"/>
      <point x="525" y="386"/>
      <point x="446" y="422"/>
      <point x="397" y="437" type="qcurve" smooth="yes"/>
      <point x="366" y="447"/>
      <point x="317" y="461"/>
      <point x="283" y="476"/>
      <point x="265" y="494"/>
      <point x="265" y="508" type="qcurve" smooth="yes"/>
      <point x="265" y="527"/>
      <point x="297" y="543"/>
      <point x="322" y="543" type="qcurve" smooth="yes"/>
      <point x="354" y="543"/>
      <point x="421" y="523"/>
      <point x="475" y="498"/>
      <point x="510" y="478"/>
      <point x="510" y="478" type="qcurve"/>
    </contour>
  </outline>
</glyph>
<glyph name="percent" format="2">
  <advance width="851"/>
  <unicode hex="0025"/>
  <outline>
    <contour>
      <point x="211" y="404" type="qcurve" smooth="yes"/>
      <point x="249" y="404"/>
      <point x="314" y="429"/>
      <point x="362" y="471"/>
      <point x="389" y="529"/>
      <point x="389" y="562" type="qcurve" smooth="yes"/>
      <point x="389" y="595"/>
      <point x="362" y="653"/>
      <point x="314" y="695"/>
      <point x="249" y="720"/>
      <point x="211" y="720" type="qcurve" smooth="yes"/>
      <point x="174" y="720"/>
      <point x="109" y="695"/>
      <point x="61" y="653"/>
      <point x="33" y="595"/>
      <point x="33" y="562" type="qcurve" smooth="yes"/>
      <point x="33" y="529"/>
      <point x="61" y="471"/>
      <point x="109" y="429"/>
      <point x="174" y="404"/>
    </contour>
    <contour>
      <point x="211" y="494" type="qcurve" smooth="yes"/>
      <point x="201" y="494"/>
      <point x="184" y="505"/>
      <point x="171" y="523"/>
      <point x="163" y="548"/>
      <point x="163" y="562" type="qcurve" smooth="yes"/>
      <point x="163" y="576"/>
      <point x="171" y="601"/>
      <point x="184" y="619"/>
      <point x="201" y="630"/>
      <point x="211" y="630" type="qcurve" smooth="yes"/>
      <point x="221" y="630"/>
      <point x="238" y="619"/>
      <point x="251" y="601"/>
      <point x="259" y="576"/>
      <point x="259" y="562" type="qcurve" smooth="yes"/>
      <point x="259" y="548"/>
      <point x="251" y="523"/>
      <point x="238" y="505"/>
      <point x="221" y="494"/>
    </contour>
    <contour>
      <point x="640" y="-10" type="qcurve" smooth="yes"/>
      <point x="678" y="-10"/>
      <point x="743" y="15"/>
      <point x="791" y="57"/>
      <point x="818" y="115"/>
      <point x="818" y="148" type="qcurve" smooth="yes"/>
      <point x="818" y="181"/>
      <point x="791" y="239"/>
      <point x="743" y="281"/>
      <point x="678" y="306"/>
      <point x="640" y="306" type="qcurve" smooth="yes"/>
      <point x="603" y="306"/>
      <point x="538" y="281"/>
      <point x="490" y="239"/>
      <point x="462" y="181"/>
      <point x="462" y="148" type="qcurve" smooth="yes"/>
      <point x="462" y="115"/>
      <point x="490" y="57"/>
      <point x="538" y="15"/>
      <point x="603" y="-10"/>
    </contour>
    <contour>
      <point x="640" y="80" type="qcurve" smooth="yes"/>
      <point x="630" y="80"/>
      <point x="613" y="91"/>
      <point x="600" y="109"/>
      <point x="592" y="134"/>
      <point x="592" y="148" type="qcurve" smooth="yes"/>
      <point x="592" y="162"/>
      <point x="600" y="187"/>
      <point x="613" y="205"/>
      <point x="630" y="216"/>
      <point x="640" y="216" type="qcurve" smooth="yes"/>
      <point x="650" y="216"/>
      <point x="667" y="205"/>
      <point x="680" y="187"/>
      <point x="688" y="162"/>
      <point x="688" y="148" type="qcurve" smooth="yes"/>
      <point x="688" y="134"/>
      <point x="680" y="109"/>
      <point x="667" y="91"/>
      <point x="650" y="80"/>
    </contour>
    <contour>
      <point x="200" y="-10" type="line"/>
      <point x="463" y="337" type="line"/>
      <point x="734" y="646" type="line"/>
      <point x="651" y="721" type="line"/>
      <point x="400" y="384" type="line"/>
      <point x="117" y="65" type="line"/>
    </contour>
  </outline>
</glyph>
<glyph name="ampersand" format="2">
  <advance width="749"/>
  <unicode hex="0026"/>
  <outline>
    <contour>
      <point x="755" y="0" type="line"/>
      <point x="340" y="438" type="line" smooth="yes"/>
      <point x="314" y="465"/>
      <point x="279" y="498"/>
      <point x="258" y="519"/>
      <point x="249" y="534"/>
      <point x="249" y="544" type="qcurve" smooth="yes"/>
      <point x="249" y="552"/>
      <point x="254" y="565"/>
      <point x="263" y="575"/>
      <point x="276" y="581"/>
      <point x="285" y="581" type="qcurve" smooth="yes"/>
      <point x="301" y="581"/>
      <point x="320" y="563"/>
      <point x="320" y="546" type="qcurve" smooth="yes"/>
      <point x="320" y="533"/>
      <point x="307" y="514"/>
      <point x="279" y="493"/>
      <point x="235" y="467"/>
      <point x="203" y="447" type="qcurve" smooth="yes"/>
      <point x="175" y="429"/>
      <point x="115" y="385"/>
      <point x="66" y="329"/>
      <point x="35" y="259"/>
      <point x="35" y="216" type="qcurve" smooth="yes"/>
      <point x="35" y="175"/>
      <point x="67" y="94"/>
      <point x="130" y="30"/>
      <point x="223" y="-10"/>
      <point x="285" y="-10" type="qcurve" smooth="yes"/>
      <point x="352" y="-10"/>
      <point x="485" y="41"/>
      <point x="592" y="146"/>
      <point x="659" y="307"/>
      <point x="660" y="416" type="qcurve"/>
      <point x="507" y="416" type="line"/>
      <point x="507" y="347"/>
      <point x="469" y="243"/>
      <point x="410" y="173"/>
      <point x="338" y="138"/>
      <point x="305" y="138" type="qcurve" smooth="yes"/>
      <point x="281" y="138"/>
      <point x="247" y="155"/>
      <point x="226" y="179"/>
      <point x="217" y="206"/>
      <point x="217" y="216" type="qcurve" smooth="yes"/>
      <point x="217" y="231"/>
      <point x="233" y="256"/>
      <point x="263" y="281"/>
      <point x="304" y="307"/>
      <point x="328" y="321" type="qcurve" smooth="yes"/>
      <point x="364" y="342"/>
      <point x="424" y="390"/>
      <point x="469" y="446"/>
      <point x="494" y="511"/>
      <point x="494" y="548" type="qcurve" smooth="yes"/>
      <point x="494" y="594"/>
      <point x="458" y="659"/>
      <point x="399" y="700"/>
      <point x="324" y="719"/>
      <point x="285" y="719" type="qcurve" smooth="yes"/>
      <point x="240" y="719"/>
      <point x="164" y="694"/>
      <point x="109" y="648"/>
      <point x="77" y="580"/>
      <point x="77" y="536" type="qcurve" smooth="yes"/>
      <point x="77" y="511"/>
      <point x="89" y="469"/>
      <point x="115" y="424"/>
      <point x="159" y="372"/>
      <point x="190" y="338" type="qcurve" smooth="yes"/>
      <point x="506" y="0" type="line"/>
    </contour>
  </outline>
</glyph>
<glyph name="quotesingle" format="2">
  <advance width="266"/>
  <unicode hex="0027"/>
  <outline>
    <contour>
      <point x="109" y="495" type="line"/>
      <point x="238" y="730" type="line"/>
      <point x="81" y="730" type="line"/>
      <point x="27" y="495" type="line"/>
    </contour>
  </outline>
</glyph>
<glyph name="parenright" format="2">
  <advance width="341"/>
  <unicode hex="0029"/>
  <outline>
    <contour>
      <point x="316" y="348" type="qcurve" smooth="yes"/>
      <point x="316" y="399"/>
      <point x="292" y="502"/>
      <point x="250" y="607"/>
      <point x="193" y="716"/>
      <point x="160" y="772" type="qcurve"/>
      <point x="15" y="714" type="line"/>
      <point x="27" y="695"/>
      <point x="68" y="616"/>
      <point x="109" y="514"/>
      <point x="139" y="399"/>
      <point x="139" y="345" type="qcurve" smooth="yes"/>
      <point x="139" y="304"/>
      <point x="121" y="222"/>
      <point x="89" y="137"/>
      <point x="45" y="48"/>
      <point x="20" y="1" type="qcurve"/>
      <point x="158" y="-66" type="line"/>
      <point x="189" y="-20"/>
      <point x="246" y="81"/>
      <point x="290" y="186"/>
      <point x="316" y="294"/>
    </contour>
  </outline>
</glyph>
<glyph name="comma" format="2">
  <advance width="268"/>
  <unicode hex="002C"/>
  <outline>
    <contour>
      <point x="89" y="-183" type="line"/>
      <point x="244" y="89" type="line"/>
      <point x="77" y="119" type="line"/>
      <point x="9" y="-160" type="line"/>
    </contour>
  </outline>
</glyph>
<glyph name="period" format="2">
  <advance width="268"/>
  <unicode hex="002E"/>
  <outline>
    <contour>
      <point x="40" y="84" type="qcurve" smooth="yes"/>
      <point x="40" y="45"/>
      <point x="95" y="-10"/>
      <point x="134" y="-10" type="qcurve" smooth="yes"/>
      <point x="173" y="-10"/>
      <point x="228" y="45"/>
      <point x="228" y="84" type="qcurve" smooth="yes"/>
      <point x="228" y="123"/>
      <point x="173" y="178"/>
      <point x="134" y="178" type="qcurve" smooth="yes"/>
      <point x="95" y="178"/>
      <point x="40" y="123"/>
    </contour>
  </outline>
</glyph>
<glyph name="zero.tnum" format="2">
  <advance width="586"/>
  <unicode hex="0030"/>
  <outline>
    <contour>
      <point x="293" y="-10" type="qcurve" smooth="yes"/>
      <point x="362" y="-10"/>
      <point x="468" y="54"/>
      <point x="506" y="105" type="qcurve" smooth="yes"/>
      <point x="544" y="156"/>
      <point x="584" y="284"/>
      <point x="584" y="350" type="qcurve" smooth="yes"/>
      <point x="584" y="408"/>
      <point x="547" y="534"/>
      <point x="510" y="588" type="qcurve" smooth="yes"/>
      <point x="473" y="642"/>
      <point x="365" y="710"/>
      <point x="293" y="710" type="qcurve" smooth="yes"/>
      <point x="224" y="710"/>
      <point x="118" y="646"/>
      <point x="80" y="595" type="qcurve" smooth="yes"/>
      <point x="42" y="543"/>
      <point x="2" y="414"/>
      <point x="2" y="350" type="qcurve" smooth="yes"/>
      <point x="2" y="290"/>
      <point x="39" y="164"/>
      <point x="76" y="111" type="qcurve" smooth="yes"/>
      <point x="112" y="58"/>
      <point x="221" y="-10"/>
    </contour>
    <contour>
      <point x="200" y="350" type="qcurve" smooth="yes"/>
      <point x="200" y="380"/>
      <point x="210" y="445"/>
      <point x="221" y="473" type="qcurve" smooth="yes"/>
      <point x="232" y="501"/>
      <point x="267" y="537"/>
      <point x="293" y="537" type="qcurve" smooth="yes"/>
      <point x="318" y="537"/>
      <point x="353" y="503"/>
      <point x="364" y="476" type="qcurve" smooth="yes"/>
      <point x="375" y="449"/>
      <point x="386" y="383"/>
      <point x="386" y="350" type="qcurve" smooth="yes"/>
      <point x="386" y="320"/>
      <point x="376" y="255"/>
      <point x="365" y="227" type="qcurve" smooth="yes"/>
      <point x="354" y="199"/>
      <point x="319" y="163"/>
      <point x="293" y="163" type="qcurve" smooth="yes"/>
      <point x="268" y="163"/>
      <point x="233" y="197"/>
      <point x="222" y="224" type="qcurve"/>
      <point x="210" y="251"/>
      <point x="200" y="317"/>
    </contour>
  </outline>
</glyph>
<glyph name="one.tnum" format="2">
  <advance width="586"/>
  <unicode hex="0031"/>
  <outline>
    <contour>
      <point x="387" y="170" type="line"/>
      <point x="387" y="715" type="line"/>
      <point x="212" y="715" type="line"/>
      <point x="211" y="714"/>
      <point x="184" y="683"/>
      <point x="162" y="666" type="qcurve" smooth="yes"/>
      <point x="140" y="649"/>
      <point x="88" y="620"/>
      <point x="64" y="620" type="qcurve"/>
      <point x="64" y="446" type="line"/>
      <point x="82" y="446"/>
      <point x="128" y="464"/>
      <point x="149" y="478" type="qcurve" smooth="yes"/>
      <point x="170" y="492"/>
      <point x="205" y="520"/>
      <point x="212" y="532" type="qcurve"/>
      <point x="212" y="170" type="line"/>
      <point x="40" y="170" type="line"/>
      <point x="40" y="0" type="line"/>
      <point x="546" y="0" type="line"/>
      <point x="546" y="170" type="line"/>
    </contour>
  </outline>
</glyph>
<glyph name="four.tnum" format="2">
  <advance width="586"/>
  <unicode hex="0034"/>
  <outline>
    <contour>
      <point x="462" y="1" type="line"/>
      <point x="462" y="137" type="line"/>
      <point x="547" y="137" type="line"/>
      <point x="547" y="307" type="line"/>
      <point x="462" y="307" type="line"/>
      <point x="462" y="711" type="line"/>
      <point x="336" y="711" type="line"/>
      <point x="31" y="307" type="line"/>
      <point x="31" y="137" type="line"/>
      <point x="278" y="137" type="line"/>
      <point x="278" y="1" type="line"/>
    </contour>
    <contour>
      <point x="300" y="427" type="line"/>
      <point x="300" y="307" type="line"/>
      <point x="211" y="307" type="line"/>
    </contour>
  </outline>
</glyph>
<glyph name="five.tnum" format="2">
  <advance width="586"/>
  <unicode hex="0035"/>
  <outline>
    <contour>
      <point x="273" y="-11" type="qcurve" smooth="yes"/>
      <point x="332" y="-11"/>
      <point x="432" y="25"/>
      <point x="504" y="89"/>
      <point x="542" y="179"/>
      <point x="542" y="235" type="qcurve" smooth="yes"/>
      <point x="542" y="286"/>
      <point x="508" y="371"/>
      <point x="445" y="432"/>
      <point x="361" y="466"/>
      <point x="310" y="466" type="qcurve" smooth="yes"/>
      <point x="287" y="466"/>
      <point x="264" y="461"/>
      <point x="264" y="461" type="qcurve"/>
      <point x="274" y="538" type="line"/>
      <point x="490" y="538" type="line"/>
      <point x="490" y="711" type="line"/>
      <point x="143" y="711" type="line"/>
      <point x="61" y="267" type="line"/>
      <point x="219" y="267" type="line"/>
      <point x="228" y="283"/>
      <point x="261" y="302"/>
      <point x="281" y="302" type="qcurve" smooth="yes"/>
      <point x="295" y="302"/>
      <point x="320" y="292"/>
      <point x="338" y="272"/>
      <point x="347" y="246"/>
      <point x="347" y="230" type="qcurve" smooth="yes"/>
      <point x="347" y="213"/>
      <point x="336" y="187"/>
      <point x="317" y="167"/>
      <point x="288" y="157"/>
      <point x="271" y="157" type="qcurve" smooth="yes"/>
      <point x="238" y="157"/>
      <point x="171" y="192"/>
      <point x="143" y="223" type="qcurve"/>
      <point x="42" y="103" type="line"/>
      <point x="75" y="49"/>
      <point x="197" y="-11"/>
    </contour>
  </outline>
</glyph>
<glyph name="seven" format="2">
  <advance width="586"/>
  <unicode hex="0037"/>
  <outline>
    <contour>
      <point x="36" y="1" type="line"/>
      <point x="244" y="1" type="line"/>
      <point x="578" y="711" type="line"/>
      <point x="29" y="711" type="line"/>
      <point x="29" y="538" type="line"/>
      <point x="290" y="538" type="line"/>
    </contour>
  </outline>
</glyph>
<glyph name="eight.tnum" format="2">
  <advance width="586"/>
  <unicode hex="0038"/>
  <outline>
    <contour>
      <point x="559" y="221" type="qcurve" smooth="yes"/>
      <point x="559" y="249"/>
      <point x="543" y="297"/>
      <point x="519" y="337"/>
      <point x="488" y="368"/>
      <point x="473" y="379" type="qcurve"/>
      <point x="487" y="387"/>
      <point x="512" y="415"/>
      <point x="530" y="448"/>
      <point x="540" y="484"/>
      <point x="540" y="501" type="qcurve" smooth="yes"/>
      <point x="540" y="552"/>
      <point x="493" y="631"/>
      <point x="421" y="683"/>
      <point x="333" y="710"/>
      <point x="292" y="710" type="qcurve" smooth="yes"/>
      <point x="251" y="710"/>
      <point x="164" y="683"/>
      <point x="91" y="629"/>
      <point x="44" y="550"/>
      <point x="44" y="499" type="qcurve" smooth="yes"/>
      <point x="44" y="481"/>
      <point x="54" y="446"/>
      <point x="72" y="415"/>
      <point x="96" y="388"/>
      <point x="110" y="379" type="qcurve"/>
      <point x="95" y="368"/>
      <point x="65" y="338"/>
      <point x="40" y="300"/>
      <point x="24" y="254"/>
      <point x="24" y="227" type="qcurve" smooth="yes"/>
      <point x="24" y="173"/>
      <point x="68" y="85"/>
      <point x="142" y="23"/>
      <point x="239" y="-10"/>
      <point x="292" y="-10" type="qcurve" smooth="yes"/>
      <point x="348" y="-10"/>
      <point x="445" y="23"/>
      <point x="517" y="84"/>
      <point x="559" y="169"/>
    </contour>
    <contour>
      <point x="366" y="232" type="qcurve" smooth="yes"/>
      <point x="366" y="218"/>
      <point x="356" y="193"/>
      <point x="336" y="174"/>
      <point x="309" y="163"/>
      <point x="292" y="163" type="qcurve" smooth="yes"/>
      <point x="277" y="163"/>
      <point x="249" y="174"/>
      <point x="229" y="192"/>
      <point x="217" y="217"/>
      <point x="217" y="232" type="qcurve" smooth="yes"/>
      <point x="217" y="248"/>
      <point x="229" y="273"/>
      <point x="248" y="291"/>
      <point x="276" y="301"/>
      <point x="292" y="301" type="qcurve" smooth="yes"/>
      <point x="308" y="301"/>
      <point x="336" y="292"/>
      <point x="356" y="274"/>
      <point x="366" y="249"/>
    </contour>
    <contour>
      <point x="237" y="495" type="qcurve" smooth="yes"/>
      <point x="237" y="505"/>
      <point x="245" y="522"/>
      <point x="259" y="535"/>
      <point x="280" y="543"/>
      <point x="292" y="543" type="qcurve" smooth="yes"/>
      <point x="304" y="543"/>
      <point x="325" y="535"/>
      <point x="340" y="522"/>
      <point x="347" y="505"/>
      <point x="347" y="495" type="qcurve" smooth="yes"/>
      <point x="347" y="482"/>
      <point x="337" y="462"/>
      <point x="322" y="448"/>
      <point x="302" y="442"/>
      <point x="292" y="442" type="qcurve" smooth="yes"/>
      <point x="282" y="442"/>
      <point x="263" y="448"/>
      <point x="247" y="462"/>
      <point x="237" y="482"/>
    </contour>
  </outline>
</glyph>
<glyph name="nine" format="2">
  <advance width="586"/>
  <unicode hex="0039"/>
  <outline>
    <contour>
      <point x="29" y="464" type="curve" smooth="yes"/>
      <point x="29" y="610"/>
      <point x="148" y="716"/>
      <point x="291" y="716" type="curve" smooth="yes"/>
      <point x="492" y="716"/>
      <point x="555" y="538"/>
      <point x="555" y="366" type="curve" smooth="yes"/>
      <point x="555" y="185"/>
      <point x="486" y="-12"/>
      <point x="273" y="-12" type="curve" smooth="yes"/>
      <point x="184" y="-12"/>
      <point x="111" y="22"/>
      <point x="50" y="86" type="curve"/>
      <point x="155" y="206" type="line"/>
      <point x="188" y="173"/>
      <point x="229" y="154"/>
      <point x="276" y="154" type="curve" smooth="yes"/>
      <point x="345" y="154"/>
      <point x="376" y="201"/>
      <point x="380" y="265" type="curve"/>
      <point x="353" y="238"/>
      <point x="311" y="231"/>
      <point x="274" y="231" type="curve" smooth="yes"/>
      <point x="140" y="231"/>
      <point x="29" y="326"/>
    </contour>
    <contour>
      <point x="292" y="555" type="curve" smooth="yes"/>
      <point x="248" y="555"/>
      <point x="210" y="509"/>
      <point x="210" y="466" type="curve" smooth="yes"/>
      <point x="210" y="420"/>
      <point x="246" y="382"/>
      <point x="292" y="382" type="curve" smooth="yes"/>
      <point x="338" y="382"/>
      <point x="374" y="420"/>
      <point x="374" y="466" type="curve" smooth="yes"/>
      <point x="374" y="509"/>
      <point x="337" y="555"/>
    </contour>
  </outline>
</glyph>
<glyph name="question" format="2">
  <advance width="495"/>
  <unicode hex="003F"/>
  <outline>
    <contour>
      <point x="190" y="259" type="line"/>
      <point x="191" y="266"/>
      <point x="203" y="272"/>
      <point x="215" y="278" type="curve" smooth="yes"/>
      <point x="279" y="311"/>
      <point x="462" y="345"/>
      <point x="462" y="515" type="curve" smooth="yes"/>
      <point x="462" y="645"/>
      <point x="369" y="719"/>
      <point x="244" y="719" type="curve" smooth="yes"/>
      <point x="154" y="719"/>
      <point x="71" y="674"/>
      <point x="34" y="590" type="curve"/>
      <point x="155" y="504" type="line"/>
      <point x="180" y="534"/>
      <point x="191" y="566"/>
      <point x="237" y="566" type="curve" smooth="yes"/>
      <point x="266" y="566"/>
      <point x="297" y="548"/>
      <point x="297" y="516" type="curve" smooth="yes"/>
      <point x="297" y="440"/>
      <point x="105" y="399"/>
      <point x="104" y="322" type="curve" smooth="yes"/>
      <point x="104" y="291"/>
      <point x="130" y="272"/>
      <point x="155" y="259" type="curve"/>
    </contour>
    <contour>
      <point x="83" y="84" type="curve" smooth="yes"/>
      <point x="83" y="32"/>
      <point x="125" y="-10"/>
      <point x="177" y="-10" type="curve" smooth="yes"/>
      <point x="229" y="-10"/>
      <point x="271" y="32"/>
      <point x="271" y="84" type="curve" smooth="yes"/>
      <point x="271" y="136"/>
      <point x="229" y="178"/>
      <point x="177" y="178" type="curve" smooth="yes"/>
      <point x="125" y="178"/>
      <point x="83" y="136"/>
    </contour>
  </outline>
</glyph>
<glyph name="at" format="2">
  <advance width="852"/>
  <unicode hex="0040"/>
  <outline>
    <contour>
      <point x="425" y="603" type="qcurve" smooth="yes"/>
      <point x="348" y="603"/>
      <point x="208" y="556"/>
      <point x="101" y="462"/>
      <point x="37" y="323"/>
      <point x="37" y="231" type="qcurve" smooth="yes"/>
      <point x="37" y="144"/>
      <point x="94" y="5"/>
      <point x="193" y="-93"/>
      <point x="325" y="-146"/>
      <point x="400" y="-146" type="qcurve" smooth="yes"/>
      <point x="445" y="-146"/>
      <point x="538" y="-126"/>
      <point x="581" y="-106" type="qcurve"/>
      <point x="561" y="-38" type="line"/>
      <point x="524" y="-52"/>
      <point x="455" y="-76"/>
      <point x="403" y="-76" type="qcurve" smooth="yes"/>
      <point x="333" y="-76"/>
      <point x="225" y="-28"/>
      <point x="150" y="55"/>
      <point x="111" y="166"/>
      <point x="111" y="229" type="qcurve" smooth="yes"/>
      <point x="111" y="295"/>
      <point x="153" y="407"/>
      <point x="232" y="488"/>
      <point x="347" y="533"/>
      <point x="419" y="533" type="qcurve" smooth="yes"/>
      <point x="492" y="533"/>
      <point x="608" y="487"/>
      <point x="690" y="405"/>
      <point x="734" y="292"/>
      <point x="734" y="225" type="qcurve" smooth="yes"/>
      <point x="734" y="209"/>
      <point x="730" y="155"/>
      <point x="715" y="102"/>
      <point x="688" y="64"/>
      <point x="664" y="64" type="qcurve" smooth="yes"/>
      <point x="646" y="64"/>
      <point x="627" y="86"/>
      <point x="617" y="122"/>
      <point x="615" y="166"/>
      <point x="615" y="188" type="qcurve" smooth="yes"/>
      <point x="615" y="255" type="line" smooth="yes"/>
      <point x="615" y="288"/>
      <point x="608" y="362"/>
      <point x="570" y="426"/>
      <point x="490" y="468"/>
      <point x="418" y="468" type="qcurve" smooth="yes"/>
      <point x="368" y="468"/>
      <point x="278" y="445"/>
      <point x="240" y="419" type="qcurve"/>
      <point x="272" y="322" type="line"/>
      <point x="292" y="341"/>
      <point x="357" y="363"/>
      <point x="399" y="363" type="qcurve" smooth="yes"/>
      <point x="431" y="363"/>
      <point x="472" y="350"/>
      <point x="496" y="326"/>
      <point x="505" y="292"/>
      <point x="505" y="272" type="qcurve"/>
      <point x="491" y="279"/>
      <point x="441" y="292"/>
      <point x="403" y="292" type="qcurve" smooth="yes"/>
      <point x="368" y="292"/>
      <point x="301" y="277"/>
      <point x="249" y="241"/>
      <point x="217" y="182"/>
      <point x="217" y="138" type="qcurve" smooth="yes"/>
      <point x="217" y="72"/>
      <point x="295" y="-6"/>
      <point x="372" y="-6" type="qcurve" smooth="yes"/>
      <point x="419" y="-6"/>
      <point x="507" y="25"/>
      <point x="541" y="57" type="qcurve"/>
      <point x="543" y="46"/>
      <point x="555" y="20"/>
      <point x="579" y="-2"/>
      <point x="617" y="-16"/>
      <point x="645" y="-16" type="qcurve" smooth="yes"/>
      <point x="703" y="-16"/>
      <point x="768" y="43"/>
      <point x="800" y="121"/>
      <point x="807" y="200"/>
      <point x="807" y="221" type="qcurve" smooth="yes"/>
      <point x="807" y="321"/>
      <point x="743" y="465"/>
      <point x="636" y="558"/>
      <point x="499" y="603"/>
    </contour>
    <contour>
      <point x="465" y="100" type="qcurve" smooth="yes"/>
      <point x="445" y="89"/>
      <point x="399" y="83"/>
      <point x="385" y="83" type="qcurve" smooth="yes"/>
      <point x="370" y="83"/>
      <point x="347" y="90"/>
      <point x="333" y="104"/>
      <point x="326" y="125"/>
      <point x="326" y="139" type="qcurve" smooth="yes"/>
      <point x="326" y="156"/>
      <point x="335" y="182"/>
      <point x="355" y="199"/>
      <point x="384" y="208"/>
      <point x="405" y="208" type="qcurve" smooth="yes"/>
      <point x="419" y="208"/>
      <point x="448" y="204"/>
      <point x="474" y="199"/>
      <point x="497" y="192"/>
      <point x="504" y="189" type="qcurve"/>
      <point x="504" y="148" type="line" smooth="yes"/>
      <point x="504" y="140"/>
      <point x="497" y="125"/>
      <point x="485" y="113"/>
      <point x="471" y="103"/>
    </contour>
  </outline>
</glyph>
<glyph name="B" format="2">
  <advance width="690"/>
  <unicode hex="0042"/>
  <outline>
    <contour>
      <point x="665" y="182" type="qcurve" smooth="yes"/>
      <point x="665" y="219"/>
      <point x="647" y="279"/>
      <point x="612" y="324"/>
      <point x="563" y="355"/>
      <point x="533" y="364" type="qcurve"/>
      <point x="584" y="387"/>
      <point x="635" y="478"/>
      <point x="635" y="528" type="qcurve" smooth="yes"/>
      <point x="635" y="562"/>
      <point x="613" y="627"/>
      <point x="571" y="678"/>
      <point x="511" y="710"/>
      <point x="473" y="710" type="qcurve" smooth="yes"/>
      <point x="61" y="710" type="line"/>
      <point x="61" y="0" type="line"/>
      <point x="410" y="0" type="line" smooth="yes"/>
      <point x="463" y="0"/>
      <point x="555" y="21"/>
      <point x="625" y="65"/>
      <point x="665" y="134"/>
    </contour>
    <contour>
      <point x="467" y="222" type="qcurve" smooth="yes"/>
      <point x="467" y="208"/>
      <point x="458" y="187"/>
      <point x="443" y="172"/>
      <point x="422" y="164"/>
      <point x="410" y="164" type="qcurve" smooth="yes"/>
      <point x="256" y="164" type="line"/>
      <point x="256" y="283" type="line"/>
      <point x="417" y="283" type="line" smooth="yes"/>
      <point x="428" y="283"/>
      <point x="446" y="274"/>
      <point x="460" y="257"/>
      <point x="467" y="235"/>
    </contour>
    <contour>
      <point x="395" y="544" type="line" smooth="yes"/>
      <point x="404" y="544"/>
      <point x="421" y="538"/>
      <point x="434" y="525"/>
      <point x="442" y="505"/>
      <point x="442" y="490" type="qcurve" smooth="yes"/>
      <point x="442" y="474"/>
      <point x="433" y="452"/>
      <point x="418" y="440"/>
      <point x="399" y="435"/>
      <point x="389" y="435" type="qcurve" smooth="yes"/>
      <point x="256" y="435" type="line"/>
      <point x="256" y="544" type="line"/>
    </contour>
  </outline>
</glyph>
<glyph name="C" format="2">
  <advance width="691"/>
  <unicode hex="0043"/>
  <outline>
    <contour>
      <point x="22" y="361" type="qcurve" smooth="yes"/>
      <point x="22" y="293"/>
      <point x="75" y="161"/>
      <point x="169" y="58"/>
      <point x="300" y="-6"/>
      <point x="379" y="-6" type="qcurve" smooth="yes"/>
      <point x="424" y="-6"/>
      <point x="519" y="16"/>
      <point x="602" y="58"/>
      <point x="667" y="120"/>
      <point x="683" y="159" type="qcurve"/>
      <point x="524" y="254" type="line"/>
      <point x="515" y="230"/>
      <point x="484" y="197"/>
      <point x="445" y="176"/>
      <point x="403" y="167"/>
      <point x="383" y="167" type="qcurve" smooth="yes"/>
      <point x="345" y="167"/>
      <point x="284" y="198"/>
      <point x="242" y="250"/>
      <point x="220" y="318"/>
      <point x="220" y="355" type="qcurve" smooth="yes"/>
      <point x="220" y="388"/>
      <point x="239" y="455"/>
      <point x="278" y="508"/>
      <point x="339" y="541"/>
      <point x="381" y="541" type="qcurve" smooth="yes"/>
      <point x="401" y="541"/>
      <point x="444" y="533"/>
      <point x="484" y="513"/>
      <point x="517" y="479"/>
      <point x="527" y="453" type="qcurve"/>
      <point x="676" y="559" type="line"/>
      <point x="639" y="629"/>
      <point x="488" y="714"/>
      <point x="385" y="714" type="qcurve" smooth="yes"/>
      <point x="300" y="714"/>
      <point x="165" y="652"/>
      <point x="71" y="552"/>
      <point x="22" y="426"/>
    </contour>
  </outline>
</glyph>
<glyph name="D" format="2">
  <advance width="716"/>
  <unicode hex="0044"/>
  <outline>
    <contour>
      <point x="334" y="0" type="line" smooth="yes"/>
      <point x="415" y="0"/>
      <point x="547" y="51"/>
      <point x="641" y="144"/>
      <point x="692" y="275"/>
      <point x="692" y="356" type="qcurve" smooth="yes"/>
      <point x="692" y="430"/>
      <point x="647" y="559"/>
      <point x="557" y="655"/>
      <point x="423" y="710"/>
      <point x="334" y="710" type="qcurve" smooth="yes"/>
      <point x="61" y="710" type="line"/>
      <point x="61" y="0" type="line"/>
    </contour>
    <contour>
      <point x="494" y="356" type="qcurve" smooth="yes"/>
      <point x="494" y="316"/>
      <point x="473" y="248"/>
      <point x="432" y="198"/>
      <point x="372" y="170"/>
      <point x="334" y="170" type="qcurve" smooth="yes"/>
      <point x="256" y="170" type="line"/>
      <point x="256" y="540" type="line"/>
      <point x="334" y="540" type="line" smooth="yes"/>
      <point x="372" y="540"/>
      <point x="431" y="513"/>
      <point x="472" y="465"/>
      <point x="494" y="397"/>
    </contour>
  </outline>
</glyph>
<glyph name="J" format="2">
  <advance width="579"/>
  <unicode hex="004A"/>
  <outline>
    <contour>
      <point x="251" y="-5" type="qcurve" smooth="yes"/>
      <point x="206" y="-5"/>
      <point x="127" y="21"/>
      <point x="63" y="70"/>
      <point x="16" y="139"/>
      <point x="4" y="182" type="qcurve"/>
      <point x="165" y="254" type="line"/>
      <point x="171" y="236"/>
      <point x="184" y="205"/>
      <point x="204" y="181"/>
      <point x="232" y="168"/>
      <point x="254" y="168" type="qcurve" smooth="yes"/>
      <point x="279" y="168"/>
      <point x="309" y="183"/>
      <point x="326" y="209"/>
      <point x="332" y="245"/>
      <point x="332" y="266" type="qcurve" smooth="yes"/>
      <point x="332" y="710" type="line"/>
      <point x="518" y="710" type="line"/>
      <point x="518" y="253" type="line" smooth="yes"/>
      <point x="518" y="195"/>
      <point x="477" y="100"/>
      <point x="405" y="32"/>
      <point x="308" y="-5"/>
    </contour>
  </outline>
</glyph>
<glyph name="P" format="2">
  <advance width="623"/>
  <unicode hex="0050"/>
  <outline>
    <contour>
      <point x="256" y="0" type="line"/>
      <point x="256" y="218" type="line"/>
      <point x="372" y="218" type="line" smooth="yes"/>
      <point x="425" y="218"/>
      <point x="511" y="259"/>
      <point x="572" y="328"/>
      <point x="606" y="417"/>
      <point x="606" y="464" type="qcurve" smooth="yes"/>
      <point x="606" y="509"/>
      <point x="570" y="598"/>
      <point x="507" y="667"/>
      <point x="419" y="710"/>
      <point x="367" y="710" type="qcurve" smooth="yes"/>
      <point x="61" y="710" type="line"/>
      <point x="61" y="0" type="line"/>
    </contour>
    <contour>
      <point x="256" y="540" type="line"/>
      <point x="354" y="540" type="line" smooth="yes"/>
      <point x="363" y="540"/>
      <point x="382" y="533"/>
      <point x="398" y="515"/>
      <point x="408" y="486"/>
      <point x="408" y="464" type="qcurve" smooth="yes"/>
      <point x="408" y="443"/>
      <point x="399" y="414"/>
      <point x="386" y="396"/>
      <point x="368" y="388"/>
      <point x="359" y="388" type="qcurve" smooth="yes"/>
      <point x="256" y="388" type="line"/>
    </contour>
  </outline>
</glyph>
<glyph name="Q" format="2">
  <advance width="765"/>
  <unicode hex="0051"/>
  <outline>
    <contour>
      <point x="381" y="-5" type="qcurve" smooth="yes"/>
      <point x="461" y="-5"/>
      <point x="594" y="54"/>
      <point x="690" y="153"/>
      <point x="743" y="282"/>
      <point x="743" y="352" type="qcurve" smooth="yes"/>
      <point x="743" y="420"/>
      <point x="692" y="550"/>
      <point x="598" y="652"/>
      <point x="466" y="715"/>
      <point x="385" y="715" type="qcurve" smooth="yes"/>
      <point x="306" y="715"/>
      <point x="173" y="656"/>
      <point x="76" y="556"/>
      <point x="22" y="427"/>
      <point x="22" y="356" type="qcurve" smooth="yes"/>
      <point x="22" y="287"/>
      <point x="74" y="157"/>
      <point x="168" y="56"/>
      <point x="300" y="-5"/>
    </contour>
    <contour>
      <point x="383" y="168" type="qcurve" smooth="yes"/>
      <point x="341" y="168"/>
      <point x="280" y="199"/>
      <point x="240" y="251"/>
      <point x="220" y="318"/>
      <point x="220" y="354" type="qcurve" smooth="yes"/>
      <point x="220" y="389"/>
      <point x="239" y="456"/>
      <point x="279" y="509"/>
      <point x="340" y="542"/>
      <point x="382" y="542" type="qcurve" smooth="yes"/>
      <point x="423" y="542"/>
      <point x="485" y="511"/>
      <point x="525" y="459"/>
      <point x="545" y="392"/>
      <point x="545" y="356" type="qcurve" smooth="yes"/>
      <point x="545" y="321"/>
      <point x="526" y="254"/>
      <point x="487" y="201"/>
      <point x="425" y="168"/>
    </contour>
    <contour>
      <point x="621" y="-46" type="line"/>
      <point x="728" y="63" type="line"/>
      <point x="469" y="344" type="line"/>
      <point x="359" y="238" type="line"/>
    </contour>
  </outline>
</glyph>
<glyph name="R" format="2">
  <advance width="675"/>
  <unicode hex="0052"/>
  <outline>
    <contour>
      <point x="256" y="0" type="line"/>
      <point x="256" y="218" type="line"/>
      <point x="335" y="218" type="line"/>
      <point x="460" y="0" type="line"/>
      <point x="674" y="0" type="line"/>
      <point x="524" y="261" type="line"/>
      <point x="548" y="278"/>
      <point x="586" y="322"/>
      <point x="612" y="375"/>
      <point x="626" y="433"/>
      <point x="626" y="464" type="qcurve" smooth="yes"/>
      <point x="626" y="509"/>
      <point x="590" y="598"/>
      <point x="527" y="667"/>
      <point x="439" y="710"/>
      <point x="387" y="710" type="qcurve" smooth="yes"/>
      <point x="61" y="710" type="line"/>
      <point x="61" y="0" type="line"/>
    </contour>
    <contour>
      <point x="256" y="540" type="line"/>
      <point x="374" y="540" type="line" smooth="yes"/>
      <point x="383" y="540"/>
      <point x="402" y="530"/>
      <point x="418" y="511"/>
      <point x="428" y="482"/>
      <point x="428" y="464" type="qcurve" smooth="yes"/>
      <point x="428" y="446"/>
      <point x="419" y="418"/>
      <point x="406" y="398"/>
      <point x="388" y="388"/>
      <point x="379" y="388" type="qcurve" smooth="yes"/>
      <point x="256" y="388" type="line"/>
    </contour>
  </outline>
</glyph>
<glyph name="S" format="2">
  <advance width="617"/>
  <unicode hex="0053"/>
  <outline>
    <contour>
      <point x="575" y="639" type="line"/>
      <point x="551" y="651"/>
      <point x="491" y="678"/>
      <point x="422" y="701"/>
      <point x="348" y="716"/>
      <point x="309" y="716" type="qcurve" smooth="yes"/>
      <point x="257" y="716"/>
      <point x="161" y="685"/>
      <point x="87" y="625"/>
      <point x="44" y="535"/>
      <point x="44" y="476" type="qcurve" smooth="yes"/>
      <point x="44" y="437"/>
      <point x="65" y="377"/>
      <point x="109" y="330"/>
      <point x="177" y="293"/>
      <point x="224" y="277" type="qcurve" smooth="yes"/>
      <point x="256" y="266"/>
      <point x="313" y="250"/>
      <point x="357" y="234"/>
      <point x="382" y="213"/>
      <point x="382" y="198" type="qcurve" smooth="yes"/>
      <point x="382" y="184"/>
      <point x="357" y="167"/>
      <point x="325" y="167" type="qcurve" smooth="yes"/>
      <point x="284" y="167"/>
      <point x="203" y="191"/>
      <point x="138" y="221"/>
      <point x="97" y="245"/>
      <point x="97" y="245" type="qcurve"/>
      <point x="13" y="74" type="line"/>
      <point x="45" y="55"/>
      <point x="120" y="25"/>
      <point x="201" y="3"/>
      <point x="283" y="-9"/>
      <point x="322" y="-9" type="qcurve" smooth="yes"/>
      <point x="372" y="-9"/>
      <point x="468" y="14"/>
      <point x="545" y="66"/>
      <point x="592" y="153"/>
      <point x="592" y="217" type="qcurve" smooth="yes"/>
      <point x="592" y="267"/>
      <point x="562" y="337"/>
      <point x="506" y="386"/>
      <point x="427" y="422"/>
      <point x="378" y="437" type="qcurve" smooth="yes"/>
      <point x="347" y="447"/>
      <point x="298" y="461"/>
      <point x="264" y="476"/>
      <point x="246" y="494"/>
      <point x="246" y="508" type="qcurve" smooth="yes"/>
      <point x="246" y="527"/>
      <point x="278" y="543"/>
      <point x="303" y="543" type="qcurve" smooth="yes"/>
      <point x="335" y="543"/>
      <point x="402" y="523"/>
      <point x="456" y="498"/>
      <point x="491" y="478"/>
      <point x="491" y="478" type="qcurve"/>
    </contour>
  </outline>
</glyph>
<glyph name="U" format="2">
  <advance width="743"/>
  <unicode hex="0055"/>
  <outline>
    <contour>
      <point x="371" y="-6" type="qcurve" smooth="yes"/>
      <point x="454" y="-6"/>
      <point x="574" y="48"/>
      <point x="654" y="143"/>
      <point x="692" y="271"/>
      <point x="692" y="345" type="qcurve" smooth="yes"/>
      <point x="692" y="710" type="line"/>
      <point x="497" y="710" type="line"/>
      <point x="497" y="345" type="line" smooth="yes"/>
      <point x="497" y="311"/>
      <point x="484" y="246"/>
      <point x="454" y="197"/>
      <point x="406" y="167"/>
      <point x="371" y="167" type="qcurve" smooth="yes"/>
      <point x="337" y="167"/>
      <point x="290" y="196"/>
      <point x="260" y="245"/>
      <point x="246" y="310"/>
      <point x="246" y="345" type="qcurve" smooth="yes"/>
      <point x="246" y="710" type="line"/>
      <point x="51" y="710" type="line"/>
      <point x="51" y="345" type="line" smooth="yes"/>
      <point x="51" y="275"/>
      <point x="87" y="147"/>
      <point x="165" y="51"/>
      <point x="286" y="-6"/>
    </contour>
  </outline>
</glyph>
<glyph name="b" format="2">
  <advance width="647"/>
  <unicode hex="0062"/>
  <outline>
    <contour>
      <point x="383" y="-10" type="qcurve" smooth="yes"/>
      <point x="436" y="-10"/>
      <point x="525" y="31"/>
      <point x="590" y="103"/>
      <point x="627" y="203"/>
      <point x="627" y="261" type="qcurve" smooth="yes"/>
      <point x="627" y="320"/>
      <point x="593" y="421"/>
      <point x="533" y="495"/>
      <point x="450" y="536"/>
      <point x="402" y="536" type="qcurve" smooth="yes"/>
      <point x="345" y="536"/>
      <point x="261" y="491"/>
      <point x="238" y="448" type="qcurve"/>
      <point x="238" y="730" type="line"/>
      <point x="48" y="730" type="line"/>
      <point x="48" y="0" type="line"/>
      <point x="213" y="0" type="line"/>
      <point x="213" y="82" type="line"/>
      <point x="225" y="60"/>
      <point x="259" y="25"/>
      <point x="302" y="2"/>
      <point x="353" y="-10"/>
    </contour>
    <contour>
      <point x="328" y="150" type="qcurve" smooth="yes"/>
      <point x="315" y="150"/>
      <point x="290" y="157"/>
      <point x="268" y="170"/>
      <point x="247" y="191"/>
      <point x="238" y="204" type="qcurve"/>
      <point x="238" y="298" type="line"/>
      <point x="245" y="315"/>
      <point x="266" y="344"/>
      <point x="292" y="365"/>
      <point x="321" y="376"/>
      <point x="336" y="376" type="qcurve" smooth="yes"/>
      <point x="357" y="376"/>
      <point x="392" y="358"/>
      <point x="417" y="326"/>
      <point x="432" y="284"/>
      <point x="432" y="260" type="qcurve" smooth="yes"/>
      <point x="432" y="235"/>
      <point x="417" y="195"/>
      <point x="390" y="166"/>
      <point x="351" y="150"/>
    </contour>
  </outline>
</glyph>
<glyph name="c" format="2">
  <advance width="577"/>
  <unicode hex="0063"/>
  <outline>
    <contour>
      <point x="308" y="-10" type="qcurve" smooth="yes"/>
      <point x="356" y="-10"/>
      <point x="436" y="11"/>
      <point x="500" y="49"/>
      <point x="549" y="102"/>
      <point x="565" y="133" type="qcurve"/>
      <point x="380" y="189" type="line"/>
      <point x="374" y="180"/>
      <point x="358" y="165"/>
      <point x="340" y="155"/>
      <point x="319" y="150"/>
      <point x="307" y="150" type="qcurve" smooth="yes"/>
      <point x="288" y="150"/>
      <point x="254" y="165"/>
      <point x="228" y="194"/>
      <point x="214" y="236"/>
      <point x="214" y="263" type="qcurve" smooth="yes"/>
      <point x="214" y="290"/>
      <point x="228" y="332"/>
      <point x="254" y="361"/>
      <point x="288" y="376"/>
      <point x="307" y="376" type="qcurve" smooth="yes"/>
      <point x="330" y="376"/>
      <point x="367" y="356"/>
      <point x="380" y="337" type="qcurve"/>
      <point x="565" y="393" type="line"/>
      <point x="533" y="456"/>
      <point x="404" y="536"/>
      <point x="308" y="536" type="qcurve" smooth="yes"/>
      <point x="238" y="536"/>
      <point x="131" y="491"/>
      <point x="57" y="416"/>
      <point x="19" y="317"/>
      <point x="19" y="263" type="qcurve" smooth="yes"/>
      <point x="19" y="209"/>
      <point x="57" y="110"/>
      <point x="131" y="35"/>
      <point x="238" y="-10"/>
    </contour>
  </outline>
</glyph>
<glyph name="e" format="2">
  <advance width="609"/>
  <unicode hex="0065"/>
  <outline>
    <contour>
      <point x="307" y="-10" type="qcurve" smooth="yes"/>
      <point x="355" y="-10"/>
      <point x="437" y="11"/>
      <point x="503" y="49"/>
      <point x="553" y="102"/>
      <point x="569" y="133" type="qcurve"/>
      <point x="408" y="179" type="line"/>
      <point x="404" y="167"/>
      <point x="384" y="147"/>
      <point x="359" y="133"/>
      <point x="328" y="126"/>
      <point x="313" y="126" type="qcurve" smooth="yes"/>
      <point x="297" y="126"/>
      <point x="265" y="135"/>
      <point x="239" y="154"/>
      <point x="223" y="184"/>
      <point x="221" y="205" type="qcurve"/>
      <point x="590" y="205" type="line"/>
      <point x="592" y="217"/>
      <point x="595" y="248"/>
      <point x="595" y="263" type="qcurve" smooth="yes"/>
      <point x="595" y="317"/>
      <point x="558" y="416"/>
      <point x="485" y="491"/>
      <point x="378" y="536"/>
      <point x="307" y="536" type="qcurve" smooth="yes"/>
      <point x="237" y="536"/>
      <point x="129" y="491"/>
      <point x="56" y="415"/>
      <point x="19" y="313"/>
      <point x="19" y="256" type="qcurve" smooth="yes"/>
      <point x="19" y="203"/>
      <point x="57" y="107"/>
      <point x="130" y="33"/>
      <point x="238" y="-10"/>
    </contour>
    <contour>
      <point x="217" y="319" type="line"/>
      <point x="219" y="338"/>
      <point x="234" y="369"/>
      <point x="256" y="390"/>
      <point x="286" y="401"/>
      <point x="304" y="401" type="qcurve" smooth="yes"/>
      <point x="322" y="401"/>
      <point x="352" y="390"/>
      <point x="375" y="369"/>
      <point x="389" y="338"/>
      <point x="391" y="319" type="qcurve"/>
    </contour>
  </outline>
</glyph>
<glyph name="f" format="2">
  <advance width="402"/>
  <unicode hex="0066"/>
  <outline>
    <contour>
      <point x="275" y="0" type="line"/>
      <point x="275" y="322" type="line"/>
      <point x="390" y="322" type="line"/>
      <point x="390" y="465" type="line"/>
      <point x="275" y="465" type="line"/>
      <point x="275" y="529" type="line" smooth="yes"/>
      <point x="275" y="555"/>
      <point x="298" y="580"/>
      <point x="321" y="580" type="qcurve" smooth="yes"/>
      <point x="336" y="580"/>
      <point x="375" y="572"/>
      <point x="392" y="566" type="qcurve"/>
      <point x="424" y="710" type="line"/>
      <point x="384" y="725"/>
      <point x="312" y="740"/>
      <point x="278" y="740" type="qcurve" smooth="yes"/>
      <point x="235" y="740"/>
      <point x="163" y="709"/>
      <point x="113" y="652"/>
      <point x="85" y="572"/>
      <point x="85" y="522" type="qcurve" smooth="yes"/>
      <point x="85" y="465" type="line"/>
      <point x="20" y="465" type="line"/>
      <point x="20" y="322" type="line"/>
      <point x="85" y="322" type="line"/>
      <point x="85" y="0" type="line"/>
    </contour>
  </outline>
</glyph>
<glyph name="g" format="2">
  <advance width="647"/>
  <unicode hex="0067"/>
  <outline>
    <contour>
      <point x="250" y="0" type="qcurve" smooth="yes"/>
      <point x="301" y="0"/>
      <point x="386" y="40"/>
      <point x="409" y="82" type="qcurve"/>
      <point x="409" y="48" type="line" smooth="yes"/>
      <point x="409" y="13"/>
      <point x="388" y="-37"/>
      <point x="352" y="-68"/>
      <point x="305" y="-82"/>
      <point x="279" y="-82" type="qcurve" smooth="yes"/>
      <point x="233" y="-82"/>
      <point x="152" y="-45"/>
      <point x="123" y="-18" type="qcurve"/>
      <point x="23" y="-122" type="line"/>
      <point x="71" y="-171"/>
      <point x="196" y="-223"/>
      <point x="279" y="-223" type="qcurve" smooth="yes"/>
      <point x="351" y="-223"/>
      <point x="469" y="-184"/>
      <point x="553" y="-114"/>
      <point x="599" y="-14"/>
      <point x="599" y="48" type="qcurve" smooth="yes"/>
      <point x="599" y="526" type="line"/>
      <point x="434" y="526" type="line"/>
      <point x="434" y="448" type="line"/>
      <point x="422" y="469"/>
      <point x="387" y="502"/>
      <point x="344" y="525"/>
      <point x="294" y="536"/>
      <point x="266" y="536" type="qcurve" smooth="yes"/>
      <point x="212" y="536"/>
      <point x="122" y="495"/>
      <point x="57" y="423"/>
      <point x="21" y="323"/>
      <point x="21" y="264" type="qcurve" smooth="yes"/>
      <point x="21" y="208"/>
      <point x="54" y="112"/>
      <point x="114" y="41"/>
      <point x="199" y="0"/>
    </contour>
    <contour>
      <point x="318" y="150" type="qcurve" smooth="yes"/>
      <point x="296" y="150"/>
      <point x="258" y="166"/>
      <point x="230" y="194"/>
      <point x="215" y="235"/>
      <point x="215" y="259" type="qcurve" smooth="yes"/>
      <point x="215" y="283"/>
      <point x="230" y="326"/>
      <point x="255" y="357"/>
      <point x="290" y="376"/>
      <point x="310" y="376" type="qcurve" smooth="yes"/>
      <point x="325" y="376"/>
      <point x="354" y="365"/>
      <point x="380" y="345"/>
      <point x="402" y="316"/>
      <point x="409" y="298" type="qcurve"/>
      <point x="409" y="204" type="line"/>
      <point x="400" y="191"/>
      <point x="380" y="170"/>
      <point x="357" y="157"/>
      <point x="332" y="150"/>
    </contour>
  </outline>
</glyph>
<glyph name="h" format="2">
  <advance width="621"/>
  <unicode hex="0068"/>
  <outline>
    <contour>
      <point x="577" y="346" type="line" smooth="yes"/>
      <point x="577" y="375"/>
      <point x="567" y="441"/>
      <point x="533" y="498"/>
      <point x="468" y="536"/>
      <point x="412" y="536" type="qcurve" smooth="yes"/>
      <point x="356" y="536"/>
      <point x="266" y="491"/>
      <point x="238" y="448" type="qcurve"/>
      <point x="238" y="730" type="line"/>
      <point x="48" y="730" type="line"/>
      <point x="48" y="0" type="line"/>
      <point x="238" y="0" type="line"/>
      <point x="238" y="295" type="line"/>
      <point x="245" y="312"/>
      <point x="267" y="340"/>
      <point x="292" y="360"/>
      <point x="317" y="370"/>
      <point x="326" y="370" type="qcurve" smooth="yes"/>
      <point x="352" y="370"/>
      <point x="387" y="335"/>
      <point x="387" y="296" type="qcurve" smooth="yes"/>
      <point x="387" y="0" type="line"/>
      <point x="577" y="0" type="line"/>
    </contour>
  </outline>
</glyph>
<glyph name="l" format="2">
  <advance width="355"/>
  <unicode hex="006C"/>
  <outline>
    <contour>
      <point x="44" y="142" type="line" smooth="yes"/>
      <point x="44" y="68"/>
      <point x="126" y="-10"/>
      <point x="202" y="-10" type="qcurve" smooth="yes"/>
      <point x="240" y="-10"/>
      <point x="325" y="8"/>
      <point x="359" y="24" type="qcurve"/>
      <point x="335" y="164" type="line"/>
      <point x="323" y="157"/>
      <point x="295" y="149"/>
      <point x="283" y="149" type="qcurve" smooth="yes"/>
      <point x="271" y="149"/>
      <point x="253" y="157"/>
      <point x="240" y="172"/>
      <point x="234" y="194"/>
      <point x="234" y="209" type="qcurve" smooth="yes"/>
      <point x="234" y="730" type="line"/>
      <point x="44" y="730" type="line"/>
    </contour>
  </outline>
</glyph>
<glyph name="m" format="2">
  <advance width="940"/>
  <unicode hex="006D"/>
  <outline>
    <contour>
      <point x="896" y="346" type="line" smooth="yes"/>
      <point x="896" y="373"/>
      <point x="886" y="439"/>
      <point x="854" y="497"/>
      <point x="793" y="536"/>
      <point x="741" y="536" type="qcurve" smooth="yes"/>
      <point x="679" y="536"/>
      <point x="582" y="488"/>
      <point x="554" y="445" type="qcurve"/>
      <point x="543" y="480"/>
      <point x="477" y="536"/>
      <point x="412" y="536" type="qcurve" smooth="yes"/>
      <point x="345" y="536"/>
      <point x="247" y="491"/>
      <point x="219" y="448" type="qcurve"/>
      <point x="219" y="526" type="line"/>
      <point x="48" y="526" type="line"/>
      <point x="48" y="0" type="line"/>
      <point x="238" y="0" type="line"/>
      <point x="238" y="295" type="line"/>
      <point x="244" y="312"/>
      <point x="264" y="339"/>
      <point x="288" y="359"/>
      <point x="313" y="370"/>
      <point x="324" y="370" type="qcurve" smooth="yes"/>
      <point x="346" y="370"/>
      <point x="377" y="335"/>
      <point x="377" y="296" type="qcurve" smooth="yes"/>
      <point x="377" y="0" type="line"/>
      <point x="567" y="0" type="line"/>
      <point x="567" y="295" type="line"/>
      <point x="573" y="312"/>
      <point x="593" y="339"/>
      <point x="617" y="359"/>
      <point x="642" y="370"/>
      <point x="653" y="370" type="qcurve" smooth="yes"/>
      <point x="675" y="370"/>
      <point x="706" y="335"/>
      <point x="706" y="296" type="qcurve" smooth="yes"/>
      <point x="706" y="0" type="line"/>
      <point x="896" y="0" type="line"/>
    </contour>
  </outline>
</glyph>
<glyph name="n" format="2">
  <advance width="621"/>
  <unicode hex="006E"/>
  <outline>
    <contour>
      <point x="577" y="346" type="line" smooth="yes"/>
      <point x="577" y="373"/>
      <point x="567" y="439"/>
      <point x="534" y="497"/>
      <point x="471" y="536"/>
      <point x="417" y="536" type="qcurve" smooth="yes"/>
      <point x="383" y="536"/>
      <point x="323" y="525"/>
      <point x="273" y="502"/>
      <point x="233" y="469"/>
      <point x="219" y="448" type="qcurve"/>
      <point x="219" y="526" type="line"/>
      <point x="48" y="526" type="line"/>
      <point x="48" y="0" type="line"/>
      <point x="238" y="0" type="line"/>
      <point x="238" y="295" type="line"/>
      <point x="244" y="312"/>
      <point x="265" y="339"/>
      <point x="290" y="359"/>
      <point x="317" y="370"/>
      <point x="329" y="370" type="qcurve" smooth="yes"/>
      <point x="352" y="370"/>
      <point x="387" y="335"/>
      <point x="387" y="296" type="qcurve" smooth="yes"/>
      <point x="387" y="0" type="line"/>
      <point x="577" y="0" type="line"/>
    </contour>
  </outline>
</glyph>
<glyph name="p" format="2">
  <advance width="647"/>
  <unicode hex="0070"/>
  <outline>
    <contour>
      <point x="402" y="-10" type="qcurve" smooth="yes"/>
      <point x="450" y="-10"/>
      <point x="532" y="32"/>
      <point x="592" y="105"/>
      <point x="626" y="206"/>
      <point x="626" y="265" type="qcurve" smooth="yes"/>
      <point x="626" y="324"/>
      <point x="589" y="423"/>
      <point x="525" y="495"/>
      <point x="436" y="536"/>
      <point x="383" y="536" type="qcurve" smooth="yes"/>
      <point x="323" y="536"/>
      <point x="241" y="490"/>
      <point x="213" y="447" type="qcurve"/>
      <point x="213" y="526" type="line"/>
      <point x="48" y="526" type="line"/>
      <point x="48" y="-213" type="line"/>
      <point x="238" y="-213" type="line"/>
      <point x="238" y="78" type="line"/>
      <point x="249" y="57"/>
      <point x="282" y="24"/>
      <point x="324" y="1"/>
      <point x="374" y="-10"/>
    </contour>
    <contour>
      <point x="336" y="150" type="qcurve" smooth="yes"/>
      <point x="321" y="150"/>
      <point x="292" y="162"/>
      <point x="266" y="184"/>
      <point x="245" y="214"/>
      <point x="238" y="231" type="qcurve"/>
      <point x="238" y="322" type="line"/>
      <point x="247" y="336"/>
      <point x="268" y="356"/>
      <point x="290" y="369"/>
      <point x="315" y="376"/>
      <point x="328" y="376" type="qcurve" smooth="yes"/>
      <point x="351" y="376"/>
      <point x="390" y="360"/>
      <point x="417" y="331"/>
      <point x="432" y="291"/>
      <point x="432" y="266" type="qcurve" smooth="yes"/>
      <point x="432" y="242"/>
      <point x="417" y="200"/>
      <point x="392" y="168"/>
      <point x="357" y="150"/>
    </contour>
  </outline>
</glyph>
<glyph name="r" format="2">
  <advance width="416"/>
  <unicode hex="0072"/>
  <outline>
    <contour>
      <point x="405" y="535" type="line"/>
      <point x="401" y="536"/>
      <point x="392" y="536"/>
      <point x="381" y="536" type="qcurve" smooth="yes"/>
      <point x="333" y="536"/>
      <point x="250" y="479"/>
      <point x="222" y="426" type="qcurve"/>
      <point x="222" y="526" type="line"/>
      <point x="48" y="526" type="line"/>
      <point x="48" y="0" type="line"/>
      <point x="238" y="0" type="line"/>
      <point x="238" y="312" type="line"/>
      <point x="260" y="340"/>
      <point x="350" y="364"/>
      <point x="405" y="364" type="qcurve"/>
    </contour>
  </outline>
</glyph>
<glyph name="s" format="2">
  <advance width="501"/>
  <unicode hex="0073"/>
  <outline>
    <contour>
      <point x="259" y="-10" type="qcurve" smooth="yes"/>
      <point x="309" y="-10"/>
      <point x="390" y="14"/>
      <point x="447" y="60"/>
      <point x="477" y="125"/>
      <point x="477" y="167" type="qcurve" smooth="yes"/>
      <point x="477" y="202"/>
      <point x="454" y="251"/>
      <point x="406" y="288"/>
      <point x="333" y="318"/>
      <point x="282" y="333" type="qcurve" smooth="yes"/>
      <point x="264" y="338"/>
      <point x="239" y="346"/>
      <point x="223" y="355"/>
      <point x="215" y="367"/>
      <point x="215" y="374" type="qcurve" smooth="yes"/>
      <point x="215" y="381"/>
      <point x="221" y="392"/>
      <point x="231" y="399"/>
      <point x="247" y="402"/>
      <point x="257" y="402" type="qcurve" smooth="yes"/>
      <point x="284" y="402"/>
      <point x="352" y="376"/>
      <point x="403" y="345" type="qcurve"/>
      <point x="475" y="461" type="line"/>
      <point x="424" y="504"/>
      <point x="318" y="537"/>
      <point x="265" y="537" type="qcurve" smooth="yes"/>
      <point x="212" y="537"/>
      <point x="128" y="510"/>
      <point x="70" y="460"/>
      <point x="39" y="393"/>
      <point x="39" y="352" type="qcurve" smooth="yes"/>
      <point x="39" y="317"/>
      <point x="62" y="270"/>
      <point x="108" y="236"/>
      <point x="178" y="208"/>
      <point x="225" y="191" type="qcurve" smooth="yes"/>
      <point x="243" y="185"/>
      <point x="269" y="176"/>
      <point x="286" y="167"/>
      <point x="294" y="157"/>
      <point x="294" y="151" type="qcurve" smooth="yes"/>
      <point x="294" y="138"/>
      <point x="274" y="127"/>
      <point x="253" y="127" type="qcurve" smooth="yes"/>
      <point x="215" y="127"/>
      <point x="125" y="163"/>
      <point x="76" y="195" type="qcurve"/>
      <point x="11" y="78" type="line"/>
      <point x="57" y="35"/>
      <point x="190" y="-10"/>
    </contour>
  </outline>
</glyph>
<glyph name="t" format="2">
  <advance width="423"/>
  <unicode hex="0074"/>
  <outline>
    <contour>
      <point x="383" y="179" type="line"/>
      <point x="374" y="175"/>
      <point x="356" y="169"/>
      <point x="338" y="165"/>
      <point x="322" y="162"/>
      <point x="315" y="162" type="qcurve" smooth="yes"/>
      <point x="296" y="162"/>
      <point x="274" y="183"/>
      <point x="274" y="209" type="qcurve" smooth="yes"/>
      <point x="274" y="383" type="line"/>
      <point x="377" y="383" type="line"/>
      <point x="377" y="526" type="line"/>
      <point x="274" y="526" type="line"/>
      <point x="274" y="691" type="line"/>
      <point x="84" y="691" type="line"/>
      <point x="84" y="526" type="line"/>
      <point x="19" y="526" type="line"/>
      <point x="19" y="383" type="line"/>
      <point x="84" y="383" type="line"/>
      <point x="84" y="142" type="line" smooth="yes"/>
      <point x="84" y="99"/>
      <point x="109" y="41"/>
      <point x="152" y="5"/>
      <point x="210" y="-11"/>
      <point x="242" y="-11" type="qcurve" smooth="yes"/>
      <point x="264" y="-11"/>
      <point x="309" y="-5"/>
      <point x="354" y="6"/>
      <point x="397" y="20"/>
      <point x="417" y="29" type="qcurve"/>
    </contour>
  </outline>
</glyph>
<glyph name="u" format="2">
  <advance width="620"/>
  <unicode hex="0075"/>
  <outline>
    <contour>
      <point x="572" y="0" type="line"/>
      <point x="572" y="526" type="line"/>
      <point x="382" y="526" type="line"/>
      <point x="382" y="204" type="line"/>
      <point x="370" y="187"/>
      <point x="347" y="166"/>
      <point x="325" y="154"/>
      <point x="304" y="150"/>
      <point x="295" y="150" type="qcurve" smooth="yes"/>
      <point x="279" y="150"/>
      <point x="256" y="160"/>
      <point x="241" y="179"/>
      <point x="233" y="206"/>
      <point x="233" y="223" type="qcurve" smooth="yes"/>
      <point x="233" y="526" type="line"/>
      <point x="43" y="526" type="line"/>
      <point x="43" y="180" type="line" smooth="yes"/>
      <point x="43" y="132"/>
      <point x="65" y="60"/>
      <point x="108" y="13"/>
      <point x="174" y="-10"/>
      <point x="218" y="-10" type="qcurve" smooth="yes"/>
      <point x="244" y="-10"/>
      <point x="294" y="-2"/>
      <point x="339" y="17"/>
      <point x="377" y="48"/>
      <point x="390" y="70" type="qcurve"/>
      <point x="390" y="0" type="line"/>
    </contour>
  </outline>
</glyph>
<glyph name="braceleft" format="2">
  <advance width="374"/>
  <unicode hex="007B"/>
  <outline>
    <contour>
      <point x="320" y="590" type="line"/>
      <point x="320" y="740" type="line"/>
      <point x="118" y="740" type="line" smooth="yes"/>
      <point x="112" y="740"/>
      <point x="95" y="728"/>
      <point x="95" y="710" type="qcurve" smooth="yes"/>
      <point x="95" y="501" type="line" smooth="yes"/>
      <point x="95" y="487"/>
      <point x="84" y="460"/>
      <point x="67" y="439"/>
      <point x="46" y="426"/>
      <point x="35" y="426" type="qcurve"/>
      <point x="35" y="296" type="line"/>
      <point x="56" y="291"/>
      <point x="95" y="251"/>
      <point x="95" y="219" type="qcurve" smooth="yes"/>
      <point x="95" y="-1" type="line" smooth="yes"/>
      <point x="95" y="-20"/>
      <point x="112" y="-31"/>
      <point x="118" y="-31" type="qcurve" smooth="yes"/>
      <point x="320" y="-31" type="line"/>
      <point x="320" y="119" type="line"/>
      <point x="265" y="119" type="line"/>
      <point x="265" y="284" type="line" smooth="yes"/>
      <point x="265" y="311"/>
      <point x="239" y="346"/>
      <point x="224" y="360" type="qcurve"/>
      <point x="240" y="374"/>
      <point x="265" y="408"/>
      <point x="265" y="436" type="qcurve" smooth="yes"/>
      <point x="265" y="590" type="line"/>
    </contour>
  </outline>
</glyph>
<glyph name="exclamdown" format="2">
  <advance width="362"/>
  <unicode hex="00A1"/>
  <outline>
    <contour>
      <point x="294" y="416" type="qcurve" smooth="yes"/>
      <point x="294" y="439"/>
      <point x="276" y="480"/>
      <point x="245" y="511"/>
      <point x="204" y="529"/>
      <point x="181" y="529" type="qcurve" smooth="yes"/>
      <point x="158" y="529"/>
      <point x="117" y="511"/>
      <point x="86" y="480"/>
      <point x="68" y="439"/>
      <point x="68" y="416" type="qcurve" smooth="yes"/>
      <point x="68" y="393"/>
      <point x="86" y="352"/>
      <point x="117" y="321"/>
      <point x="158" y="303"/>
      <point x="181" y="303" type="qcurve" smooth="yes"/>
      <point x="204" y="303"/>
      <point x="245" y="321"/>
      <point x="276" y="352"/>
      <point x="294" y="393"/>
    </contour>
    <contour>
      <point x="126" y="219" type="line"/>
      <point x="86" y="-31" type="line"/>
      <point x="86" y="-198" type="line"/>
      <point x="276" y="-198" type="line"/>
      <point x="276" y="-31" type="line"/>
      <point x="236" y="219" type="line"/>
    </contour>
  </outline>
</glyph>
<glyph name="cent" format="2">
  <advance width="618"/>
  <unicode hex="00A2"/>
  <outline>
    <contour>
      <point x="356" y="-120" type="line"/>
      <point x="356" y="-10" type="line"/>
      <point x="380" y="-10"/>
      <point x="445" y="8"/>
      <point x="509" y="43"/>
      <point x="566" y="97"/>
      <point x="583" y="133" type="qcurve"/>
      <point x="398" y="189" type="line"/>
      <point x="395" y="184"/>
      <point x="387" y="175"/>
      <point x="377" y="166"/>
      <point x="364" y="158"/>
      <point x="356" y="155" type="qcurve"/>
      <point x="356" y="370" type="line"/>
      <point x="367" y="368"/>
      <point x="391" y="349"/>
      <point x="398" y="337" type="qcurve"/>
      <point x="583" y="393" type="line"/>
      <point x="546" y="463"/>
      <point x="422" y="532"/>
      <point x="356" y="534" type="qcurve"/>
      <point x="356" y="645" type="line"/>
      <point x="276" y="645" type="line"/>
      <point x="276" y="534" type="line"/>
      <point x="216" y="523"/>
      <point x="126" y="472"/>
      <point x="66" y="399"/>
      <point x="36" y="309"/>
      <point x="36" y="258" type="qcurve" smooth="yes"/>
      <point x="36" y="210"/>
      <point x="72" y="118"/>
      <point x="135" y="44"/>
      <point x="224" y="-5"/>
      <point x="276" y="-9" type="qcurve"/>
      <point x="276" y="-120" type="line"/>
    </contour>
    <contour>
      <point x="232" y="258" type="qcurve" smooth="yes"/>
      <point x="232" y="276"/>
      <point x="238" y="309"/>
      <point x="250" y="336"/>
      <point x="266" y="355"/>
      <point x="276" y="361" type="qcurve"/>
      <point x="276" y="164" type="line"/>
      <point x="265" y="172"/>
      <point x="248" y="193"/>
      <point x="237" y="217"/>
      <point x="232" y="244"/>
    </contour>
  </outline>
</glyph>
<glyph name="sterling" format="2">
  <advance width="586"/>
  <unicode hex="00A3"/>
  <outline>
    <contour>
      <point x="61" y="248" type="line"/>
      <point x="474" y="248" type="line"/>
      <point x="474" y="388" type="line"/>
      <point x="61" y="388" type="line"/>
    </contour>
    <contour>
      <point x="87" y="-9" type="line"/>
      <point x="138" y="7"/>
      <point x="176" y="13"/>
      <point x="208" y="15" type="curve" smooth="yes"/>
      <point x="265" y="18"/>
      <point x="300" y="4"/>
      <point x="347" y="-6" type="curve" smooth="yes"/>
      <point x="371" y="-11"/>
      <point x="398" y="-15"/>
      <point x="432" y="-15" type="curve" smooth="yes"/>
      <point x="472" y="-15"/>
      <point x="520" y="-1"/>
      <point x="551" y="19" type="curve"/>
      <point x="505" y="159" type="line"/>
      <point x="481" y="150"/>
      <point x="465" y="146"/>
      <point x="442" y="146" type="curve" smooth="yes"/>
      <point x="418" y="146"/>
      <point x="399" y="148"/>
      <point x="381" y="151" type="curve" smooth="yes"/>
      <point x="354" y="155"/>
      <point x="331" y="161"/>
      <point x="303" y="160" type="curve" smooth="yes"/>
      <point x="284" y="159"/>
      <point x="262" y="155"/>
      <point x="234" y="146" type="curve"/>
      <point x="258" y="170"/>
      <point x="275" y="195"/>
      <point x="287" y="220" type="curve" smooth="yes"/>
      <point x="298" y="244"/>
      <point x="303" y="269"/>
      <point x="303" y="297" type="curve" smooth="yes"/>
      <point x="303" y="344"/>
      <point x="288" y="383"/>
      <point x="273" y="418" type="curve" smooth="yes"/>
      <point x="257" y="453"/>
      <point x="242" y="482"/>
      <point x="242" y="510" type="curve" smooth="yes"/>
      <point x="242" y="526"/>
      <point x="248" y="539"/>
      <point x="258" y="548" type="curve" smooth="yes"/>
      <point x="268" y="557"/>
      <point x="283" y="562"/>
      <point x="300" y="562" type="curve" smooth="yes"/>
      <point x="343" y="562"/>
      <point x="400" y="532"/>
      <point x="435" y="493" type="curve"/>
      <point x="531" y="610" type="line"/>
      <point x="474" y="677"/>
      <point x="389" y="715"/>
      <point x="301" y="715" type="curve" smooth="yes"/>
      <point x="237" y="715"/>
      <point x="181" y="694"/>
      <point x="140" y="662" type="curve" smooth="yes"/>
      <point x="99" y="629"/>
      <point x="74" y="583"/>
      <point x="74" y="531" type="curve" smooth="yes"/>
      <point x="74" y="488"/>
      <point x="91" y="448"/>
      <point x="108" y="408" type="curve" smooth="yes"/>
      <point x="124" y="368"/>
      <point x="141" y="329"/>
      <point x="141" y="289" type="curve" smooth="yes"/>
      <point x="141" y="258"/>
      <point x="131" y="224"/>
      <point x="115" y="195" type="curve" smooth="yes"/>
      <point x="98" y="166"/>
      <point x="76" y="141"/>
      <point x="49" y="125" type="curve"/>
    </contour>
  </outline>
</glyph>
<glyph name="currency" format="2">
  <advance width="569"/>
  <unicode hex="00A4"/>
  <outline>
    <contour>
      <point x="114" y="578" type="line"/>
      <point x="43" y="507" type="line"/>
      <point x="108" y="441" type="line"/>
      <point x="94" y="418"/>
      <point x="80" y="366"/>
      <point x="80" y="338" type="qcurve" smooth="yes"/>
      <point x="80" y="309"/>
      <point x="95" y="256"/>
      <point x="109" y="233" type="qcurve"/>
      <point x="43" y="167" type="line"/>
      <point x="109" y="101" type="line"/>
      <point x="181" y="169" type="line"/>
      <point x="203" y="158"/>
      <point x="255" y="147"/>
      <point x="286" y="147" type="qcurve" smooth="yes"/>
      <point x="316" y="147"/>
      <point x="367" y="157"/>
      <point x="388" y="168" type="qcurve"/>
      <point x="459" y="101" type="line"/>
      <point x="525" y="167" type="line"/>
      <point x="461" y="231" type="line"/>
      <point x="476" y="254"/>
      <point x="492" y="309"/>
      <point x="492" y="338" type="qcurve" smooth="yes"/>
      <point x="492" y="367"/>
      <point x="476" y="421"/>
      <point x="462" y="444" type="qcurve"/>
      <point x="525" y="507" type="line"/>
      <point x="454" y="578" type="line"/>
      <point x="386" y="509" type="line"/>
      <point x="365" y="518"/>
      <point x="315" y="529"/>
      <point x="286" y="529" type="qcurve" smooth="yes"/>
      <point x="256" y="529"/>
      <point x="205" y="518"/>
      <point x="183" y="507" type="qcurve"/>
    </contour>
    <contour>
      <point x="213" y="338" type="qcurve" smooth="yes"/>
      <point x="213" y="356"/>
      <point x="224" y="386"/>
      <point x="243" y="406"/>
      <point x="270" y="417"/>
      <point x="286" y="417" type="qcurve" smooth="yes"/>
      <point x="302" y="417"/>
      <point x="329" y="406"/>
      <point x="348" y="386"/>
      <point x="359" y="356"/>
      <point x="359" y="338" type="qcurve" smooth="yes"/>
      <point x="359" y="320"/>
      <point x="348" y="290"/>
      <point x="329" y="270"/>
      <point x="302" y="259"/>
      <point x="286" y="259" type="qcurve" smooth="yes"/>
      <point x="270" y="259"/>
      <point x="243" y="270"/>
      <point x="224" y="290"/>
      <point x="213" y="320"/>
    </contour>
  </outline>
</glyph>
<glyph name="copyright" format="2">
  <advance width="847"/>
  <unicode hex="00A9"/>
  <outline>
    <contour>
      <point x="419" y="-7" type="qcurve" smooth="yes"/>
      <point x="503" y="-7"/>
      <point x="647" y="48"/>
      <point x="751" y="145"/>
      <point x="810" y="277"/>
      <point x="810" y="355" type="qcurve" smooth="yes"/>
      <point x="810" y="432"/>
      <point x="751" y="564"/>
      <point x="647" y="660"/>
      <point x="503" y="715"/>
      <point x="419" y="715" type="qcurve" smooth="yes"/>
      <point x="337" y="715"/>
      <point x="197" y="660"/>
      <point x="95" y="564"/>
      <point x="38" y="432"/>
      <point x="38" y="355" type="qcurve" smooth="yes"/>
      <point x="38" y="277"/>
      <point x="95" y="145"/>
      <point x="197" y="48"/>
      <point x="337" y="-7"/>
    </contour>
    <contour>
      <point x="419" y="57" type="qcurve" smooth="yes"/>
      <point x="352" y="57"/>
      <point x="238" y="103"/>
      <point x="155" y="184"/>
      <point x="108" y="293"/>
      <point x="108" y="355" type="qcurve" smooth="yes"/>
      <point x="108" y="417"/>
      <point x="155" y="524"/>
      <point x="239" y="605"/>
      <point x="353" y="651"/>
      <point x="419" y="651" type="qcurve" smooth="yes"/>
      <point x="488" y="651"/>
      <point x="606" y="605"/>
      <point x="691" y="524"/>
      <point x="740" y="417"/>
      <point x="740" y="355" type="qcurve" smooth="yes"/>
      <point x="740" y="289"/>
      <point x="690" y="179"/>
      <point x="604" y="101"/>
      <point x="487" y="57"/>
    </contour>
    <contour>
      <point x="429" y="120" type="qcurve" smooth="yes"/>
      <point x="473" y="120"/>
      <point x="547" y="140"/>
      <point x="607" y="177"/>
      <point x="651" y="228"/>
      <point x="666" y="258" type="qcurve"/>
      <point x="488" y="312" type="line"/>
      <point x="483" y="303"/>
      <point x="470" y="289"/>
      <point x="455" y="279"/>
      <point x="438" y="274"/>
      <point x="428" y="274" type="qcurve" smooth="yes"/>
      <point x="413" y="274"/>
      <point x="388" y="285"/>
      <point x="368" y="305"/>
      <point x="357" y="335"/>
      <point x="357" y="354" type="qcurve" smooth="yes"/>
      <point x="357" y="373"/>
      <point x="368" y="403"/>
      <point x="388" y="423"/>
      <point x="413" y="434"/>
      <point x="428" y="434" type="qcurve" smooth="yes"/>
      <point x="438" y="434"/>
      <point x="455" y="429"/>
      <point x="470" y="419"/>
      <point x="483" y="405"/>
      <point x="488" y="396" type="qcurve"/>
      <point x="666" y="450" type="line"/>
      <point x="637" y="511"/>
      <point x="517" y="588"/>
      <point x="429" y="588" type="qcurve" smooth="yes"/>
      <point x="366" y="588"/>
      <point x="269" y="550"/>
      <point x="204" y="485"/>
      <point x="170" y="401"/>
      <point x="170" y="354" type="qcurve" smooth="yes"/>
      <point x="170" y="308"/>
      <point x="204" y="223"/>
      <point x="269" y="158"/>
      <point x="366" y="120"/>
    </contour>
  </outline>
</glyph>
<glyph name="ordfeminine" format="2">
  <advance width="451"/>
  <unicode hex="00AA"/>
  <outline>
    <contour>
      <point x="155" y="333" type="qcurve" smooth="yes"/>
      <point x="189" y="333"/>
      <point x="249" y="366"/>
      <point x="272" y="398" type="qcurve"/>
      <point x="272" y="343" type="line"/>
      <point x="381" y="343" type="line"/>
      <point x="381" y="558" type="line" smooth="yes"/>
      <point x="381" y="636"/>
      <point x="291" y="715"/>
      <point x="206" y="715" type="qcurve" smooth="yes"/>
      <point x="161" y="715"/>
      <point x="83" y="692"/>
      <point x="48" y="668" type="qcurve"/>
      <point x="86" y="586" type="line"/>
      <point x="114" y="606"/>
      <point x="164" y="626"/>
      <point x="193" y="626" type="qcurve" smooth="yes"/>
      <point x="225" y="626"/>
      <point x="251" y="600"/>
      <point x="251" y="574" type="qcurve" smooth="yes"/>
      <point x="251" y="563" type="line"/>
      <point x="238" y="570"/>
      <point x="203" y="577"/>
      <point x="183" y="577" type="qcurve" smooth="yes"/>
      <point x="117" y="577"/>
      <point x="33" y="507"/>
      <point x="33" y="451" type="qcurve" smooth="yes"/>
      <point x="33" y="426"/>
      <point x="51" y="382"/>
      <point x="84" y="351"/>
      <point x="129" y="333"/>
    </contour>
    <contour>
      <point x="194" y="428" type="qcurve" smooth="yes"/>
      <point x="177" y="428"/>
      <point x="155" y="448"/>
      <point x="155" y="463" type="qcurve" smooth="yes"/>
      <point x="155" y="481"/>
      <point x="184" y="505"/>
      <point x="206" y="505" type="qcurve" smooth="yes"/>
      <point x="216" y="505"/>
      <point x="241" y="500"/>
      <point x="251" y="495" type="qcurve"/>
      <point x="251" y="468" type="line" smooth="yes"/>
      <point x="251" y="461"/>
      <point x="243" y="447"/>
      <point x="235" y="442" type="qcurve"/>
      <point x="227" y="436"/>
      <point x="204" y="428"/>
    </contour>
  </outline>
</glyph>
<glyph name="registered" format="2">
  <advance width="847"/>
  <unicode hex="00AE"/>
  <outline>
    <contour>
      <point x="421" y="-7" type="qcurve" smooth="yes"/>
      <point x="504" y="-7"/>
      <point x="647" y="48"/>
      <point x="751" y="145"/>
      <point x="810" y="277"/>
      <point x="810" y="355" type="qcurve" smooth="yes"/>
      <point x="810" y="432"/>
      <point x="751" y="564"/>
      <point x="647" y="660"/>
      <point x="504" y="715"/>
      <point x="421" y="715" type="qcurve" smooth="yes"/>
      <point x="338" y="715"/>
      <point x="197" y="660"/>
      <point x="95" y="564"/>
      <point x="38" y="432"/>
      <point x="38" y="355" type="qcurve" smooth="yes"/>
      <point x="38" y="277"/>
      <point x="95" y="145"/>
      <point x="197" y="48"/>
      <point x="338" y="-7"/>
    </contour>
    <contour>
      <point x="422" y="56" type="qcurve" smooth="yes"/>
      <point x="354" y="56"/>
      <point x="240" y="103"/>
      <point x="158" y="184"/>
      <point x="112" y="292"/>
      <point x="112" y="354" type="qcurve" smooth="yes"/>
      <point x="112" y="416"/>
      <point x="158" y="524"/>
      <point x="240" y="605"/>
      <point x="354" y="651"/>
      <point x="422" y="651" type="qcurve" smooth="yes"/>
      <point x="490" y="651"/>
      <point x="605" y="605"/>
      <point x="689" y="524"/>
      <point x="736" y="415"/>
      <point x="736" y="352" type="qcurve" smooth="yes"/>
      <point x="736" y="288"/>
      <point x="688" y="180"/>
      <point x="603" y="101"/>
      <point x="488" y="56"/>
    </contour>
    <contour>
      <point x="251" y="144" type="line"/>
      <point x="383" y="144" type="line"/>
      <point x="383" y="275" type="line"/>
      <point x="401" y="275" type="line"/>
      <point x="482" y="144" type="line"/>
      <point x="629" y="144" type="line"/>
      <point x="533" y="301" type="line"/>
      <point x="547" y="311"/>
      <point x="570" y="338"/>
      <point x="586" y="370"/>
      <point x="595" y="404"/>
      <point x="595" y="422" type="qcurve" smooth="yes"/>
      <point x="595" y="449"/>
      <point x="573" y="503"/>
      <point x="535" y="546"/>
      <point x="482" y="572"/>
      <point x="450" y="572" type="qcurve" smooth="yes"/>
      <point x="251" y="572" type="line"/>
    </contour>
    <contour>
      <point x="383" y="381" type="line"/>
      <point x="383" y="463" type="line"/>
      <point x="434" y="463" type="line" smooth="yes"/>
      <point x="439" y="463"/>
      <point x="450" y="460"/>
      <point x="459" y="452"/>
      <point x="465" y="436"/>
      <point x="465" y="422" type="qcurve" smooth="yes"/>
      <point x="465" y="410"/>
      <point x="460" y="394"/>
      <point x="452" y="385"/>
      <point x="442" y="381"/>
      <point x="436" y="381" type="qcurve" smooth="yes"/>
    </contour>
  </outline>
</glyph>
<glyph name="degree" format="2">
  <advance width="300"/>
  <unicode hex="00B0"/>
  <outline>
    <contour>
      <point x="31" y="610" type="qcurve" smooth="yes"/>
      <point x="31" y="555"/>
      <point x="97" y="486"/>
      <point x="150" y="486" type="qcurve" smooth="yes"/>
      <point x="203" y="486"/>
      <point x="269" y="553"/>
      <point x="269" y="610" type="qcurve" smooth="yes"/>
      <point x="269" y="659"/>
      <point x="203" y="724"/>
      <point x="150" y="724" type="qcurve" smooth="yes"/>
      <point x="97" y="724"/>
      <point x="31" y="659"/>
    </contour>
    <contour>
      <point x="127" y="627" type="qcurve" smooth="yes"/>
      <point x="132" y="632"/>
      <point x="143" y="636"/>
      <point x="150" y="636" type="qcurve" smooth="yes"/>
      <point x="156" y="636"/>
      <point x="168" y="632"/>
      <point x="172" y="627" type="qcurve"/>
      <point x="177" y="623"/>
      <point x="181" y="612"/>
      <point x="181" y="605" type="qcurve" smooth="yes"/>
      <point x="181" y="600"/>
      <point x="177" y="587"/>
      <point x="172" y="583" type="qcurve"/>
      <point x="168" y="578"/>
      <point x="156" y="573"/>
      <point x="150" y="573" type="qcurve" smooth="yes"/>
      <point x="143" y="573"/>
      <point x="132" y="578"/>
      <point x="127" y="583" type="qcurve" smooth="yes"/>
      <point x="123" y="587"/>
      <point x="118" y="599"/>
      <point x="118" y="605" type="qcurve" smooth="yes"/>
      <point x="118" y="612"/>
      <point x="123" y="623"/>
    </contour>
  </outline>
</glyph>
<glyph name="twosuperior" format="2">
  <advance width="441"/>
  <unicode hex="00B2"/>
  <outline>
    <contour>
      <point x="413" y="376" type="line"/>
      <point x="413" y="483" type="line"/>
      <point x="207" y="483" type="line"/>
      <point x="207" y="494"/>
      <point x="219" y="509"/>
      <point x="241" y="521"/>
      <point x="270" y="530"/>
      <point x="287" y="535" type="qcurve" smooth="yes"/>
      <point x="305" y="540"/>
      <point x="348" y="561"/>
      <point x="386" y="596"/>
      <point x="412" y="647"/>
      <point x="412" y="683" type="qcurve" smooth="yes"/>
      <point x="412" y="716"/>
      <point x="388" y="767"/>
      <point x="342" y="802"/>
      <point x="273" y="821"/>
      <point x="229" y="821" type="qcurve" smooth="yes"/>
      <point x="195" y="821"/>
      <point x="132" y="810"/>
      <point x="79" y="792"/>
      <point x="39" y="766"/>
      <point x="28" y="751" type="qcurve"/>
      <point x="96" y="671" type="line"/>
      <point x="106" y="681"/>
      <point x="131" y="700"/>
      <point x="162" y="715"/>
      <point x="197" y="724"/>
      <point x="217" y="724" type="qcurve" smooth="yes"/>
      <point x="249" y="724"/>
      <point x="292" y="698"/>
      <point x="292" y="674" type="qcurve" smooth="yes"/>
      <point x="292" y="656"/>
      <point x="267" y="629"/>
      <point x="228" y="607"/>
      <point x="181" y="588"/>
      <point x="159" y="578" type="qcurve" smooth="yes"/>
      <point x="119" y="559"/>
      <point x="67" y="521"/>
      <point x="37" y="475"/>
      <point x="26" y="416"/>
      <point x="26" y="376" type="qcurve"/>
    </contour>
  </outline>
</glyph>
<glyph name="threesuperior" format="2">
  <advance width="422"/>
  <unicode hex="00B3"/>
  <outline>
    <contour>
      <point x="202" y="369" type="qcurve" smooth="yes"/>
      <point x="239" y="369"/>
      <point x="308" y="383"/>
      <point x="361" y="413"/>
      <point x="393" y="462"/>
      <point x="393" y="497" type="qcurve" smooth="yes"/>
      <point x="393" y="539"/>
      <point x="347" y="604"/>
      <point x="305" y="611" type="qcurve"/>
      <point x="341" y="618"/>
      <point x="383" y="665"/>
      <point x="383" y="700" type="qcurve" smooth="yes"/>
      <point x="383" y="726"/>
      <point x="358" y="771"/>
      <point x="312" y="803"/>
      <point x="247" y="821"/>
      <point x="207" y="821" type="qcurve" smooth="yes"/>
      <point x="182" y="821"/>
      <point x="128" y="814"/>
      <point x="77" y="800"/>
      <point x="34" y="779"/>
      <point x="21" y="765" type="qcurve"/>
      <point x="85" y="683" type="line"/>
      <point x="103" y="699"/>
      <point x="157" y="725"/>
      <point x="196" y="725" type="qcurve" smooth="yes"/>
      <point x="205" y="725"/>
      <point x="227" y="722"/>
      <point x="245" y="715"/>
      <point x="257" y="701"/>
      <point x="257" y="689" type="qcurve" smooth="yes"/>
      <point x="257" y="670"/>
      <point x="217" y="653"/>
      <point x="163" y="653" type="qcurve" smooth="yes"/>
      <point x="139" y="653" type="line"/>
      <point x="139" y="557" type="line"/>
      <point x="164" y="557" type="line" smooth="yes"/>
      <point x="227" y="557"/>
      <point x="272" y="538"/>
      <point x="272" y="517" type="qcurve" smooth="yes"/>
      <point x="272" y="491"/>
      <point x="226" y="474"/>
      <point x="195" y="474" type="qcurve" smooth="yes"/>
      <point x="175" y="474"/>
      <point x="142" y="479"/>
      <point x="113" y="490"/>
      <point x="89" y="505"/>
      <point x="78" y="514" type="qcurve"/>
      <point x="23" y="440" type="line"/>
      <point x="43" y="403"/>
      <point x="142" y="369"/>
    </contour>
  </outline>
</glyph>
<glyph name="micro" format="2">
  <advance width="708"/>
  <unicode hex="00B5"/>
  <outline>
    <contour>
      <point x="75" y="-213" type="line"/>
      <point x="265" y="-213" type="line"/>
      <point x="253" y="26" type="line"/>
      <point x="253" y="25"/>
      <point x="260" y="14"/>
      <point x="275" y="1"/>
      <point x="299" y="-10"/>
      <point x="315" y="-10" type="qcurve" smooth="yes"/>
      <point x="337" y="-10"/>
      <point x="379" y="11"/>
      <point x="415" y="40"/>
      <point x="440" y="71"/>
      <point x="444" y="82" type="qcurve"/>
      <point x="458" y="0" type="line"/>
      <point x="604" y="0" type="line"/>
      <point x="604" y="526" type="line"/>
      <point x="414" y="526" type="line"/>
      <point x="414" y="204" type="line"/>
      <point x="402" y="187"/>
      <point x="379" y="166"/>
      <point x="357" y="154"/>
      <point x="336" y="150"/>
      <point x="327" y="150" type="qcurve" smooth="yes"/>
      <point x="295" y="150"/>
      <point x="265" y="188"/>
      <point x="265" y="223" type="qcurve" smooth="yes"/>
      <point x="265" y="526" type="line"/>
      <point x="75" y="526" type="line"/>
    </contour>
  </outline>
</glyph>
<glyph name="paragraph" format="2">
  <advance width="705"/>
  <unicode hex="00B6"/>
  <outline>
    <contour>
      <point x="34" y="445" type="qcurve" smooth="yes"/>
      <point x="34" y="388"/>
      <point x="63" y="293"/>
      <point x="117" y="226"/>
      <point x="191" y="188"/>
      <point x="236" y="188" type="qcurve"/>
      <point x="236" y="-80" type="line"/>
      <point x="396" y="-80" type="line"/>
      <point x="396" y="188" type="line"/>
      <point x="427" y="188" type="line"/>
      <point x="427" y="-80" type="line"/>
      <point x="587" y="-80" type="line"/>
      <point x="587" y="570" type="line"/>
      <point x="657" y="570" type="line"/>
      <point x="657" y="710" type="line"/>
      <point x="316" y="710" type="line" smooth="yes"/>
      <point x="181" y="710"/>
      <point x="34" y="573"/>
    </contour>
    <contour>
      <point x="191" y="450" type="qcurve" smooth="yes"/>
      <point x="191" y="499"/>
      <point x="216" y="566"/>
      <point x="236" y="570" type="qcurve"/>
      <point x="236" y="328" type="line"/>
      <point x="226" y="330"/>
      <point x="210" y="350"/>
      <point x="198" y="382"/>
      <point x="191" y="425"/>
    </contour>
    <contour>
      <point x="427" y="328" type="line"/>
      <point x="396" y="328" type="line"/>
      <point x="396" y="570" type="line"/>
      <point x="427" y="570" type="line"/>
    </contour>
  </outline>
</glyph>
<glyph name="ordmasculine" format="2">
  <advance width="438"/>
  <unicode hex="00BA"/>
  <outline>
    <contour>
      <point x="219" y="333" type="qcurve" smooth="yes"/>
      <point x="266" y="333"/>
      <point x="338" y="364"/>
      <point x="386" y="417"/>
      <point x="410" y="486"/>
      <point x="410" y="524" type="qcurve" smooth="yes"/>
      <point x="410" y="562"/>
      <point x="386" y="632"/>
      <point x="338" y="684"/>
      <point x="266" y="715"/>
      <point x="219" y="715" type="qcurve" smooth="yes"/>
      <point x="172" y="715"/>
      <point x="101" y="684"/>
      <point x="53" y="632"/>
      <point x="28" y="562"/>
      <point x="28" y="524" type="qcurve" smooth="yes"/>
      <point x="28" y="486"/>
      <point x="53" y="417"/>
      <point x="101" y="364"/>
      <point x="172" y="333"/>
    </contour>
    <contour>
      <point x="161" y="524" type="qcurve" smooth="yes"/>
      <point x="161" y="542"/>
      <point x="170" y="572"/>
      <point x="185" y="592"/>
      <point x="206" y="603"/>
      <point x="219" y="603" type="qcurve" smooth="yes"/>
      <point x="232" y="603"/>
      <point x="253" y="592"/>
      <point x="268" y="572"/>
      <point x="277" y="542"/>
      <point x="277" y="524" type="qcurve" smooth="yes"/>
      <point x="277" y="506"/>
      <point x="268" y="476"/>
      <point x="253" y="456"/>
      <point x="232" y="445"/>
      <point x="219" y="445" type="qcurve" smooth="yes"/>
      <point x="206" y="445"/>
      <point x="185" y="456"/>
      <point x="170" y="476"/>
      <point x="161" y="506"/>
    </contour>
  </outline>
</glyph>
<glyph name="onehalf" format="2">
  <advance width="1009"/>
  <unicode hex="00BD"/>
  <outline>
    <contour>
      <point x="233" y="395" type="line"/>
      <point x="233" y="731" type="line"/>
      <point x="123" y="731" type="line"/>
      <point x="123" y="730"/>
      <point x="105" y="712"/>
      <point x="78" y="690"/>
      <point x="45" y="672"/>
      <point x="30" y="672" type="qcurve"/>
      <point x="30" y="563" type="line"/>
      <point x="42" y="563"/>
      <point x="70" y="574"/>
      <point x="96" y="591"/>
      <point x="118" y="609"/>
      <point x="123" y="616" type="qcurve"/>
      <point x="123" y="395" type="line"/>
      <point x="47" y="395" type="line"/>
      <point x="47" y="288" type="line"/>
      <point x="300" y="288" type="line"/>
      <point x="300" y="395" type="line"/>
    </contour>
    <contour>
      <point x="215" y="-10" type="line"/>
      <point x="478" y="337" type="line"/>
      <point x="749" y="646" type="line"/>
      <point x="666" y="721" type="line"/>
      <point x="415" y="384" type="line"/>
      <point x="132" y="65" type="line"/>
    </contour>
    <contour>
      <point x="974" y="0" type="line"/>
      <point x="974" y="107" type="line"/>
      <point x="768" y="107" type="line"/>
      <point x="768" y="118"/>
      <point x="780" y="133"/>
      <point x="802" y="145"/>
      <point x="831" y="154"/>
      <point x="848" y="159" type="qcurve" smooth="yes"/>
      <point x="866" y="164"/>
      <point x="909" y="185"/>
      <point x="947" y="220"/>
      <point x="973" y="271"/>
      <point x="973" y="307" type="qcurve" smooth="yes"/>
      <point x="973" y="340"/>
      <point x="949" y="391"/>
      <point x="903" y="426"/>
      <point x="834" y="445"/>
      <point x="790" y="445" type="qcurve" smooth="yes"/>
      <point x="756" y="445"/>
      <point x="693" y="434"/>
      <point x="640" y="416"/>
      <point x="600" y="390"/>
      <point x="589" y="375" type="qcurve"/>
      <point x="657" y="295" type="line"/>
      <point x="667" y="305"/>
      <point x="692" y="324"/>
      <point x="723" y="339"/>
      <point x="758" y="348"/>
      <point x="778" y="348" type="qcurve" smooth="yes"/>
      <point x="810" y="348"/>
      <point x="853" y="322"/>
      <point x="853" y="298" type="qcurve" smooth="yes"/>
      <point x="853" y="280"/>
      <point x="828" y="253"/>
      <point x="789" y="231"/>
      <point x="742" y="212"/>
      <point x="720" y="202" type="qcurve" smooth="yes"/>
      <point x="680" y="183"/>
      <point x="628" y="145"/>
      <point x="598" y="99"/>
      <point x="587" y="40"/>
      <point x="587" y="0" type="qcurve"/>
    </contour>
  </outline>
</glyph>
<glyph name="questiondown" format="2">
  <advance width="495"/>
  <unicode hex="00BF"/>
  <outline>
    <contour>
      <point x="305" y="263" type="line"/>
      <point x="297" y="256"/>
      <point x="292" y="250"/>
      <point x="280" y="244" type="curve" smooth="yes"/>
      <point x="216" y="211"/>
      <point x="33" y="177"/>
      <point x="33" y="7" type="curve" smooth="yes"/>
      <point x="33" y="-123"/>
      <point x="126" y="-197"/>
      <point x="251" y="-197" type="curve" smooth="yes"/>
      <point x="341" y="-197"/>
      <point x="424" y="-152"/>
      <point x="461" y="-68" type="curve"/>
      <point x="340" y="18" type="line"/>
      <point x="315" y="-12"/>
      <point x="304" y="-44"/>
      <point x="258" y="-44" type="curve" smooth="yes"/>
      <point x="229" y="-44"/>
      <point x="198" y="-26"/>
      <point x="198" y="6" type="curve" smooth="yes"/>
      <point x="198" y="82"/>
      <point x="390" y="123"/>
      <point x="391" y="200" type="curve" smooth="yes"/>
      <point x="391" y="231"/>
      <point x="365" y="250"/>
      <point x="340" y="263" type="curve"/>
    </contour>
    <contour>
      <point x="412" y="438" type="curve" smooth="yes"/>
      <point x="412" y="490"/>
      <point x="370" y="532"/>
      <point x="318" y="532" type="curve" smooth="yes"/>
      <point x="266" y="532"/>
      <point x="224" y="490"/>
      <point x="224" y="438" type="curve" smooth="yes"/>
      <point x="224" y="386"/>
      <point x="266" y="344"/>
      <point x="318" y="344" type="curve" smooth="yes"/>
      <point x="370" y="344"/>
      <point x="412" y="386"/>
    </contour>
  </outline>
</glyph>
<glyph name="Idieresis" format="2">
  <advance width="317"/>
  <unicode hex="00CF"/>
  <outline>
    <contour>
      <point x="256" y="0" type="line"/>
      <point x="256" y="710" type="line"/>
      <point x="61" y="710" type="line"/>
      <point x="61" y="0" type="line"/>
    </contour>
    <contour>
      <point x="12" y="835" type="qcurve" smooth="yes"/>
      <point x="12" y="796"/>
      <point x="50" y="741"/>
      <point x="78" y="741" type="qcurve" smooth="yes"/>
      <point x="105" y="741"/>
      <point x="143" y="796"/>
      <point x="143" y="835" type="qcurve" smooth="yes"/>
      <point x="143" y="874"/>
      <point x="105" y="929"/>
      <point x="78" y="929" type="qcurve" smooth="yes"/>
      <point x="51" y="929"/>
      <point x="12" y="874"/>
    </contour>
    <contour>
      <point x="174" y="835" type="qcurve" smooth="yes"/>
      <point x="174" y="796"/>
      <point x="212" y="741"/>
      <point x="239" y="741" type="qcurve" smooth="yes"/>
      <point x="267" y="741"/>
      <point x="305" y="796"/>
      <point x="305" y="835" type="qcurve" smooth="yes"/>
      <point x="305" y="874"/>
      <point x="267" y="929"/>
      <point x="239" y="929" type="qcurve" smooth="yes"/>
      <point x="212" y="929"/>
      <point x="174" y="874"/>
    </contour>
  </outline>
</glyph>
<glyph name="Thorn" format="2">
  <advance width="605"/>
  <unicode hex="00DE"/>
  <outline>
    <contour>
      <point x="352" y="592" type="qcurve" smooth="yes"/>
      <point x="256" y="592" type="line"/>
      <point x="256" y="710" type="line"/>
      <point x="61" y="710" type="line"/>
      <point x="61" y="0" type="line"/>
      <point x="256" y="0" type="line"/>
      <point x="256" y="101" type="line"/>
      <point x="357" y="101" type="line" smooth="yes"/>
      <point x="410" y="101"/>
      <point x="496" y="142"/>
      <point x="557" y="211"/>
      <point x="591" y="299"/>
      <point x="591" y="347" type="qcurve" smooth="yes"/>
      <point x="591" y="392"/>
      <point x="555" y="480"/>
      <point x="492" y="549"/>
      <point x="404" y="592"/>
    </contour>
    <contour>
      <point x="347" y="271" type="qcurve" smooth="yes"/>
      <point x="256" y="271" type="line"/>
      <point x="256" y="422" type="line"/>
      <point x="342" y="422" type="line" smooth="yes"/>
      <point x="351" y="422"/>
      <point x="371" y="412"/>
      <point x="386" y="393"/>
      <point x="396" y="365"/>
      <point x="396" y="347" type="qcurve" smooth="yes"/>
      <point x="396" y="329"/>
      <point x="388" y="301"/>
      <point x="374" y="282"/>
      <point x="356" y="271"/>
    </contour>
  </outline>
</glyph>
<glyph name="ae" format="2">
  <advance width="942"/>
  <unicode hex="00E6"/>
  <outline>
    <contour>
      <point x="203" y="-10" type="qcurve" smooth="yes"/>
      <point x="228" y="-10"/>
      <point x="284" y="2"/>
      <point x="338" y="26"/>
      <point x="388" y="65"/>
      <point x="407" y="92" type="qcurve"/>
      <point x="443" y="46"/>
      <point x="560" y="-10"/>
      <point x="640" y="-10" type="qcurve" smooth="yes"/>
      <point x="688" y="-10"/>
      <point x="770" y="11"/>
      <point x="836" y="49"/>
      <point x="886" y="102"/>
      <point x="902" y="133" type="qcurve"/>
      <point x="741" y="179" type="line"/>
      <point x="737" y="167"/>
      <point x="717" y="147"/>
      <point x="692" y="133"/>
      <point x="661" y="126"/>
      <point x="646" y="126" type="qcurve" smooth="yes"/>
      <point x="630" y="126"/>
      <point x="598" y="135"/>
      <point x="572" y="154"/>
      <point x="556" y="184"/>
      <point x="554" y="205" type="qcurve"/>
      <point x="923" y="205" type="line"/>
      <point x="925" y="217"/>
      <point x="928" y="248"/>
      <point x="928" y="263" type="qcurve" smooth="yes"/>
      <point x="928" y="317"/>
      <point x="891" y="416"/>
      <point x="818" y="491"/>
      <point x="711" y="536"/>
      <point x="640" y="536" type="qcurve" smooth="yes"/>
      <point x="586" y="536"/>
      <point x="499" y="509"/>
      <point x="465" y="486" type="qcurve"/>
      <point x="431" y="511"/>
      <point x="339" y="536"/>
      <point x="280" y="536" type="qcurve" smooth="yes"/>
      <point x="212" y="536"/>
      <point x="96" y="503"/>
      <point x="43" y="469" type="qcurve"/>
      <point x="98" y="351" type="line"/>
      <point x="140" y="379"/>
      <point x="216" y="408"/>
      <point x="261" y="408" type="qcurve" smooth="yes"/>
      <point x="309" y="408"/>
      <point x="351" y="372"/>
      <point x="352" y="335" type="qcurve"/>
      <point x="352" y="331"/>
      <point x="352" y="323"/>
      <point x="352" y="319" type="qcurve"/>
      <point x="332" y="329"/>
      <point x="277" y="339"/>
      <point x="246" y="339" type="qcurve" smooth="yes"/>
      <point x="196" y="339"/>
      <point x="113" y="313"/>
      <point x="53" y="265"/>
      <point x="19" y="199"/>
      <point x="19" y="159" type="qcurve" smooth="yes"/>
      <point x="19" y="123"/>
      <point x="47" y="61"/>
      <point x="96" y="16"/>
      <point x="164" y="-10"/>
    </contour>
    <contour>
      <point x="260" y="126" type="qcurve" smooth="yes"/>
      <point x="247" y="126"/>
      <point x="224" y="133"/>
      <point x="207" y="147"/>
      <point x="198" y="165"/>
      <point x="198" y="176" type="qcurve" smooth="yes"/>
      <point x="198" y="189"/>
      <point x="210" y="211"/>
      <point x="232" y="227"/>
      <point x="262" y="236"/>
      <point x="279" y="236" type="qcurve" smooth="yes"/>
      <point x="295" y="236"/>
      <point x="335" y="228"/>
      <point x="352" y="222" type="qcurve"/>
      <point x="352" y="212"/>
      <point x="352" y="193"/>
      <point x="352" y="183" type="qcurve" smooth="yes"/>
      <point x="352" y="173"/>
      <point x="338" y="154"/>
      <point x="327" y="146" type="qcurve"/>
      <point x="313" y="137"/>
      <point x="277" y="126"/>
    </contour>
    <contour>
      <point x="550" y="319" type="line"/>
      <point x="552" y="338"/>
      <point x="567" y="369"/>
      <point x="589" y="390"/>
      <point x="619" y="401"/>
      <point x="637" y="401" type="qcurve" smooth="yes"/>
      <point x="655" y="401"/>
      <point x="685" y="390"/>
      <point x="708" y="369"/>
      <point x="722" y="338"/>
      <point x="724" y="319" type="qcurve"/>
    </contour>
  </outline>
</glyph>
<glyph name="idieresis" format="2">
  <advance width="286"/>
  <unicode hex="00EF"/>
  <outline>
    <contour>
      <point x="238" y="0" type="line"/>
      <point x="238" y="526" type="line"/>
      <point x="48" y="526" type="line"/>
      <point x="48" y="0" type="line"/>
    </contour>
    <contour>
      <point x="2" y="651" type="qcurve" smooth="yes"/>
      <point x="2" y="612"/>
      <point x="39" y="557"/>
      <point x="65" y="557" type="qcurve" smooth="yes"/>
      <point x="91" y="557"/>
      <point x="128" y="612"/>
      <point x="128" y="651" type="qcurve" smooth="yes"/>
      <point x="128" y="690"/>
      <point x="91" y="745"/>
      <point x="65" y="745" type="qcurve" smooth="yes"/>
      <point x="39" y="745"/>
      <point x="2" y="690"/>
    </contour>
    <contour>
      <point x="157" y="651" type="qcurve" smooth="yes"/>
      <point x="157" y="612"/>
      <point x="194" y="557"/>
      <point x="220" y="557" type="qcurve" smooth="yes"/>
      <point x="246" y="557"/>
      <point x="283" y="612"/>
      <point x="283" y="651" type="qcurve" smooth="yes"/>
      <point x="283" y="690"/>
      <point x="246" y="745"/>
      <point x="220" y="745" type="qcurve" smooth="yes"/>
      <point x="194" y="745"/>
      <point x="157" y="690"/>
    </contour>
  </outline>
</glyph>
<glyph name="eth" format="2">
  <advance width="621"/>
  <unicode hex="00F0"/>
  <outline>
    <contour>
      <point x="598" y="291" type="qcurve" smooth="yes"/>
      <point x="598" y="362"/>
      <point x="559" y="499"/>
      <point x="489" y="616"/>
      <point x="394" y="706"/>
      <point x="338" y="730" type="qcurve"/>
      <point x="108" y="730" type="line"/>
      <point x="171" y="699"/>
      <point x="270" y="631"/>
      <point x="342" y="556"/>
      <point x="390" y="472"/>
      <point x="403" y="425" type="qcurve"/>
      <point x="389" y="436"/>
      <point x="355" y="453"/>
      <point x="319" y="465"/>
      <point x="280" y="471"/>
      <point x="260" y="471" type="qcurve" smooth="yes"/>
      <point x="210" y="471"/>
      <point x="123" y="434"/>
      <point x="59" y="370"/>
      <point x="22" y="284"/>
      <point x="22" y="234" type="qcurve" smooth="yes"/>
      <point x="22" y="180"/>
      <point x="64" y="91"/>
      <point x="141" y="26"/>
      <point x="247" y="-10"/>
      <point x="310" y="-10" type="qcurve" smooth="yes"/>
      <point x="377" y="-10"/>
      <point x="484" y="31"/>
      <point x="558" y="109"/>
      <point x="598" y="221"/>
    </contour>
    <contour>
      <point x="217" y="235" type="qcurve" smooth="yes"/>
      <point x="217" y="254"/>
      <point x="230" y="285"/>
      <point x="255" y="308"/>
      <point x="289" y="320"/>
      <point x="310" y="320" type="qcurve" smooth="yes"/>
      <point x="331" y="320"/>
      <point x="365" y="308"/>
      <point x="390" y="285"/>
      <point x="403" y="254"/>
      <point x="403" y="235" type="qcurve" smooth="yes"/>
      <point x="403" y="216"/>
      <point x="390" y="185"/>
      <point x="365" y="162"/>
      <point x="331" y="150"/>
      <point x="310" y="150" type="qcurve" smooth="yes"/>
      <point x="289" y="150"/>
      <point x="255" y="162"/>
      <point x="230" y="185"/>
      <point x="217" y="216"/>
    </contour>
    <contour>
      <point x="499" y="712" type="line"/>
      <point x="376" y="648" type="line"/>
      <point x="322" y="634" type="line"/>
      <point x="216" y="581" type="line"/>
      <point x="268" y="510" type="line"/>
      <point x="375" y="563" type="line"/>
      <point x="433" y="580" type="line"/>
      <point x="551" y="641" type="line"/>
    </contour>
  </outline>
</glyph>
<glyph name="oslash" format="2">
  <advance width="614"/>
  <unicode hex="00F8"/>
  <outline>
    <contour>
      <point x="307" y="-10" type="qcurve" smooth="yes"/>
      <point x="378" y="-10"/>
      <point x="485" y="35"/>
      <point x="558" y="110"/>
      <point x="595" y="209"/>
      <point x="595" y="263" type="qcurve" smooth="yes"/>
      <point x="595" y="317"/>
      <point x="558" y="416"/>
      <point x="485" y="491"/>
      <point x="378" y="536"/>
      <point x="307" y="536" type="qcurve" smooth="yes"/>
      <point x="237" y="536"/>
      <point x="129" y="491"/>
      <point x="56" y="416"/>
      <point x="19" y="317"/>
      <point x="19" y="263" type="qcurve" smooth="yes"/>
      <point x="19" y="209"/>
      <point x="56" y="110"/>
      <point x="129" y="35"/>
      <point x="237" y="-10"/>
    </contour>
    <contour>
      <point x="307" y="150" type="qcurve" smooth="yes"/>
      <point x="287" y="150"/>
      <point x="253" y="166"/>
      <point x="228" y="195"/>
      <point x="214" y="237"/>
      <point x="214" y="263" type="qcurve" smooth="yes"/>
      <point x="214" y="289"/>
      <point x="228" y="331"/>
      <point x="253" y="360"/>
      <point x="287" y="376"/>
      <point x="307" y="376" type="qcurve" smooth="yes"/>
      <point x="327" y="376"/>
      <point x="361" y="360"/>
      <point x="386" y="331"/>
      <point x="400" y="289"/>
      <point x="400" y="263" type="qcurve" smooth="yes"/>
      <point x="400" y="237"/>
      <point x="386" y="195"/>
      <point x="361" y="166"/>
      <point x="327" y="150"/>
    </contour>
    <contour>
      <point x="114" y="-6" type="line"/>
      <point x="211" y="104" type="line"/>
      <point x="149" y="158" type="line"/>
      <point x="14" y="-6" type="line"/>
    </contour>
    <contour>
      <point x="452" y="381" type="line"/>
      <point x="395" y="418" type="line"/>
      <point x="174" y="169" type="line"/>
      <point x="221" y="121" type="line"/>
    </contour>
    <contour>
      <point x="591" y="532" type="line"/>
      <point x="490" y="532" type="line"/>
      <point x="404" y="435" type="line"/>
      <point x="477" y="393" type="line"/>
    </contour>
  </outline>
</glyph>
<glyph name="thorn" format="2">
  <advance width="599"/>
  <unicode hex="00FE"/>
  <outline>
    <contour>
      <point x="581" y="255" type="qcurve" smooth="yes"/>
      <point x="581" y="307"/>
      <point x="544" y="410"/>
      <point x="475" y="493"/>
      <point x="379" y="544"/>
      <point x="319" y="544" type="qcurve" smooth="yes"/>
      <point x="276" y="544"/>
      <point x="243" y="525"/>
      <point x="243" y="525" type="qcurve"/>
      <point x="243" y="710" type="line"/>
      <point x="48" y="710" type="line"/>
      <point x="48" y="-213" type="line"/>
      <point x="243" y="-213" type="line"/>
      <point x="243" y="-13" type="line"/>
      <point x="243" y="-14"/>
      <point x="251" y="-20"/>
      <point x="267" y="-26"/>
      <point x="293" y="-31"/>
      <point x="312" y="-31" type="qcurve" smooth="yes"/>
      <point x="366" y="-31"/>
      <point x="464" y="16"/>
      <point x="538" y="95"/>
      <point x="581" y="198"/>
    </contour>
    <contour>
      <point x="386" y="259" type="qcurve" smooth="yes"/>
      <point x="386" y="232"/>
      <point x="374" y="188"/>
      <point x="352" y="156"/>
      <point x="323" y="139"/>
      <point x="305" y="139" type="qcurve" smooth="yes"/>
      <point x="292" y="139"/>
      <point x="269" y="148"/>
      <point x="253" y="160"/>
      <point x="243" y="174"/>
      <point x="243" y="179" type="qcurve" smooth="yes"/>
      <point x="243" y="327" type="line"/>
      <point x="249" y="338"/>
      <point x="262" y="355"/>
      <point x="277" y="367"/>
      <point x="295" y="374"/>
      <point x="307" y="374" type="qcurve" smooth="yes"/>
      <point x="327" y="374"/>
      <point x="356" y="356"/>
      <point x="376" y="325"/>
      <point x="386" y="283"/>
    </contour>
  </outline>
</glyph>
<glyph name="Dcroat" format="2">
  <advance width="720"/>
  <unicode hex="0110"/>
  <outline>
    <contour>
      <point x="374" y="287" type="line"/>
      <point x="374" y="427" type="line"/>
      <point x="28" y="427" type="line"/>
      <point x="28" y="287" type="line"/>
    </contour>
    <contour>
      <point x="338" y="0" type="line" smooth="yes"/>
      <point x="419" y="0"/>
      <point x="551" y="51"/>
      <point x="645" y="144"/>
      <point x="696" y="275"/>
      <point x="696" y="356" type="qcurve" smooth="yes"/>
      <point x="696" y="430"/>
      <point x="651" y="559"/>
      <point x="561" y="655"/>
      <point x="427" y="710"/>
      <point x="338" y="710" type="qcurve" smooth="yes"/>
      <point x="65" y="710" type="line"/>
      <point x="65" y="0" type="line"/>
    </contour>
    <contour>
      <point x="498" y="356" type="qcurve" smooth="yes"/>
      <point x="498" y="316"/>
      <point x="477" y="248"/>
      <point x="436" y="198"/>
      <point x="376" y="170"/>
      <point x="338" y="170" type="qcurve" smooth="yes"/>
      <point x="260" y="170" type="line"/>
      <point x="260" y="540" type="line"/>
      <point x="338" y="540" type="line" smooth="yes"/>
      <point x="376" y="540"/>
      <point x="435" y="513"/>
      <point x="476" y="465"/>
      <point x="498" y="397"/>
    </contour>
  </outline>
</glyph>
<glyph name="lslash" format="2">
  <advance width="387"/>
  <unicode hex="0142"/>
  <outline>
    <contour>
      <point x="388" y="426" type="line"/>
      <point x="345" y="527" type="line"/>
      <point x="-11" y="353" type="line"/>
      <point x="32" y="252" type="line"/>
    </contour>
    <contour>
      <point x="72" y="142" type="line" smooth="yes"/>
      <point x="72" y="68"/>
      <point x="154" y="-10"/>
      <point x="230" y="-10" type="qcurve" smooth="yes"/>
      <point x="268" y="-10"/>
      <point x="353" y="8"/>
      <point x="387" y="24" type="qcurve"/>
      <point x="363" y="164" type="line"/>
      <point x="351" y="157"/>
      <point x="323" y="149"/>
      <point x="311" y="149" type="qcurve" smooth="yes"/>
      <point x="299" y="149"/>
      <point x="281" y="157"/>
      <point x="268" y="172"/>
      <point x="262" y="194"/>
      <point x="262" y="209" type="qcurve" smooth="yes"/>
      <point x="262" y="730" type="line"/>
      <point x="72" y="730" type="line"/>
    </contour>
  </outline>
</glyph>
<glyph name="Eng" format="2">
  <advance width="735"/>
  <unicode hex="014A"/>
  <outline>
    <contour>
      <point x="483" y="44" type="line"/>
      <point x="483" y="-3" type="line" smooth="yes"/>
      <point x="483" y="-13"/>
      <point x="478" y="-29"/>
      <point x="467" y="-40"/>
      <point x="452" y="-46"/>
      <point x="443" y="-46" type="qcurve" smooth="yes"/>
      <point x="429" y="-46"/>
      <point x="404" y="-35"/>
      <point x="396" y="-26" type="qcurve"/>
      <point x="318" y="-155" type="line"/>
      <point x="349" y="-181"/>
      <point x="425" y="-209"/>
      <point x="467" y="-209" type="qcurve" smooth="yes"/>
      <point x="511" y="-209"/>
      <point x="586" y="-179"/>
      <point x="642" y="-123"/>
      <point x="673" y="-44"/>
      <point x="673" y="5" type="qcurve" smooth="yes"/>
      <point x="673" y="709" type="line"/>
      <point x="478" y="709" type="line"/>
      <point x="478" y="359" type="line"/>
      <point x="211" y="710" type="line"/>
      <point x="61" y="710" type="line"/>
      <point x="61" y="0" type="line"/>
      <point x="256" y="0" type="line"/>
      <point x="256" y="343" type="line"/>
    </contour>
  </outline>
</glyph>
<glyph name="eng" format="2">
  <advance width="620"/>
  <unicode hex="014B"/>
  <outline>
    <contour>
      <point x="370" y="-209" type="qcurve" smooth="yes"/>
      <point x="415" y="-209"/>
      <point x="490" y="-177"/>
      <point x="545" y="-118"/>
      <point x="576" y="-37"/>
      <point x="576" y="12" type="qcurve" smooth="yes"/>
      <point x="576" y="346" type="line" smooth="yes"/>
      <point x="576" y="373"/>
      <point x="567" y="439"/>
      <point x="534" y="497"/>
      <point x="471" y="536"/>
      <point x="417" y="536" type="qcurve" smooth="yes"/>
      <point x="383" y="536"/>
      <point x="323" y="525"/>
      <point x="273" y="502"/>
      <point x="233" y="469"/>
      <point x="219" y="448" type="qcurve"/>
      <point x="219" y="526" type="line"/>
      <point x="48" y="526" type="line"/>
      <point x="48" y="0" type="line"/>
      <point x="238" y="0" type="line"/>
      <point x="238" y="295" type="line"/>
      <point x="244" y="312"/>
      <point x="265" y="339"/>
      <point x="290" y="359"/>
      <point x="317" y="370"/>
      <point x="329" y="370" type="qcurve" smooth="yes"/>
      <point x="352" y="370"/>
      <point x="387" y="335"/>
      <point x="387" y="296" type="qcurve" smooth="yes"/>
      <point x="387" y="-3" type="line" smooth="yes"/>
      <point x="387" y="-13"/>
      <point x="381" y="-29"/>
      <point x="371" y="-40"/>
      <point x="355" y="-46"/>
      <point x="346" y="-46" type="qcurve" smooth="yes"/>
      <point x="332" y="-46"/>
      <point x="307" y="-35"/>
      <point x="299" y="-26" type="qcurve"/>
      <point x="221" y="-155" type="line"/>
      <point x="252" y="-181"/>
      <point x="328" y="-209"/>
    </contour>
  </outline>
</glyph>
<glyph name="OE" format="2">
  <advance width="1030"/>
  <unicode hex="0152"/>
  <outline>
    <contour>
      <point x="709" y="170" type="line"/>
      <point x="709" y="276" type="line"/>
      <point x="937" y="276" type="line"/>
      <point x="937" y="446" type="line"/>
      <point x="709" y="446" type="line"/>
      <point x="709" y="540" type="line"/>
      <point x="991" y="540" type="line"/>
      <point x="991" y="710" type="line"/>
      <point x="514" y="710" type="line"/>
      <point x="514" y="670" type="line"/>
      <point x="498" y="681"/>
      <point x="462" y="697"/>
      <point x="425" y="709"/>
      <point x="386" y="715"/>
      <point x="365" y="715" type="qcurve" smooth="yes"/>
      <point x="290" y="715"/>
      <point x="165" y="656"/>
      <point x="73" y="556"/>
      <point x="22" y="427"/>
      <point x="22" y="356" type="qcurve" smooth="yes"/>
      <point x="22" y="287"/>
      <point x="71" y="157"/>
      <point x="160" y="56"/>
      <point x="285" y="-5"/>
      <point x="361" y="-5" type="qcurve" smooth="yes"/>
      <point x="382" y="-5"/>
      <point x="422" y="2"/>
      <point x="461" y="14"/>
      <point x="497" y="31"/>
      <point x="514" y="41" type="qcurve"/>
      <point x="514" y="0" type="line"/>
      <point x="1000" y="0" type="line"/>
      <point x="1000" y="170" type="line"/>
    </contour>
    <contour>
      <point x="363" y="168" type="qcurve" smooth="yes"/>
      <point x="327" y="168"/>
      <point x="273" y="199"/>
      <point x="237" y="251"/>
      <point x="220" y="318"/>
      <point x="220" y="354" type="qcurve" smooth="yes"/>
      <point x="220" y="389"/>
      <point x="237" y="456"/>
      <point x="272" y="509"/>
      <point x="325" y="542"/>
      <point x="362" y="542" type="qcurve" smooth="yes"/>
      <point x="398" y="542"/>
      <point x="452" y="511"/>
      <point x="487" y="459"/>
      <point x="505" y="392"/>
      <point x="505" y="356" type="qcurve" smooth="yes"/>
      <point x="505" y="321"/>
      <point x="488" y="254"/>
      <point x="454" y="201"/>
      <point x="400" y="168"/>
    </contour>
  </outline>
</glyph>
<glyph name="oe" format="2">
  <advance width="991"/>
  <unicode hex="0153"/>
  <outline>
    <contour>
      <point x="305" y="-10" type="qcurve" smooth="yes"/>
      <point x="331" y="-10"/>
      <point x="377" y="-2"/>
      <point x="422" y="17"/>
      <point x="469" y="48"/>
      <point x="497" y="70" type="qcurve"/>
      <point x="525" y="48"/>
      <point x="573" y="17"/>
      <point x="619" y="-2"/>
      <point x="665" y="-10"/>
      <point x="692" y="-10" type="qcurve" smooth="yes"/>
      <point x="735" y="-10"/>
      <point x="814" y="10"/>
      <point x="881" y="47"/>
      <point x="934" y="100"/>
      <point x="951" y="133" type="qcurve"/>
      <point x="795" y="179" type="line"/>
      <point x="790" y="167"/>
      <point x="771" y="146"/>
      <point x="745" y="131"/>
      <point x="714" y="122"/>
      <point x="698" y="122" type="qcurve" smooth="yes"/>
      <point x="679" y="122"/>
      <point x="645" y="134"/>
      <point x="619" y="157"/>
      <point x="604" y="187"/>
      <point x="603" y="205" type="qcurve"/>
      <point x="972" y="205" type="line"/>
      <point x="974" y="217"/>
      <point x="977" y="248"/>
      <point x="977" y="263" type="qcurve" smooth="yes"/>
      <point x="977" y="323"/>
      <point x="935" y="423"/>
      <point x="860" y="495"/>
      <point x="755" y="536"/>
      <point x="693" y="536" type="qcurve" smooth="yes"/>
      <point x="635" y="536"/>
      <point x="544" y="496"/>
      <point x="497" y="450" type="qcurve"/>
      <point x="477" y="472"/>
      <point x="434" y="505"/>
      <point x="386" y="526"/>
      <point x="333" y="536"/>
      <point x="303" y="536" type="qcurve" smooth="yes"/>
      <point x="241" y="536"/>
      <point x="136" y="496"/>
      <point x="61" y="423"/>
      <point x="19" y="323"/>
      <point x="19" y="263" type="qcurve" smooth="yes"/>
      <point x="19" y="203"/>
      <point x="61" y="103"/>
      <point x="137" y="30"/>
      <point x="242" y="-10"/>
    </contour>
    <contour>
      <point x="307" y="150" type="qcurve" smooth="yes"/>
      <point x="286" y="150"/>
      <point x="252" y="166"/>
      <point x="227" y="196"/>
      <point x="214" y="238"/>
      <point x="214" y="263" type="qcurve" smooth="yes"/>
      <point x="214" y="289"/>
      <point x="227" y="330"/>
      <point x="252" y="360"/>
      <point x="286" y="376"/>
      <point x="307" y="376" type="qcurve" smooth="yes"/>
      <point x="328" y="376"/>
      <point x="362" y="360"/>
      <point x="387" y="330"/>
      <point x="400" y="289"/>
      <point x="400" y="263" type="qcurve" smooth="yes"/>
      <point x="400" y="238"/>
      <point x="387" y="196"/>
      <point x="362" y="166"/>
      <point x="328" y="150"/>
    </contour>
    <contour>
      <point x="597" y="319" type="line"/>
      <point x="599" y="338"/>
      <point x="613" y="368"/>
      <point x="637" y="389"/>
      <point x="668" y="401"/>
      <point x="687" y="401" type="qcurve" smooth="yes"/>
      <point x="705" y="401"/>
      <point x="736" y="389"/>
      <point x="760" y="368"/>
      <point x="775" y="338"/>
      <point x="777" y="319" type="qcurve"/>
    </contour>
  </outline>
</glyph>
<glyph name="Tbar" format="2">
  <advance width="646"/>
  <unicode hex="0166"/>
  <outline>
    <contour>
      <point x="575" y="268" type="line"/>
      <point x="575" y="356" type="line"/>
      <point x="71" y="356" type="line"/>
      <point x="71" y="268" type="line"/>
    </contour>
    <contour>
      <point x="625" y="710" type="line"/>
      <point x="21" y="710" type="line"/>
      <point x="21" y="540" type="line"/>
      <point x="226" y="540" type="line"/>
      <point x="226" y="0" type="line"/>
      <point x="421" y="0" type="line"/>
      <point x="421" y="540" type="line"/>
      <point x="625" y="540" type="line"/>
    </contour>
  </outline>
</glyph>
<glyph name="tbar" format="2">
  <advance width="424"/>
  <unicode hex="0167"/>
  <outline>
    <contour>
      <point x="368" y="227" type="line"/>
      <point x="368" y="336" type="line"/>
      <point x="27" y="336" type="line"/>
      <point x="27" y="227" type="line"/>
    </contour>
    <contour>
      <point x="384" y="179" type="line"/>
      <point x="375" y="175"/>
      <point x="357" y="169"/>
      <point x="339" y="165"/>
      <point x="323" y="162"/>
      <point x="316" y="162" type="qcurve" smooth="yes"/>
      <point x="297" y="162"/>
      <point x="275" y="183"/>
      <point x="275" y="209" type="qcurve" smooth="yes"/>
      <point x="275" y="383" type="line"/>
      <point x="378" y="383" type="line"/>
      <point x="378" y="526" type="line"/>
      <point x="275" y="526" type="line"/>
      <point x="275" y="691" type="line"/>
      <point x="85" y="691" type="line"/>
      <point x="85" y="526" type="line"/>
      <point x="20" y="526" type="line"/>
      <point x="20" y="383" type="line"/>
      <point x="85" y="383" type="line"/>
      <point x="85" y="142" type="line" smooth="yes"/>
      <point x="85" y="99"/>
      <point x="110" y="41"/>
      <point x="153" y="5"/>
      <point x="211" y="-11"/>
      <point x="243" y="-11" type="qcurve" smooth="yes"/>
      <point x="265" y="-11"/>
      <point x="310" y="-5"/>
      <point x="355" y="6"/>
      <point x="398" y="20"/>
      <point x="418" y="29" type="qcurve"/>
    </contour>
  </outline>
</glyph>
<glyph name="florin" format="2">
  <advance width="565"/>
  <unicode hex="0192"/>
  <outline>
    <contour>
      <point x="177" y="-209" type="qcurve" smooth="yes"/>
      <point x="221" y="-209"/>
      <point x="297" y="-178"/>
      <point x="352" y="-123"/>
      <point x="383" y="-45"/>
      <point x="383" y="2" type="qcurve" smooth="yes"/>
      <point x="383" y="322" type="line"/>
      <point x="498" y="322" type="line"/>
      <point x="498" y="465" type="line"/>
      <point x="383" y="465" type="line"/>
      <point x="383" y="529" type="line" smooth="yes"/>
      <point x="383" y="555"/>
      <point x="406" y="580"/>
      <point x="429" y="580" type="qcurve" smooth="yes"/>
      <point x="444" y="580"/>
      <point x="483" y="572"/>
      <point x="500" y="566" type="qcurve"/>
      <point x="532" y="710" type="line"/>
      <point x="492" y="725"/>
      <point x="420" y="740"/>
      <point x="386" y="740" type="qcurve" smooth="yes"/>
      <point x="343" y="740"/>
      <point x="271" y="709"/>
      <point x="221" y="652"/>
      <point x="193" y="572"/>
      <point x="193" y="522" type="qcurve" smooth="yes"/>
      <point x="193" y="465" type="line"/>
      <point x="128" y="465" type="line"/>
      <point x="128" y="322" type="line"/>
      <point x="193" y="322" type="line"/>
      <point x="193" y="-3" type="line" smooth="yes"/>
      <point x="193" y="-13"/>
      <point x="188" y="-29"/>
      <point x="177" y="-40"/>
      <point x="162" y="-46"/>
      <point x="153" y="-46" type="qcurve" smooth="yes"/>
      <point x="139" y="-46"/>
      <point x="114" y="-35"/>
      <point x="106" y="-26" type="qcurve"/>
      <point x="28" y="-155" type="line"/>
      <point x="59" y="-181"/>
      <point x="135" y="-209"/>
    </contour>
  </outline>
</glyph>
<glyph name="Aringacute" format="2">
  <advance width="667"/>
  <unicode hex="01FA"/>
  <outline>
    <contour>
      <point x="-2" y="0" type="line"/>
      <point x="197" y="0" type="line"/>
      <point x="239" y="139" type="line"/>
      <point x="428" y="139" type="line"/>
      <point x="471" y="0" type="line"/>
      <point x="669" y="0" type="line"/>
      <point x="443" y="710" type="line"/>
      <point x="225" y="710" type="line"/>
    </contour>
    <contour>
      <point x="268" y="269" type="line"/>
      <point x="334" y="519" type="line"/>
      <point x="397" y="269" type="line"/>
    </contour>
    <contour>
      <point x="217" y="751" type="qcurve" smooth="yes"/>
      <point x="217" y="707"/>
      <point x="280" y="657"/>
      <point x="334" y="657" type="qcurve" smooth="yes"/>
      <point x="388" y="657"/>
      <point x="451" y="707"/>
      <point x="451" y="751" type="qcurve" smooth="yes"/>
      <point x="451" y="795"/>
      <point x="388" y="845"/>
      <point x="334" y="845" type="qcurve" smooth="yes"/>
      <point x="280" y="845"/>
      <point x="217" y="795"/>
    </contour>
    <contour>
      <point x="334" y="789" type="qcurve" smooth="yes"/>
      <point x="351" y="789"/>
      <point x="374" y="766"/>
      <point x="374" y="752" type="qcurve" smooth="yes"/>
      <point x="374" y="737"/>
      <point x="351" y="713"/>
      <point x="334" y="713" type="qcurve" smooth="yes"/>
      <point x="317" y="713"/>
      <point x="294" y="737"/>
      <point x="294" y="752" type="qcurve" smooth="yes"/>
      <point x="294" y="766"/>
      <point x="317" y="789"/>
    </contour>
    <contour>
      <point x="520" y="961" type="line"/>
      <point x="351" y="961" type="line"/>
      <point x="292" y="821" type="line"/>
      <point x="382" y="821" type="line"/>
    </contour>
  </outline>
</glyph>
<glyph name="uni0237" format="2">
  <advance width="286"/>
  <unicode hex="0237"/>
  <outline>
    <contour>
      <point x="32" y="-209" type="qcurve" smooth="yes"/>
      <point x="77" y="-209"/>
      <point x="153" y="-177"/>
      <point x="208" y="-118"/>
      <point x="238" y="-37"/>
      <point x="238" y="12" type="qcurve" smooth="yes"/>
      <point x="238" y="526" type="line"/>
      <point x="48" y="526" type="line"/>
      <point x="48" y="-3" type="line" smooth="yes"/>
      <point x="48" y="-13"/>
      <point x="43" y="-29"/>
      <point x="32" y="-40"/>
      <point x="17" y="-46"/>
      <point x="8" y="-46" type="qcurve" smooth="yes"/>
      <point x="-6" y="-46"/>
      <point x="-31" y="-35"/>
      <point x="-39" y="-26" type="qcurve"/>
      <point x="-117" y="-155" type="line"/>
      <point x="-86" y="-181"/>
      <point x="-10" y="-209"/>
    </contour>
  </outline>
</glyph>
<glyph name="uni0259" format="2">
  <advance width="609"/>
  <unicode hex="0259"/>
  <outline>
    <contour>
      <point x="302" y="-10" type="qcurve" smooth="yes"/>
      <point x="373" y="-10"/>
      <point x="480" y="35"/>
      <point x="553" y="111"/>
      <point x="590" y="213"/>
      <point x="590" y="270" type="qcurve" smooth="yes"/>
      <point x="590" y="323"/>
      <point x="552" y="419"/>
      <point x="479" y="493"/>
      <point x="371" y="536"/>
      <point x="302" y="536" type="qcurve" smooth="yes"/>
      <point x="254" y="536"/>
      <point x="172" y="515"/>
      <point x="106" y="477"/>
      <point x="56" y="425"/>
      <point x="40" y="393" type="qcurve"/>
      <point x="201" y="347" type="line"/>
      <point x="206" y="359"/>
      <point x="225" y="379"/>
      <point x="250" y="393"/>
      <point x="281" y="400"/>
      <point x="296" y="400" type="qcurve" smooth="yes"/>
      <point x="313" y="400"/>
      <point x="344" y="391"/>
      <point x="370" y="372"/>
      <point x="387" y="342"/>
      <point x="388" y="321" type="qcurve"/>
      <point x="19" y="321" type="line"/>
      <point x="17" y="309"/>
      <point x="14" y="278"/>
      <point x="14" y="263" type="qcurve" smooth="yes"/>
      <point x="14" y="209"/>
      <point x="51" y="110"/>
      <point x="124" y="35"/>
      <point x="232" y="-10"/>
    </contour>
    <contour>
      <point x="305" y="125" type="qcurve" smooth="yes"/>
      <point x="287" y="125"/>
      <point x="257" y="136"/>
      <point x="235" y="157"/>
      <point x="220" y="188"/>
      <point x="218" y="207" type="qcurve"/>
      <point x="392" y="207" type="line"/>
      <point x="390" y="188"/>
      <point x="376" y="157"/>
      <point x="353" y="136"/>
      <point x="323" y="125"/>
    </contour>
  </outline>
</glyph>
<glyph name="ringhalfrightmod" format="2">
  <advance width="157"/>
  <unicode hex="02BE"/>
  <outline>
    <contour>
      <point x="20" y="549" type="line"/>
      <point x="74" y="549"/>
      <point x="137" y="599"/>
      <point x="137" y="643" type="qcurve" smooth="yes"/>
      <point x="137" y="687"/>
      <point x="74" y="737"/>
      <point x="20" y="737" type="qcurve"/>
      <point x="20" y="681" type="line"/>
      <point x="37" y="681"/>
      <point x="60" y="658"/>
      <point x="60" y="644" type="qcurve" smooth="yes"/>
      <point x="60" y="629"/>
      <point x="37" y="605"/>
      <point x="20" y="605" type="qcurve"/>
    </contour>
  </outline>
</glyph>
<glyph name="uni02BF" format="2">
  <advance width="157"/>
  <unicode hex="02BF"/>
  <outline>
    <contour>
      <point x="137" y="605" type="line"/>
      <point x="120" y="605"/>
      <point x="97" y="629"/>
      <point x="97" y="644" type="qcurve" smooth="yes"/>
      <point x="97" y="658"/>
      <point x="120" y="681"/>
      <point x="137" y="681" type="qcurve"/>
      <point x="137" y="737" type="line"/>
      <point x="83" y="737"/>
      <point x="20" y="687"/>
      <point x="20" y="643" type="qcurve" smooth="yes"/>
      <point x="20" y="599"/>
      <point x="83" y="549"/>
      <point x="137" y="549" type="qcurve"/>
    </contour>
  </outline>
</glyph>
<glyph name="uni02CC" format="2">
  <advance width="316"/>
  <unicode hex="02CC"/>
  <outline>
    <contour>
      <point x="78" y="254" type="line"/>
      <point x="78" y="-130" type="line"/>
      <point x="238" y="-130" type="line"/>
      <point x="238" y="254" type="line"/>
    </contour>
  </outline>
</glyph>
<glyph name="gravecomb" format="2">
  <advance width="314"/>
  <unicode hex="0300"/>
  <anchor x="222" y="526" name="_top"/>
  <outline>
    <contour>
      <point x="19" y="760" type="line"/>
      <point x="167" y="600" type="line"/>
      <point x="279" y="600" type="line"/>
      <point x="232" y="760" type="line"/>
    </contour>
  </outline>
</glyph>
<glyph name="acutecomb" format="2">
  <advance width="314"/>
  <unicode hex="0301"/>
  <outline>
    <contour>
      <point x="295" y="760" type="line"/>
      <point x="82" y="760" type="line"/>
      <point x="35" y="600" type="line"/>
      <point x="147" y="600" type="line"/>
    </contour>
  </outline>
</glyph>
<glyph name="circumflexcomb" format="2">
  <advance width="436"/>
  <unicode hex="0302"/>
  <outline>
    <contour>
      <point x="16" y="600" type="line"/>
      <point x="128" y="600" type="line"/>
      <point x="208" y="674" type="line"/>
      <point x="286" y="600" type="line"/>
      <point x="398" y="600" type="line"/>
      <point x="315" y="772" type="line"/>
      <point x="101" y="772" type="line"/>
    </contour>
  </outline>
</glyph>
<glyph name="uni0302" format="2">
  <advance width="402"/>
  <unicode hex="0302"/>
  <outline>
    <contour>
      <point x="20" y="600" type="line"/>
      <point x="110" y="600" type="line"/>
      <point x="194" y="680" type="line"/>
      <point x="278" y="600" type="line"/>
      <point x="368" y="600" type="line"/>
      <point x="279" y="760" type="line"/>
      <point x="109" y="760" type="line"/>
    </contour>
  </outline>
</glyph>
<glyph name="tildecomb" format="2">
  <advance width="492"/>
  <unicode hex="0303"/>
  <outline>
    <contour>
      <point x="319" y="604" type="qcurve" smooth="yes"/>
      <point x="362" y="604"/>
      <point x="422" y="655"/>
      <point x="462" y="720"/>
      <point x="482" y="783"/>
      <point x="482" y="792" type="qcurve"/>
      <point x="356" y="792" type="line"/>
      <point x="356" y="791"/>
      <point x="353" y="775"/>
      <point x="342" y="756"/>
      <point x="325" y="741"/>
      <point x="308" y="741" type="qcurve" smooth="yes"/>
      <point x="293" y="741"/>
      <point x="265" y="759"/>
      <point x="235" y="778"/>
      <point x="197" y="796"/>
      <point x="171" y="796" type="qcurve" smooth="yes"/>
      <point x="130" y="796"/>
      <point x="69" y="748"/>
      <point x="27" y="688"/>
      <point x="10" y="625"/>
      <point x="10" y="608" type="qcurve"/>
      <point x="137" y="608" type="line"/>
      <point x="137" y="607"/>
      <point x="139" y="622"/>
      <point x="148" y="642"/>
      <point x="164" y="656"/>
      <point x="181" y="656" type="qcurve" smooth="yes"/>
      <point x="200" y="656"/>
      <point x="229" y="639"/>
      <point x="259" y="621"/>
      <point x="294" y="604"/>
    </contour>
  </outline>
</glyph>
<glyph name="uni0304" format="2">
  <advance width="438"/>
  <unicode hex="0304"/>
  <outline>
    <contour>
      <point x="374" y="607" type="line"/>
      <point x="374" y="720" type="line"/>
      <point x="64" y="720" type="line"/>
      <point x="64" y="607" type="line"/>
    </contour>
  </outline>
</glyph>
<glyph name="uni0306" format="2">
  <advance width="368"/>
  <unicode hex="0306"/>
  <outline>
    <contour>
      <point x="184" y="649" type="qcurve" smooth="yes"/>
      <point x="159" y="649"/>
      <point x="123" y="697"/>
      <point x="123" y="730" type="qcurve"/>
      <point x="25" y="730" type="line"/>
      <point x="25" y="694"/>
      <point x="48" y="635"/>
      <point x="90" y="592"/>
      <point x="149" y="568"/>
      <point x="184" y="568" type="qcurve" smooth="yes"/>
      <point x="219" y="568"/>
      <point x="278" y="592"/>
      <point x="320" y="635"/>
      <point x="343" y="694"/>
      <point x="343" y="730" type="qcurve"/>
      <point x="245" y="730" type="line"/>
      <point x="242" y="695"/>
      <point x="207" y="649"/>
    </contour>
  </outline>
</glyph>
<glyph name="dotaccentcomb" format="2">
  <advance width="270"/>
  <unicode hex="0307"/>
  <outline>
    <contour>
      <point x="27" y="668" type="qcurve" smooth="yes"/>
      <point x="27" y="624"/>
      <point x="90" y="561"/>
      <point x="134" y="561" type="qcurve" smooth="yes"/>
      <point x="178" y="561"/>
      <point x="241" y="624"/>
      <point x="241" y="668" type="qcurve" smooth="yes"/>
      <point x="241" y="712"/>
      <point x="178" y="775"/>
      <point x="134" y="775" type="qcurve" smooth="yes"/>
      <point x="90" y="775"/>
      <point x="27" y="712"/>
    </contour>
  </outline>
</glyph>
<glyph name="uni0307" format="2">
  <advance width="270"/>
  <unicode hex="0307"/>
  <outline>
    <contour>
      <point x="40" y="660" type="qcurve" smooth="yes"/>
      <point x="40" y="621"/>
      <point x="95" y="566"/>
      <point x="134" y="566" type="qcurve" smooth="yes"/>
      <point x="173" y="566"/>
      <point x="228" y="621"/>
      <point x="228" y="660" type="qcurve" smooth="yes"/>
      <point x="228" y="699"/>
      <point x="173" y="754"/>
      <point x="134" y="754" type="qcurve" smooth="yes"/>
      <point x="95" y="754"/>
      <point x="40" y="699"/>
    </contour>
  </outline>
</glyph>
<glyph name="uni0308" format="2">
  <advance width="566"/>
  <unicode hex="0308"/>
  <outline>
    <contour>
      <point x="74" y="651" type="qcurve" smooth="yes"/>
      <point x="74" y="612"/>
      <point x="129" y="557"/>
      <point x="168" y="557" type="qcurve" smooth="yes"/>
      <point x="207" y="557"/>
      <point x="262" y="612"/>
      <point x="262" y="651" type="qcurve" smooth="yes"/>
      <point x="262" y="690"/>
      <point x="207" y="745"/>
      <point x="168" y="745" type="qcurve" smooth="yes"/>
      <point x="129" y="745"/>
      <point x="74" y="690"/>
    </contour>
    <contour>
      <point x="305" y="651" type="qcurve" smooth="yes"/>
      <point x="305" y="612"/>
      <point x="360" y="557"/>
      <point x="399" y="557" type="qcurve" smooth="yes"/>
      <point x="438" y="557"/>
      <point x="493" y="612"/>
      <point x="493" y="651" type="qcurve" smooth="yes"/>
      <point x="493" y="690"/>
      <point x="438" y="745"/>
      <point x="399" y="745" type="qcurve" smooth="yes"/>
      <point x="360" y="745"/>
      <point x="305" y="690"/>
    </contour>
  </outline>
</glyph>
<glyph name="hookabovecomb" format="2">
  <advance width="600"/>
  <unicode hex="0309"/>
  <outline>
    <contour>
      <point x="254" y="676" type="line"/>
      <point x="269" y="689"/>
      <point x="290" y="703"/>
      <point x="304" y="703" type="qcurve" smooth="yes"/>
      <point x="318" y="703"/>
      <point x="334" y="686"/>
      <point x="334" y="673" type="qcurve" smooth="yes"/>
      <point x="334" y="659"/>
      <point x="315" y="636"/>
      <point x="298" y="625" type="qcurve"/>
      <point x="343" y="578" type="line"/>
      <point x="381" y="609"/>
      <point x="417" y="660"/>
      <point x="417" y="701" type="qcurve" smooth="yes"/>
      <point x="417" y="739"/>
      <point x="364" y="785"/>
      <point x="319" y="785" type="qcurve" smooth="yes"/>
      <point x="290" y="785"/>
      <point x="234" y="758"/>
      <point x="203" y="726" type="qcurve"/>
    </contour>
  </outline>
</glyph>
<glyph name="ringcomb" format="2">
  <advance width="274"/>
  <unicode hex="030A"/>
  <outline>
    <contour>
      <point x="20" y="643" type="qcurve" smooth="yes"/>
      <point x="20" y="599"/>
      <point x="83" y="549"/>
      <point x="137" y="549" type="qcurve" smooth="yes"/>
      <point x="191" y="549"/>
      <point x="254" y="599"/>
      <point x="254" y="643" type="qcurve" smooth="yes"/>
      <point x="254" y="687"/>
      <point x="191" y="737"/>
      <point x="137" y="737" type="qcurve" smooth="yes"/>
      <point x="83" y="737"/>
      <point x="20" y="687"/>
    </contour>
    <contour>
      <point x="137" y="681" type="qcurve" smooth="yes"/>
      <point x="154" y="681"/>
      <point x="177" y="658"/>
      <point x="177" y="644" type="qcurve" smooth="yes"/>
      <point x="177" y="629"/>
      <point x="154" y="605"/>
      <point x="137" y="605" type="qcurve" smooth="yes"/>
      <point x="120" y="605"/>
      <point x="97" y="629"/>
      <point x="97" y="644" type="qcurve" smooth="yes"/>
      <point x="97" y="658"/>
      <point x="120" y="681"/>
    </contour>
  </outline>
</glyph>
<glyph name="caroncomb" format="2">
  <advance width="436"/>
  <unicode hex="030C"/>
  <outline>
    <contour>
      <point x="16" y="772" type="line"/>
      <point x="101" y="600" type="line"/>
      <point x="315" y="600" type="line"/>
      <point x="398" y="772" type="line"/>
      <point x="286" y="772" type="line"/>
      <point x="208" y="696" type="line"/>
      <point x="128" y="772" type="line"/>
    </contour>
  </outline>
</glyph>
<glyph name="uni030C" format="2">
  <advance width="402"/>
  <unicode hex="030C"/>
  <outline>
    <contour>
      <point x="20" y="760" type="line"/>
      <point x="109" y="600" type="line"/>
      <point x="279" y="600" type="line"/>
      <point x="368" y="760" type="line"/>
      <point x="278" y="760" type="line"/>
      <point x="194" y="680" type="line"/>
      <point x="110" y="760" type="line"/>
    </contour>
  </outline>
</glyph>
<glyph name="uni0311" format="2">
  <advance width="368"/>
  <unicode hex="0311"/>
  <outline>
    <contour>
      <point x="184" y="649" type="qcurve" smooth="yes"/>
      <point x="207" y="649"/>
      <point x="242" y="603"/>
      <point x="245" y="568" type="qcurve"/>
      <point x="343" y="568" type="line"/>
      <point x="343" y="604"/>
      <point x="320" y="663"/>
      <point x="278" y="706"/>
      <point x="219" y="730"/>
      <point x="184" y="730" type="qcurve" smooth="yes"/>
      <point x="149" y="730"/>
      <point x="90" y="706"/>
      <point x="48" y="663"/>
      <point x="25" y="604"/>
      <point x="25" y="568" type="qcurve"/>
      <point x="123" y="568" type="line"/>
      <point x="123" y="601"/>
      <point x="159" y="649"/>
    </contour>
  </outline>
</glyph>
<glyph name="commaturnedabovecomb" format="2">
  <advance width="261"/>
  <unicode hex="0312"/>
  <outline>
    <contour>
      <point x="8" y="572" type="line"/>
      <point x="199" y="572" type="line"/>
      <point x="256" y="755" type="line"/>
      <point x="155" y="755" type="line"/>
    </contour>
  </outline>
</glyph>
<glyph name="uni0312" format="2">
  <advance width="241"/>
  <unicode hex="0312"/>
  <outline>
    <contour>
      <point x="11" y="575" type="line"/>
      <point x="180" y="575" type="line"/>
      <point x="240" y="749" type="line"/>
      <point x="150" y="749" type="line"/>
    </contour>
  </outline>
</glyph>
<glyph name="horncomb" format="2">
  <advance width="347"/>
  <unicode hex="031B"/>
  <outline>
    <contour>
      <point x="50" y="470" type="line"/>
      <point x="79" y="470"/>
      <point x="137" y="479"/>
      <point x="190" y="494"/>
      <point x="232" y="514"/>
      <point x="245" y="526" type="qcurve" smooth="yes"/>
      <point x="265" y="544"/>
      <point x="286" y="586"/>
      <point x="295" y="630"/>
      <point x="297" y="673"/>
      <point x="297" y="692" type="qcurve"/>
      <point x="168" y="692" type="line"/>
      <point x="167" y="672"/>
      <point x="165" y="635"/>
      <point x="151" y="621" type="qcurve" smooth="yes"/>
      <point x="137" y="607"/>
      <point x="87" y="598"/>
      <point x="52" y="598" type="qcurve"/>
    </contour>
  </outline>
</glyph>
<glyph name="dotbelowcomb" format="2">
  <advance width="270"/>
  <unicode hex="0323"/>
  <outline>
    <contour>
      <point x="41" y="-140" type="qcurve" smooth="yes"/>
      <point x="41" y="-179"/>
      <point x="96" y="-234"/>
      <point x="135" y="-234" type="qcurve" smooth="yes"/>
      <point x="174" y="-234"/>
      <point x="229" y="-179"/>
      <point x="229" y="-140" type="qcurve" smooth="yes"/>
      <point x="229" y="-101"/>
      <point x="174" y="-46"/>
      <point x="135" y="-46" type="qcurve" smooth="yes"/>
      <point x="96" y="-46"/>
      <point x="41" y="-101"/>
    </contour>
  </outline>
</glyph>
<glyph name="dieresisbelowcomb" format="2">
  <advance width="566"/>
  <unicode hex="0324"/>
  <outline>
    <contour>
      <point x="304" y="-144" type="qcurve" smooth="yes"/>
      <point x="304" y="-183"/>
      <point x="359" y="-238"/>
      <point x="398" y="-238" type="qcurve" smooth="yes"/>
      <point x="437" y="-238"/>
      <point x="492" y="-183"/>
      <point x="492" y="-144" type="qcurve" smooth="yes"/>
      <point x="492" y="-105"/>
      <point x="437" y="-50"/>
      <point x="398" y="-50" type="qcurve" smooth="yes"/>
      <point x="359" y="-50"/>
      <point x="304" y="-105"/>
    </contour>
    <contour>
      <point x="73" y="-144" type="qcurve" smooth="yes"/>
      <point x="73" y="-183"/>
      <point x="128" y="-238"/>
      <point x="167" y="-238" type="qcurve" smooth="yes"/>
      <point x="206" y="-238"/>
      <point x="261" y="-183"/>
      <point x="261" y="-144" type="qcurve" smooth="yes"/>
      <point x="261" y="-105"/>
      <point x="206" y="-50"/>
      <point x="167" y="-50" type="qcurve" smooth="yes"/>
      <point x="128" y="-50"/>
      <point x="73" y="-105"/>
    </contour>
  </outline>
</glyph>
<glyph name="commaaccentcomb" format="2">
  <advance width="281"/>
  <unicode hex="0326"/>
  <outline>
    <contour>
      <point x="137" y="-319" type="line"/>
      <point x="281" y="-46" type="line"/>
      <point x="84" y="-46" type="line"/>
      <point x="33" y="-319" type="line"/>
    </contour>
  </outline>
</glyph>
<glyph name="uni0326" format="2">
  <advance width="241"/>
  <unicode hex="0326"/>
  <outline>
    <contour>
      <point x="115" y="-291" type="line"/>
      <point x="233" y="-46" type="line"/>
      <point x="76" y="-46" type="line"/>
      <point x="33" y="-291" type="line"/>
    </contour>
  </outline>
</glyph>
<glyph name="cedillacomb" format="2">
  <advance width="362"/>
  <unicode hex="0327"/>
  <outline>
    <contour>
      <point x="94" y="-208" type="line"/>
      <point x="249" y="-45" type="line"/>
      <point x="82" y="-27" type="line"/>
      <point x="14" y="-194" type="line"/>
    </contour>
  </outline>
</glyph>
<glyph name="uni0327" format="2">
  <advance width="362"/>
  <unicode hex="0327"/>
  <outline>
    <contour>
      <point x="30" y="-198" type="qcurve"/>
      <point x="56" y="-209"/>
      <point x="114" y="-219"/>
      <point x="143" y="-219" type="qcurve" smooth="yes"/>
      <point x="167" y="-219"/>
      <point x="221" y="-210"/>
      <point x="266" y="-187"/>
      <point x="295" y="-147"/>
      <point x="295" y="-116" type="qcurve" smooth="yes"/>
      <point x="295" y="-75"/>
      <point x="238" y="-38"/>
      <point x="201" y="-38" type="qcurve" smooth="yes"/>
      <point x="194" y="-38"/>
      <point x="181" y="-38"/>
      <point x="174" y="-40" type="qcurve"/>
      <point x="210" y="11" type="line"/>
      <point x="206" y="12"/>
      <point x="187" y="18"/>
      <point x="165" y="24"/>
      <point x="146" y="29"/>
      <point x="141" y="30" type="qcurve"/>
      <point x="77" y="-102" type="line"/>
      <point x="99" y="-100"/>
      <point x="140" y="-93"/>
      <point x="161" y="-93" type="qcurve" smooth="yes"/>
      <point x="176" y="-93"/>
      <point x="211" y="-104"/>
      <point x="211" y="-123" type="qcurve" smooth="yes"/>
      <point x="211" y="-133"/>
      <point x="199" y="-145"/>
      <point x="182" y="-152"/>
      <point x="163" y="-154"/>
      <point x="155" y="-154" type="qcurve" smooth="yes"/>
      <point x="135" y="-154"/>
      <point x="82" y="-145"/>
      <point x="65" y="-134" type="qcurve"/>
      <point x="63" y="-138"/>
      <point x="53" y="-156"/>
      <point x="42" y="-176"/>
      <point x="32" y="-194"/>
    </contour>
  </outline>
</glyph>
<glyph name="ogonekcomb" format="2">
  <advance width="332"/>
  <unicode hex="0328"/>
  <outline>
    <contour>
      <point x="74" y="-114" type="qcurve" smooth="yes"/>
      <point x="74" y="-132"/>
      <point x="93" y="-164"/>
      <point x="130" y="-190"/>
      <point x="187" y="-210"/>
      <point x="226" y="-214" type="qcurve"/>
      <point x="261" y="-114" type="line"/>
      <point x="225" y="-114"/>
      <point x="191" y="-94"/>
      <point x="191" y="-77" type="qcurve" smooth="yes"/>
      <point x="191" y="-60"/>
      <point x="228" y="-19"/>
      <point x="263" y="1" type="qcurve"/>
      <point x="250" y="25" type="line"/>
      <point x="187" y="25" type="line"/>
      <point x="130" y="-4"/>
      <point x="74" y="-78"/>
    </contour>
  </outline>
</glyph>
<glyph name="uni032E" format="2">
  <advance width="368"/>
  <unicode hex="032E"/>
  <outline>
    <contour>
      <point x="184" y="-132" type="qcurve" smooth="yes"/>
      <point x="159" y="-132"/>
      <point x="123" y="-84"/>
      <point x="123" y="-51" type="qcurve"/>
      <point x="25" y="-51" type="line"/>
      <point x="25" y="-87"/>
      <point x="48" y="-146"/>
      <point x="90" y="-189"/>
      <point x="149" y="-213"/>
      <point x="184" y="-213" type="qcurve" smooth="yes"/>
      <point x="219" y="-213"/>
      <point x="278" y="-189"/>
      <point x="320" y="-146"/>
      <point x="343" y="-87"/>
      <point x="343" y="-51" type="qcurve"/>
      <point x="245" y="-51" type="line"/>
      <point x="242" y="-86"/>
      <point x="207" y="-132"/>
    </contour>
  </outline>
</glyph>
<glyph name="uni0331" format="2">
  <advance width="438"/>
  <unicode hex="0331"/>
  <outline>
    <contour>
      <point x="374" y="-187" type="line"/>
      <point x="374" y="-74" type="line"/>
      <point x="64" y="-74" type="line"/>
      <point x="64" y="-187" type="line"/>
    </contour>
  </outline>
</glyph>
<glyph name="strokeshortcomb" format="2">
  <advance width="441"/>
  <unicode hex="0335"/>
  <outline>
    <contour>
      <point x="391" y="227" type="line"/>
      <point x="391" y="336" type="line"/>
      <point x="50" y="336" type="line"/>
      <point x="50" y="227" type="line"/>
    </contour>
  </outline>
</glyph>
<glyph name="tonos" format="2">
  <advance width="236"/>
  <unicode hex="0384"/>
  <outline>
    <contour>
      <point x="68" y="842" type="line"/>
      <point x="42" y="582" type="line"/>
      <point x="134" y="568" type="line"/>
      <point x="196" y="814" type="line"/>
    </contour>
  </outline>
</glyph>
<glyph name="dieresistonos" format="2">
  <advance width="616"/>
  <unicode hex="0385"/>
  <outline>
    <contour>
      <point x="42" y="660" type="qcurve" smooth="yes"/>
      <point x="42" y="621"/>
      <point x="95" y="568"/>
      <point x="134" y="568" type="qcurve" smooth="yes"/>
      <point x="175" y="568"/>
      <point x="226" y="621"/>
      <point x="226" y="660" type="qcurve" smooth="yes"/>
      <point x="226" y="701"/>
      <point x="175" y="752"/>
      <point x="134" y="752" type="qcurve" smooth="yes"/>
      <point x="95" y="752"/>
      <point x="42" y="701"/>
    </contour>
    <contour>
      <point x="390" y="660" type="qcurve"/>
      <point x="392" y="621"/>
      <point x="445" y="568"/>
      <point x="484" y="568" type="qcurve" smooth="yes"/>
      <point x="523" y="568"/>
      <point x="576" y="621"/>
      <point x="576" y="660" type="qcurve" smooth="yes"/>
      <point x="576" y="701"/>
      <point x="523" y="752"/>
      <point x="484" y="752" type="qcurve" smooth="yes"/>
      <point x="445" y="752"/>
      <point x="392" y="701"/>
    </contour>
    <contour>
      <point x="274" y="844" type="line"/>
      <point x="248" y="584" type="line"/>
      <point x="340" y="570" type="line"/>
      <point x="402" y="816" type="line"/>
    </contour>
  </outline>
</glyph>
<glyph name="Alphatonos" format="2">
  <advance width="667"/>
  <unicode hex="0386"/>
  <outline>
    <contour>
      <point x="-2" y="0" type="line"/>
      <point x="197" y="0" type="line"/>
      <point x="239" y="139" type="line"/>
      <point x="428" y="139" type="line"/>
      <point x="471" y="0" type="line"/>
      <point x="669" y="0" type="line"/>
      <point x="443" y="710" type="line"/>
      <point x="225" y="710" type="line"/>
    </contour>
    <contour>
      <point x="268" y="269" type="line"/>
      <point x="334" y="519" type="line"/>
      <point x="397" y="269" type="line"/>
    </contour>
    <contour>
      <point x="107" y="926" type="line"/>
      <point x="22" y="686" type="line"/>
      <point x="119" y="647" type="line"/>
      <point x="246" y="829" type="line"/>
    </contour>
  </outline>
</glyph>
<glyph name="Epsilontonos" format="2">
  <advance width="714"/>
  <unicode hex="0388"/>
  <outline>
    <contour>
      <point x="373" y="170" type="line"/>
      <point x="373" y="282" type="line"/>
      <point x="631" y="282" type="line"/>
      <point x="631" y="440" type="line"/>
      <point x="373" y="440" type="line"/>
      <point x="373" y="540" type="line"/>
      <point x="675" y="540" type="line"/>
      <point x="675" y="710" type="line"/>
      <point x="178" y="710" type="line"/>
      <point x="178" y="0" type="line"/>
      <point x="684" y="0" type="line"/>
      <point x="684" y="170" type="line"/>
    </contour>
    <contour>
      <point x="150" y="993" type="line"/>
      <point x="65" y="753" type="line"/>
      <point x="162" y="714" type="line"/>
      <point x="289" y="896" type="line"/>
    </contour>
  </outline>
</glyph>
<glyph name="Etatonos" format="2">
  <advance width="879"/>
  <unicode hex="0389"/>
  <outline>
    <contour>
      <point x="611" y="710" type="line"/>
      <point x="611" y="448" type="line"/>
      <point x="373" y="448" type="line"/>
      <point x="373" y="710" type="line"/>
      <point x="178" y="710" type="line"/>
      <point x="178" y="0" type="line"/>
      <point x="373" y="0" type="line"/>
      <point x="373" y="278" type="line"/>
      <point x="611" y="278" type="line"/>
      <point x="611" y="0" type="line"/>
      <point x="806" y="0" type="line"/>
      <point x="806" y="710" type="line"/>
    </contour>
    <contour>
      <point x="65" y="922" type="line"/>
      <point x="-20" y="682" type="line"/>
      <point x="77" y="643" type="line"/>
      <point x="204" y="825" type="line"/>
    </contour>
  </outline>
</glyph>
<glyph name="Iotatonos" format="2">
  <advance width="450"/>
  <unicode hex="038A"/>
  <outline>
    <contour>
      <point x="363" y="0" type="line"/>
      <point x="363" y="710" type="line"/>
      <point x="168" y="710" type="line"/>
      <point x="168" y="0" type="line"/>
    </contour>
    <contour>
      <point x="75" y="917" type="line"/>
      <point x="-10" y="677" type="line"/>
      <point x="87" y="638" type="line"/>
      <point x="214" y="820" type="line"/>
    </contour>
  </outline>
</glyph>
<glyph name="Omicrontonos" format="2">
  <advance width="857"/>
  <unicode hex="038C"/>
  <outline>
    <contour>
      <point x="439" y="-6" type="qcurve" smooth="yes"/>
      <point x="519" y="-6"/>
      <point x="652" y="54"/>
      <point x="748" y="153"/>
      <point x="801" y="282"/>
      <point x="801" y="352" type="qcurve" smooth="yes"/>
      <point x="801" y="420"/>
      <point x="750" y="550"/>
      <point x="656" y="652"/>
      <point x="524" y="714"/>
      <point x="443" y="714" type="qcurve" smooth="yes"/>
      <point x="364" y="714"/>
      <point x="231" y="655"/>
      <point x="134" y="556"/>
      <point x="80" y="427"/>
      <point x="80" y="356" type="qcurve" smooth="yes"/>
      <point x="80" y="287"/>
      <point x="132" y="157"/>
      <point x="226" y="56"/>
      <point x="358" y="-6"/>
    </contour>
    <contour>
      <point x="278" y="354" type="qcurve" smooth="yes"/>
      <point x="278" y="389"/>
      <point x="297" y="456"/>
      <point x="337" y="509"/>
      <point x="398" y="541"/>
      <point x="440" y="541" type="qcurve" smooth="yes"/>
      <point x="481" y="541"/>
      <point x="543" y="510"/>
      <point x="583" y="459"/>
      <point x="603" y="392"/>
      <point x="603" y="356" type="qcurve" smooth="yes"/>
      <point x="603" y="321"/>
      <point x="584" y="253"/>
      <point x="545" y="200"/>
      <point x="483" y="167"/>
      <point x="441" y="167" type="qcurve" smooth="yes"/>
      <point x="399" y="167"/>
      <point x="338" y="199"/>
      <point x="298" y="251"/>
      <point x="278" y="318"/>
    </contour>
    <contour>
      <point x="78" y="917" type="line"/>
      <point x="-7" y="677" type="line"/>
      <point x="90" y="638" type="line"/>
      <point x="217" y="820" type="line"/>
    </contour>
  </outline>
</glyph>
<glyph name="Upsilontonos" format="2">
  <advance width="756"/>
  <unicode hex="038E"/>
  <outline>
    <contour>
      <point x="337" y="0" type="line"/>
      <point x="512" y="0" type="line"/>
      <point x="512" y="224" type="line" smooth="yes"/>
      <point x="512" y="293"/>
      <point x="557" y="407"/>
      <point x="623" y="504"/>
      <point x="701" y="586"/>
      <point x="734" y="623" type="qcurve"/>
      <point x="604" y="716" type="line"/>
      <point x="564" y="678"/>
      <point x="503" y="611"/>
      <point x="460" y="549"/>
      <point x="432" y="489"/>
      <point x="425" y="456" type="qcurve"/>
      <point x="422" y="456" type="line"/>
      <point x="415" y="489"/>
      <point x="388" y="550"/>
      <point x="346" y="612"/>
      <point x="286" y="679"/>
      <point x="245" y="716" type="qcurve"/>
      <point x="115" y="623" type="line"/>
      <point x="149" y="586"/>
      <point x="227" y="504"/>
      <point x="294" y="407"/>
      <point x="338" y="293"/>
      <point x="337" y="224" type="qcurve"/>
    </contour>
    <contour>
      <point x="73" y="917" type="line"/>
      <point x="-12" y="677" type="line"/>
      <point x="85" y="638" type="line"/>
      <point x="212" y="820" type="line"/>
    </contour>
  </outline>
</glyph>
<glyph name="Omegatonos" format="2">
  <advance width="726"/>
  <unicode hex="038F"/>
  <outline>
    <contour>
      <point x="24" y="0" type="line"/>
      <point x="323" y="0" type="line"/>
      <point x="323" y="254" type="line"/>
      <point x="301" y="260"/>
      <point x="263" y="291"/>
      <point x="234" y="334"/>
      <point x="218" y="387"/>
      <point x="218" y="415" type="qcurve" smooth="yes"/>
      <point x="218" y="445"/>
      <point x="240" y="497"/>
      <point x="279" y="534"/>
      <point x="332" y="555"/>
      <point x="362" y="555" type="qcurve" smooth="yes"/>
      <point x="392" y="555"/>
      <point x="443" y="534"/>
      <point x="480" y="496"/>
      <point x="501" y="444"/>
      <point x="501" y="413" type="qcurve" smooth="yes"/>
      <point x="501" y="383"/>
      <point x="485" y="329"/>
      <point x="457" y="287"/>
      <point x="418" y="258"/>
      <point x="395" y="254" type="qcurve"/>
      <point x="395" y="0" type="line"/>
      <point x="696" y="0" type="line"/>
      <point x="696" y="146" type="line"/>
      <point x="441" y="146" type="line"/>
      <point x="509" y="96" type="line"/>
      <point x="509" y="214" type="line"/>
      <point x="460" y="144" type="line"/>
      <point x="506" y="155"/>
      <point x="585" y="205"/>
      <point x="644" y="277"/>
      <point x="678" y="369"/>
      <point x="678" y="421" type="qcurve" smooth="yes"/>
      <point x="678" y="483"/>
      <point x="630" y="591"/>
      <point x="545" y="670"/>
      <point x="429" y="716"/>
      <point x="360" y="716" type="qcurve" smooth="yes"/>
      <point x="291" y="716"/>
      <point x="174" y="669"/>
      <point x="90" y="588"/>
      <point x="43" y="479"/>
      <point x="43" y="417" type="qcurve" smooth="yes"/>
      <point x="43" y="369"/>
      <point x="72" y="280"/>
      <point x="125" y="206"/>
      <point x="199" y="154"/>
      <point x="244" y="142" type="qcurve"/>
      <point x="214" y="214" type="line"/>
      <point x="214" y="96" type="line"/>
      <point x="281" y="146" type="line"/>
      <point x="24" y="146" type="line"/>
    </contour>
    <contour>
      <point x="42" y="917" type="line"/>
      <point x="-43" y="677" type="line"/>
      <point x="54" y="638" type="line"/>
      <point x="181" y="820" type="line"/>
    </contour>
  </outline>
</glyph>
<glyph name="iotadieresistonos" format="2">
  <advance width="434"/>
  <unicode hex="0390"/>
  <outline>
    <contour>
      <point x="255" y="-8" type="qcurve" smooth="yes"/>
      <point x="287" y="-8"/>
      <point x="343" y="3"/>
      <point x="362" y="12" type="qcurve"/>
      <point x="339" y="164" type="line"/>
      <point x="331" y="159"/>
      <point x="303" y="150"/>
      <point x="293" y="150" type="qcurve" smooth="yes"/>
      <point x="280" y="150"/>
      <point x="263" y="176"/>
      <point x="263" y="223" type="qcurve" smooth="yes"/>
      <point x="263" y="245"/>
      <point x="266" y="320"/>
      <point x="271" y="404"/>
      <point x="276" y="489"/>
      <point x="277" y="522" type="qcurve"/>
      <point x="109" y="522" type="line"/>
      <point x="109" y="470"/>
      <point x="108" y="381"/>
      <point x="108" y="298"/>
      <point x="107" y="217"/>
      <point x="107" y="174" type="qcurve" smooth="yes"/>
      <point x="107" y="129"/>
      <point x="127" y="61"/>
      <point x="165" y="15"/>
      <point x="220" y="-8"/>
    </contour>
    <contour>
      <point x="-72" y="672" type="qcurve" smooth="yes"/>
      <point x="-72" y="634"/>
      <point x="-20" y="581"/>
      <point x="19" y="581" type="qcurve" smooth="yes"/>
      <point x="59" y="581"/>
      <point x="110" y="634"/>
      <point x="110" y="672" type="qcurve" smooth="yes"/>
      <point x="110" y="713"/>
      <point x="59" y="764"/>
      <point x="19" y="764" type="qcurve" smooth="yes"/>
      <point x="-20" y="764"/>
      <point x="-72" y="713"/>
    </contour>
    <contour>
      <point x="273" y="672" type="qcurve"/>
      <point x="274" y="634"/>
      <point x="327" y="581"/>
      <point x="366" y="581" type="qcurve" smooth="yes"/>
      <point x="405" y="581"/>
      <point x="457" y="634"/>
      <point x="457" y="672" type="qcurve" smooth="yes"/>
      <point x="457" y="713"/>
      <point x="405" y="764"/>
      <point x="366" y="764" type="qcurve" smooth="yes"/>
      <point x="327" y="764"/>
      <point x="274" y="713"/>
    </contour>
    <contour>
      <point x="158" y="855" type="line"/>
      <point x="132" y="597" type="line"/>
      <point x="223" y="583" type="line"/>
      <point x="285" y="827" type="line"/>
    </contour>
  </outline>
</glyph>
<glyph name="Gamma" format="2">
  <advance width="506"/>
  <unicode hex="0393"/>
  <outline>
    <contour>
      <point x="568" y="708" type="line"/>
      <point x="568" y="541" type="line"/>
      <point x="252" y="541" type="line"/>
      <point x="252" y="10" type="line"/>
      <point x="60" y="10" type="line"/>
      <point x="60" y="708" type="line"/>
    </contour>
  </outline>
</glyph>
<glyph name="uni0394" format="2">
  <advance width="674"/>
  <unicode hex="0394"/>
  <outline>
    <contour>
      <point x="4" y="0" type="line"/>
      <point x="670" y="0" type="line"/>
      <point x="670" y="24" type="line"/>
      <point x="452" y="708" type="line"/>
      <point x="222" y="708" type="line"/>
      <point x="4" y="24" type="line"/>
    </contour>
    <contour>
      <point x="210" y="146" type="line"/>
      <point x="276" y="350" type="line"/>
      <point x="336" y="568" type="line"/>
      <point x="340" y="568" type="line"/>
      <point x="400" y="350" type="line"/>
      <point x="462" y="146" type="line"/>
    </contour>
  </outline>
</glyph>
<glyph name="Theta" format="2">
  <advance width="765"/>
  <unicode hex="0398"/>
  <outline>
    <contour>
      <point x="277" y="276" type="line"/>
      <point x="479" y="276" type="line"/>
      <point x="479" y="436" type="line"/>
      <point x="277" y="436" type="line"/>
    </contour>
    <contour>
      <point x="375" y="-6" type="qcurve" smooth="yes"/>
      <point x="453" y="-6"/>
      <point x="584" y="53"/>
      <point x="678" y="150"/>
      <point x="731" y="278"/>
      <point x="731" y="346" type="qcurve" smooth="yes"/>
      <point x="731" y="413"/>
      <point x="680" y="541"/>
      <point x="588" y="641"/>
      <point x="458" y="702"/>
      <point x="379" y="702" type="qcurve" smooth="yes"/>
      <point x="301" y="702"/>
      <point x="170" y="644"/>
      <point x="75" y="547"/>
      <point x="22" y="419"/>
      <point x="22" y="350" type="qcurve" smooth="yes"/>
      <point x="22" y="283"/>
      <point x="72" y="154"/>
      <point x="165" y="55"/>
      <point x="295" y="-6"/>
    </contour>
    <contour>
      <point x="216" y="348" type="qcurve" smooth="yes"/>
      <point x="216" y="382"/>
      <point x="235" y="448"/>
      <point x="274" y="500"/>
      <point x="334" y="532"/>
      <point x="376" y="532" type="qcurve" smooth="yes"/>
      <point x="416" y="532"/>
      <point x="476" y="502"/>
      <point x="516" y="451"/>
      <point x="536" y="385"/>
      <point x="536" y="350" type="qcurve" smooth="yes"/>
      <point x="536" y="316"/>
      <point x="517" y="249"/>
      <point x="478" y="197"/>
      <point x="418" y="164"/>
      <point x="377" y="164" type="qcurve" smooth="yes"/>
      <point x="336" y="164"/>
      <point x="275" y="195"/>
      <point x="236" y="247"/>
      <point x="216" y="313"/>
    </contour>
  </outline>
</glyph>
<glyph name="Lambda" format="2">
  <advance width="698"/>
  <unicode hex="039B"/>
  <outline>
    <contour>
      <point x="4" y="0" type="line"/>
      <point x="180" y="0" type="line"/>
      <point x="290" y="352" type="line"/>
      <point x="348" y="548" type="line"/>
      <point x="352" y="548" type="line"/>
      <point x="410" y="350" type="line"/>
      <point x="516" y="0" type="line"/>
      <point x="694" y="0" type="line"/>
      <point x="464" y="708" type="line"/>
      <point x="234" y="708" type="line"/>
    </contour>
  </outline>
</glyph>
<glyph name="Xi" format="2">
  <advance width="666"/>
  <unicode hex="039E"/>
  <outline>
    <contour>
      <point x="59" y="0" type="line"/>
      <point x="608" y="0" type="line"/>
      <point x="608" y="146" type="line"/>
      <point x="59" y="146" type="line"/>
    </contour>
    <contour>
      <point x="134" y="278" type="line"/>
      <point x="532" y="278" type="line"/>
      <point x="532" y="422" type="line"/>
      <point x="134" y="422" type="line"/>
    </contour>
    <contour>
      <point x="59" y="558" type="line"/>
      <point x="608" y="558" type="line"/>
      <point x="608" y="704" type="line"/>
      <point x="59" y="704" type="line"/>
    </contour>
  </outline>
</glyph>
<glyph name="Pi" format="2">
  <advance width="680"/>
  <unicode hex="03A0"/>
  <outline>
    <contour>
      <point x="66" y="0" type="line"/>
      <point x="240" y="0" type="line"/>
      <point x="240" y="558" type="line"/>
      <point x="440" y="558" type="line"/>
      <point x="440" y="0" type="line"/>
      <point x="614" y="0" type="line"/>
      <point x="614" y="704" type="line"/>
      <point x="66" y="704" type="line"/>
    </contour>
  </outline>
</glyph>
<glyph name="Upsilon" format="2">
  <advance width="650"/>
  <unicode hex="03A5"/>
  <outline>
    <contour>
      <point x="238" y="0" type="line"/>
      <point x="413" y="0" type="line"/>
      <point x="413" y="224" type="line" smooth="yes"/>
      <point x="413" y="293"/>
      <point x="458" y="407"/>
      <point x="524" y="504"/>
      <point x="602" y="586"/>
      <point x="635" y="623" type="qcurve"/>
      <point x="505" y="716" type="line"/>
      <point x="465" y="678"/>
      <point x="404" y="611"/>
      <point x="361" y="549"/>
      <point x="333" y="489"/>
      <point x="326" y="456" type="qcurve"/>
      <point x="323" y="456" type="line"/>
      <point x="316" y="489"/>
      <point x="289" y="550"/>
      <point x="247" y="612"/>
      <point x="187" y="679"/>
      <point x="146" y="716" type="qcurve"/>
      <point x="16" y="623" type="line"/>
      <point x="50" y="586"/>
      <point x="128" y="504"/>
      <point x="195" y="407"/>
      <point x="239" y="293"/>
      <point x="238" y="224" type="qcurve"/>
    </contour>
  </outline>
</glyph>
<glyph name="Phi" format="2">
  <advance width="778"/>
  <unicode hex="03A6"/>
  <outline>
    <contour>
      <point x="360" y="208" type="line"/>
      <point x="325" y="208"/>
      <point x="267" y="229"/>
      <point x="226" y="268"/>
      <point x="203" y="321"/>
      <point x="203" y="354" type="qcurve" smooth="yes"/>
      <point x="203" y="387"/>
      <point x="226" y="441"/>
      <point x="267" y="479"/>
      <point x="325" y="500"/>
      <point x="360" y="500" type="qcurve"/>
      <point x="360" y="641" type="line"/>
      <point x="288" y="641"/>
      <point x="170" y="600"/>
      <point x="86" y="525"/>
      <point x="41" y="419"/>
      <point x="41" y="354" type="qcurve" smooth="yes"/>
      <point x="41" y="289"/>
      <point x="86" y="183"/>
      <point x="170" y="108"/>
      <point x="288" y="67"/>
      <point x="360" y="67" type="qcurve"/>
    </contour>
    <contour>
      <point x="470" y="-33" type="line"/>
      <point x="470" y="737" type="line"/>
      <point x="309" y="737" type="line"/>
      <point x="309" y="-33" type="line"/>
    </contour>
    <contour>
      <point x="423" y="67" type="line"/>
      <point x="495" y="67"/>
      <point x="612" y="108"/>
      <point x="693" y="183"/>
      <point x="737" y="289"/>
      <point x="737" y="354" type="qcurve" smooth="yes"/>
      <point x="737" y="419"/>
      <point x="693" y="525"/>
      <point x="612" y="600"/>
      <point x="495" y="641"/>
      <point x="423" y="641" type="qcurve"/>
      <point x="423" y="500" type="line"/>
      <point x="458" y="500"/>
      <point x="514" y="479"/>
      <point x="554" y="441"/>
      <point x="576" y="387"/>
      <point x="576" y="354" type="qcurve" smooth="yes"/>
      <point x="576" y="321"/>
      <point x="554" y="268"/>
      <point x="514" y="229"/>
      <point x="458" y="208"/>
      <point x="423" y="208" type="qcurve"/>
    </contour>
  </outline>
</glyph>
<glyph name="Psi" format="2">
  <advance width="830"/>
  <unicode hex="03A8"/>
  <outline>
    <contour>
      <point x="334" y="0" type="line"/>
      <point x="496" y="0" type="line"/>
      <point x="496" y="708" type="line"/>
      <point x="334" y="708" type="line"/>
    </contour>
    <contour>
      <point x="74" y="444" type="line" smooth="yes"/>
      <point x="74" y="389"/>
      <point x="103" y="291"/>
      <point x="172" y="217"/>
      <point x="285" y="173"/>
      <point x="368" y="172" type="qcurve"/>
      <point x="358" y="306" type="line"/>
      <point x="319" y="306"/>
      <point x="271" y="328"/>
      <point x="245" y="363"/>
      <point x="236" y="408"/>
      <point x="236" y="430" type="qcurve" smooth="yes"/>
      <point x="236" y="447"/>
      <point x="237" y="482"/>
      <point x="238" y="518"/>
      <point x="239" y="554"/>
      <point x="238" y="570" type="qcurve"/>
      <point x="240" y="609"/>
      <point x="237" y="687"/>
      <point x="226" y="708" type="qcurve"/>
      <point x="60" y="708" type="line"/>
      <point x="66" y="683"/>
      <point x="72" y="633"/>
      <point x="74" y="587"/>
      <point x="74" y="547"/>
      <point x="74" y="532" type="qcurve" smooth="yes"/>
    </contour>
    <contour>
      <point x="754" y="532" type="line"/>
      <point x="755" y="550"/>
      <point x="755" y="591"/>
      <point x="758" y="636"/>
      <point x="763" y="683"/>
      <point x="768" y="708" type="qcurve"/>
      <point x="602" y="708" type="line"/>
      <point x="593" y="687"/>
      <point x="590" y="608"/>
      <point x="590" y="570" type="qcurve" smooth="yes"/>
      <point x="590" y="554"/>
      <point x="591" y="518"/>
      <point x="591" y="482"/>
      <point x="592" y="447"/>
      <point x="592" y="430" type="qcurve" smooth="yes"/>
      <point x="592" y="408"/>
      <point x="584" y="364"/>
      <point x="558" y="328"/>
      <point x="511" y="306"/>
      <point x="472" y="306" type="qcurve"/>
      <point x="462" y="172" type="line"/>
      <point x="545" y="173"/>
      <point x="658" y="217"/>
      <point x="726" y="292"/>
      <point x="755" y="390"/>
      <point x="754" y="444" type="qcurve"/>
    </contour>
  </outline>
</glyph>
<glyph name="Iotadieresis" format="2">
  <advance width="372"/>
  <unicode hex="03AA"/>
  <outline>
    <contour>
      <point x="252" y="0" type="line"/>
      <point x="252" y="698" type="line"/>
      <point x="60" y="698" type="line"/>
      <point x="60" y="0" type="line"/>
    </contour>
    <contour>
      <point x="12" y="821" type="qcurve" smooth="yes"/>
      <point x="12" y="782"/>
      <point x="49" y="729"/>
      <point x="77" y="729" type="qcurve" smooth="yes"/>
      <point x="103" y="729"/>
      <point x="141" y="782"/>
      <point x="141" y="821" type="qcurve" smooth="yes"/>
      <point x="141" y="860"/>
      <point x="103" y="913"/>
      <point x="77" y="913" type="qcurve" smooth="yes"/>
      <point x="49" y="913"/>
      <point x="12" y="860"/>
    </contour>
    <contour>
      <point x="171" y="821" type="qcurve" smooth="yes"/>
      <point x="171" y="782"/>
      <point x="208" y="729"/>
      <point x="235" y="729" type="qcurve" smooth="yes"/>
      <point x="262" y="729"/>
      <point x="300" y="782"/>
      <point x="300" y="821" type="qcurve" smooth="yes"/>
      <point x="300" y="860"/>
      <point x="262" y="913"/>
      <point x="235" y="913" type="qcurve" smooth="yes"/>
      <point x="208" y="913"/>
      <point x="171" y="860"/>
    </contour>
  </outline>
</glyph>
<glyph name="epsilontonos" format="2">
  <advance width="524"/>
  <unicode hex="03AD"/>
  <outline>
    <contour>
      <point x="448" y="167" type="line"/>
      <point x="418" y="159"/>
      <point x="333" y="139"/>
      <point x="291" y="139" type="qcurve" smooth="yes"/>
      <point x="247" y="139"/>
      <point x="195" y="162"/>
      <point x="195" y="177" type="qcurve" smooth="yes"/>
      <point x="195" y="185"/>
      <point x="210" y="196"/>
      <point x="236" y="205"/>
      <point x="269" y="209"/>
      <point x="287" y="209" type="qcurve" smooth="yes"/>
      <point x="329" y="209" type="line"/>
      <point x="329" y="315" type="line"/>
      <point x="295" y="315" type="line"/>
      <point x="278" y="316"/>
      <point x="247" y="323"/>
      <point x="223" y="333"/>
      <point x="209" y="345"/>
      <point x="209" y="351" type="qcurve" smooth="yes"/>
      <point x="209" y="357"/>
      <point x="222" y="368"/>
      <point x="246" y="376"/>
      <point x="283" y="381"/>
      <point x="307" y="381" type="qcurve" smooth="yes"/>
      <point x="326" y="381"/>
      <point x="362" y="377"/>
      <point x="394" y="371"/>
      <point x="423" y="362"/>
      <point x="434" y="357" type="qcurve"/>
      <point x="478" y="506" type="line"/>
      <point x="457" y="516"/>
      <point x="414" y="529"/>
      <point x="371" y="535"/>
      <point x="331" y="536"/>
      <point x="313" y="534" type="qcurve"/>
      <point x="254" y="536"/>
      <point x="161" y="515"/>
      <point x="96" y="474"/>
      <point x="62" y="416"/>
      <point x="62" y="381" type="qcurve" smooth="yes"/>
      <point x="62" y="362"/>
      <point x="73" y="326"/>
      <point x="93" y="296"/>
      <point x="121" y="275"/>
      <point x="139" y="271" type="qcurve"/>
      <point x="139" y="273" type="line"/>
      <point x="117" y="267"/>
      <point x="81" y="241"/>
      <point x="56" y="207"/>
      <point x="42" y="167"/>
      <point x="42" y="147" type="qcurve" smooth="yes"/>
      <point x="42" y="112"/>
      <point x="81" y="53"/>
      <point x="148" y="10"/>
      <point x="241" y="-14"/>
      <point x="295" y="-14" type="qcurve" smooth="yes"/>
      <point x="320" y="-14"/>
      <point x="372" y="-10"/>
      <point x="422" y="-2"/>
      <point x="470" y="8"/>
      <point x="490" y="14" type="qcurve"/>
    </contour>
    <contour>
      <point x="267" y="888" type="line"/>
      <point x="241" y="628" type="line"/>
      <point x="333" y="614" type="line"/>
      <point x="395" y="860" type="line"/>
    </contour>
  </outline>
</glyph>
<glyph name="etatonos" format="2">
  <advance width="650"/>
  <unicode hex="03AE"/>
  <outline>
    <contour>
      <point x="231" y="0" type="line"/>
      <point x="242" y="96"/>
      <point x="257" y="252"/>
      <point x="255" y="331" type="qcurve"/>
      <point x="256" y="373"/>
      <point x="240" y="439"/>
      <point x="207" y="488"/>
      <point x="157" y="523"/>
      <point x="124" y="534" type="qcurve"/>
      <point x="42" y="394" type="line"/>
      <point x="59" y="387"/>
      <point x="80" y="362"/>
      <point x="92" y="326"/>
      <point x="97" y="278"/>
      <point x="96" y="249" type="qcurve"/>
      <point x="98" y="193"/>
      <point x="83" y="65"/>
      <point x="74" y="0" type="qcurve"/>
    </contour>
    <contour>
      <point x="548" y="-205" type="line"/>
      <point x="558" y="-152"/>
      <point x="574" y="-25"/>
      <point x="586" y="103"/>
      <point x="592" y="222"/>
      <point x="592" y="267" type="qcurve" smooth="yes"/>
      <point x="592" y="409"/>
      <point x="515" y="534"/>
      <point x="428" y="534" type="qcurve" smooth="yes"/>
      <point x="399" y="534"/>
      <point x="345" y="514"/>
      <point x="297" y="475"/>
      <point x="254" y="418"/>
      <point x="237" y="381" type="qcurve"/>
      <point x="251" y="255" type="line"/>
      <point x="256" y="277"/>
      <point x="281" y="318"/>
      <point x="313" y="350"/>
      <point x="350" y="369"/>
      <point x="367" y="369" type="qcurve" smooth="yes"/>
      <point x="404" y="369"/>
      <point x="436" y="304"/>
      <point x="436" y="221" type="qcurve" smooth="yes"/>
      <point x="436" y="188"/>
      <point x="431" y="108"/>
      <point x="419" y="7"/>
      <point x="400" y="-119"/>
      <point x="387" y="-197" type="qcurve"/>
    </contour>
    <contour>
      <point x="333" y="840" type="line"/>
      <point x="307" y="580" type="line"/>
      <point x="399" y="566" type="line"/>
      <point x="461" y="812" type="line"/>
    </contour>
  </outline>
</glyph>
<glyph name="iotatonos" format="2">
  <advance width="354"/>
  <unicode hex="03AF"/>
  <outline>
    <contour>
      <point x="211" y="-8" type="qcurve" smooth="yes"/>
      <point x="243" y="-8"/>
      <point x="299" y="3"/>
      <point x="319" y="12" type="qcurve"/>
      <point x="295" y="165" type="line"/>
      <point x="287" y="160"/>
      <point x="260" y="151"/>
      <point x="249" y="151" type="qcurve" smooth="yes"/>
      <point x="236" y="151"/>
      <point x="219" y="177"/>
      <point x="219" y="225" type="qcurve" smooth="yes"/>
      <point x="219" y="248"/>
      <point x="222" y="322"/>
      <point x="227" y="408"/>
      <point x="232" y="493"/>
      <point x="233" y="526" type="qcurve"/>
      <point x="64" y="526" type="line"/>
      <point x="63" y="474"/>
      <point x="62" y="384"/>
      <point x="62" y="301"/>
      <point x="62" y="219"/>
      <point x="62" y="175" type="qcurve" smooth="yes"/>
      <point x="62" y="130"/>
      <point x="82" y="61"/>
      <point x="120" y="15"/>
      <point x="175" y="-8"/>
    </contour>
    <contour>
      <point x="127" y="860" type="line"/>
      <point x="101" y="600" type="line"/>
      <point x="193" y="586" type="line"/>
      <point x="255" y="832" type="line"/>
    </contour>
  </outline>
</glyph>
<glyph name="upsilondieresistonos" format="2">
  <advance width="610"/>
  <unicode hex="03B0"/>
  <outline>
    <contour>
      <point x="68" y="193" type="qcurve" smooth="yes"/>
      <point x="68" y="145"/>
      <point x="100" y="71"/>
      <point x="160" y="19"/>
      <point x="246" y="-8"/>
      <point x="299" y="-8" type="qcurve" smooth="yes"/>
      <point x="363" y="-8"/>
      <point x="461" y="32"/>
      <point x="527" y="109"/>
      <point x="560" y="220"/>
      <point x="560" y="291" type="qcurve" smooth="yes"/>
      <point x="560" y="323"/>
      <point x="560" y="389"/>
      <point x="557" y="452"/>
      <point x="553" y="507"/>
      <point x="548" y="526" type="qcurve"/>
      <point x="385" y="526" type="line"/>
      <point x="390" y="490"/>
      <point x="395" y="426"/>
      <point x="397" y="368"/>
      <point x="397" y="316"/>
      <point x="396" y="293" type="qcurve"/>
      <point x="398" y="212"/>
      <point x="348" y="147"/>
      <point x="295" y="147" type="qcurve" smooth="yes"/>
      <point x="278" y="147"/>
      <point x="252" y="154"/>
      <point x="235" y="171"/>
      <point x="227" y="199"/>
      <point x="227" y="219" type="qcurve" smooth="yes"/>
      <point x="227" y="228"/>
      <point x="228" y="249"/>
      <point x="230" y="278"/>
      <point x="231" y="317"/>
      <point x="231" y="343" type="qcurve" smooth="yes"/>
      <point x="231" y="384"/>
      <point x="228" y="440"/>
      <point x="222" y="481"/>
      <point x="214" y="511"/>
      <point x="209" y="526" type="qcurve"/>
      <point x="50" y="526" type="line"/>
      <point x="55" y="508"/>
      <point x="74" y="428"/>
      <point x="74" y="349" type="qcurve" smooth="yes"/>
      <point x="74" y="326"/>
      <point x="72" y="280"/>
      <point x="70" y="239"/>
      <point x="68" y="205"/>
    </contour>
    <contour>
      <point x="23" y="658" type="qcurve" smooth="yes"/>
      <point x="23" y="619"/>
      <point x="76" y="566"/>
      <point x="115" y="566" type="qcurve" smooth="yes"/>
      <point x="156" y="566"/>
      <point x="207" y="619"/>
      <point x="207" y="658" type="qcurve" smooth="yes"/>
      <point x="207" y="699"/>
      <point x="156" y="750"/>
      <point x="115" y="750" type="qcurve" smooth="yes"/>
      <point x="76" y="750"/>
      <point x="23" y="699"/>
    </contour>
    <contour>
      <point x="371" y="658" type="qcurve"/>
      <point x="373" y="619"/>
      <point x="426" y="566"/>
      <point x="465" y="566" type="qcurve" smooth="yes"/>
      <point x="504" y="566"/>
      <point x="557" y="619"/>
      <point x="557" y="658" type="qcurve" smooth="yes"/>
      <point x="557" y="699"/>
      <point x="504" y="750"/>
      <point x="465" y="750" type="qcurve" smooth="yes"/>
      <point x="426" y="750"/>
      <point x="373" y="699"/>
    </contour>
    <contour>
      <point x="255" y="842" type="line"/>
      <point x="229" y="582" type="line"/>
      <point x="321" y="568" type="line"/>
      <point x="383" y="814" type="line"/>
    </contour>
  </outline>
</glyph>
<glyph name="alpha" format="2">
  <advance width="659"/>
  <unicode hex="03B1"/>
  <outline>
    <contour>
      <point x="379" y="247" type="line" smooth="yes"/>
      <point x="373" y="229"/>
      <point x="358" y="192"/>
      <point x="334" y="162"/>
      <point x="301" y="143"/>
      <point x="277" y="143" type="qcurve" smooth="yes"/>
      <point x="255" y="143"/>
      <point x="219" y="161"/>
      <point x="193" y="192"/>
      <point x="178" y="236"/>
      <point x="177" y="261" type="qcurve"/>
      <point x="178" y="287"/>
      <point x="194" y="331"/>
      <point x="221" y="363"/>
      <point x="256" y="381"/>
      <point x="275" y="381" type="qcurve" smooth="yes"/>
      <point x="288" y="381"/>
      <point x="312" y="374"/>
      <point x="335" y="360"/>
      <point x="356" y="337"/>
      <point x="373" y="305"/>
      <point x="386" y="263"/>
      <point x="389" y="237" type="qcurve"/>
      <point x="450" y="341" type="line"/>
      <point x="440" y="396"/>
      <point x="396" y="470"/>
      <point x="341" y="515"/>
      <point x="278" y="534"/>
      <point x="249" y="534" type="qcurve" smooth="yes"/>
      <point x="204" y="534"/>
      <point x="125" y="492"/>
      <point x="67" y="417"/>
      <point x="33" y="316"/>
      <point x="32" y="257" type="qcurve"/>
      <point x="33" y="200"/>
      <point x="68" y="102"/>
      <point x="130" y="32"/>
      <point x="214" y="-8"/>
      <point x="263" y="-8" type="qcurve" smooth="yes"/>
      <point x="307" y="-8"/>
      <point x="381" y="22"/>
      <point x="442" y="74"/>
      <point x="487" y="144"/>
      <point x="500" y="183" type="qcurve" smooth="yes"/>
      <point x="618" y="526" type="line"/>
      <point x="472" y="526" type="line"/>
    </contour>
    <contour>
      <point x="636" y="130" type="line"/>
      <point x="616" y="137" type="line"/>
      <point x="606" y="142"/>
      <point x="581" y="153"/>
      <point x="553" y="174"/>
      <point x="523" y="209"/>
      <point x="508" y="237" type="qcurve"/>
      <point x="430" y="128" type="line"/>
      <point x="435" y="94"/>
      <point x="455" y="47"/>
      <point x="483" y="16"/>
      <point x="519" y="-2"/>
      <point x="538" y="-8" type="qcurve"/>
      <point x="552" y="-8" type="line"/>
    </contour>
  </outline>
</glyph>
<glyph name="beta" format="2">
  <advance width="697"/>
  <unicode hex="03B2"/>
  <outline>
    <contour>
      <point x="211" y="26" type="line"/>
      <point x="225" y="18"/>
      <point x="267" y="5"/>
      <point x="315" y="-4"/>
      <point x="366" y="-8"/>
      <point x="389" y="-8" type="qcurve" smooth="yes"/>
      <point x="446" y="-8"/>
      <point x="541" y="30"/>
      <point x="609" y="94"/>
      <point x="646" y="176"/>
      <point x="646" y="221" type="qcurve" smooth="yes"/>
      <point x="646" y="253"/>
      <point x="629" y="310"/>
      <point x="593" y="358"/>
      <point x="538" y="392"/>
      <point x="500" y="400" type="qcurve"/>
      <point x="500" y="404" type="line"/>
      <point x="522" y="416"/>
      <point x="554" y="455"/>
      <point x="575" y="502"/>
      <point x="586" y="555"/>
      <point x="586" y="580" type="qcurve" smooth="yes"/>
      <point x="586" y="619"/>
      <point x="549" y="686"/>
      <point x="486" y="735"/>
      <point x="402" y="762"/>
      <point x="355" y="761" type="qcurve"/>
      <point x="294" y="762"/>
      <point x="192" y="716"/>
      <point x="118" y="634"/>
      <point x="76" y="522"/>
      <point x="76" y="456" type="qcurve" smooth="yes"/>
      <point x="76" y="-205" type="line"/>
      <point x="247" y="-205" type="line"/>
      <point x="241" y="-100"/>
      <point x="227" y="11"/>
      <point x="219" y="32" type="qcurve"/>
      <point x="221" y="159" type="line"/>
      <point x="225" y="203"/>
      <point x="229" y="269"/>
      <point x="231" y="335"/>
      <point x="231" y="413"/>
      <point x="231" y="470" type="qcurve" smooth="yes"/>
      <point x="231" y="502"/>
      <point x="249" y="555"/>
      <point x="279" y="594"/>
      <point x="321" y="615"/>
      <point x="345" y="614" type="qcurve"/>
      <point x="363" y="615"/>
      <point x="395" y="603"/>
      <point x="417" y="582"/>
      <point x="430" y="552"/>
      <point x="430" y="534" type="qcurve" smooth="yes"/>
      <point x="430" y="515"/>
      <point x="412" y="483"/>
      <point x="380" y="459"/>
      <point x="340" y="444"/>
      <point x="317" y="442" type="qcurve"/>
      <point x="317" y="329" type="line"/>
      <point x="320" y="330"/>
      <point x="332" y="331"/>
      <point x="346" y="332"/>
      <point x="361" y="332"/>
      <point x="367" y="331" type="qcurve"/>
      <point x="395" y="332"/>
      <point x="444" y="318"/>
      <point x="480" y="292"/>
      <point x="500" y="256"/>
      <point x="500" y="235" type="qcurve" smooth="yes"/>
      <point x="500" y="215"/>
      <point x="480" y="179"/>
      <point x="444" y="152"/>
      <point x="395" y="137"/>
      <point x="367" y="137" type="qcurve" smooth="yes"/>
      <point x="350" y="137"/>
      <point x="308" y="143"/>
      <point x="266" y="155"/>
      <point x="224" y="171"/>
      <point x="207" y="181" type="qcurve"/>
    </contour>
  </outline>
</glyph>
<glyph name="gamma" format="2">
  <advance width="650"/>
  <unicode hex="03B3"/>
  <outline>
    <contour>
      <point x="398" y="-205" type="line"/>
      <point x="400" y="-97"/>
      <point x="390" y="130"/>
      <point x="341" y="335"/>
      <point x="244" y="502"/>
      <point x="159" y="550" type="qcurve"/>
      <point x="66" y="410" type="line"/>
      <point x="103" y="392"/>
      <point x="158" y="315"/>
      <point x="196" y="214"/>
      <point x="220" y="93"/>
      <point x="234" y="-31"/>
      <point x="239" y="-153"/>
      <point x="239" y="-205" type="qcurve"/>
    </contour>
    <contour>
      <point x="383" y="-4" type="line"/>
      <point x="443" y="73"/>
      <point x="523" y="202"/>
      <point x="577" y="326"/>
      <point x="613" y="452"/>
      <point x="630" y="526" type="qcurve"/>
      <point x="454" y="526" type="line"/>
      <point x="449" y="474"/>
      <point x="430" y="374"/>
      <point x="403" y="286"/>
      <point x="367" y="211"/>
      <point x="343" y="183" type="qcurve"/>
    </contour>
  </outline>
</glyph>
<glyph name="delta" format="2">
  <advance width="604"/>
  <unicode hex="03B4"/>
  <outline>
    <contour>
      <point x="305" y="-8" type="qcurve" smooth="yes"/>
      <point x="359" y="-8"/>
      <point x="453" y="28"/>
      <point x="523" y="96"/>
      <point x="563" y="194"/>
      <point x="564" y="255" type="qcurve"/>
      <point x="563" y="311"/>
      <point x="530" y="394"/>
      <point x="482" y="454"/>
      <point x="425" y="495"/>
      <point x="400" y="508" type="qcurve"/>
      <point x="379" y="521"/>
      <point x="331" y="546"/>
      <point x="292" y="570"/>
      <point x="266" y="594"/>
      <point x="267" y="606" type="qcurve"/>
      <point x="265" y="618"/>
      <point x="291" y="632"/>
      <point x="317" y="632" type="qcurve" smooth="yes"/>
      <point x="340" y="632"/>
      <point x="389" y="620"/>
      <point x="439" y="598"/>
      <point x="489" y="567"/>
      <point x="514" y="548" type="qcurve"/>
      <point x="580" y="665" type="line"/>
      <point x="558" y="682"/>
      <point x="500" y="717"/>
      <point x="431" y="744"/>
      <point x="352" y="760"/>
      <point x="307" y="759" type="qcurve"/>
      <point x="212" y="761"/>
      <point x="106" y="685"/>
      <point x="106" y="618" type="qcurve" smooth="yes"/>
      <point x="106" y="581"/>
      <point x="138" y="525"/>
      <point x="189" y="481"/>
      <point x="254" y="444"/>
      <point x="287" y="424" type="qcurve" smooth="yes"/>
      <point x="316" y="406"/>
      <point x="365" y="372"/>
      <point x="399" y="335"/>
      <point x="419" y="291"/>
      <point x="420" y="263" type="qcurve"/>
      <point x="419" y="233"/>
      <point x="398" y="188"/>
      <point x="364" y="158"/>
      <point x="322" y="143"/>
      <point x="299" y="143" type="qcurve" smooth="yes"/>
      <point x="275" y="143"/>
      <point x="231" y="160"/>
      <point x="197" y="190"/>
      <point x="177" y="232"/>
      <point x="177" y="257" type="qcurve" smooth="yes"/>
      <point x="177" y="283"/>
      <point x="197" y="330"/>
      <point x="232" y="365"/>
      <point x="281" y="385"/>
      <point x="309" y="385" type="qcurve" smooth="yes"/>
      <point x="330" y="385"/>
      <point x="381" y="373"/>
      <point x="394" y="359" type="qcurve"/>
      <point x="323" y="486" type="line"/>
      <point x="315" y="489"/>
      <point x="273" y="496"/>
      <point x="249" y="496" type="qcurve" smooth="yes"/>
      <point x="199" y="496"/>
      <point x="119" y="456"/>
      <point x="62" y="389"/>
      <point x="32" y="303"/>
      <point x="32" y="257" type="qcurve" smooth="yes"/>
      <point x="32" y="206"/>
      <point x="72" y="110"/>
      <point x="144" y="36"/>
      <point x="244" y="-8"/>
    </contour>
  </outline>
</glyph>
<glyph name="zeta" format="2">
  <advance width="556"/>
  <unicode hex="03B6"/>
  <outline>
    <contour>
      <point x="335" y="-217" type="qcurve" smooth="yes"/>
      <point x="378" y="-217"/>
      <point x="454" y="-186"/>
      <point x="511" y="-131"/>
      <point x="543" y="-54"/>
      <point x="542" y="-8" type="qcurve"/>
      <point x="543" y="26"/>
      <point x="522" y="82"/>
      <point x="484" y="123"/>
      <point x="432" y="145"/>
      <point x="402" y="145" type="qcurve" smooth="yes"/>
      <point x="385" y="145"/>
      <point x="340" y="139"/>
      <point x="311" y="139" type="qcurve" smooth="yes"/>
      <point x="297" y="139"/>
      <point x="258" y="143"/>
      <point x="223" y="158"/>
      <point x="199" y="189"/>
      <point x="199" y="215" type="qcurve" smooth="yes"/>
      <point x="199" y="244"/>
      <point x="229" y="316"/>
      <point x="278" y="393"/>
      <point x="342" y="471"/>
      <point x="410" y="539"/>
      <point x="478" y="594"/>
      <point x="506" y="610" type="qcurve"/>
      <point x="502" y="717" type="line"/>
      <point x="329" y="717" type="line" smooth="yes"/>
      <point x="322" y="717"/>
      <point x="299" y="718"/>
      <point x="278" y="725"/>
      <point x="263" y="740"/>
      <point x="263" y="753" type="qcurve" smooth="yes"/>
      <point x="263" y="762"/>
      <point x="269" y="790"/>
      <point x="275" y="801" type="qcurve"/>
      <point x="143" y="851" type="line"/>
      <point x="126" y="819"/>
      <point x="110" y="772"/>
      <point x="108" y="745" type="qcurve"/>
      <point x="110" y="676"/>
      <point x="217" y="604"/>
      <point x="305" y="604" type="qcurve" smooth="yes"/>
      <point x="367" y="604" type="line"/>
      <point x="319" y="655" type="line"/>
      <point x="264" y="609"/>
      <point x="164" y="500"/>
      <point x="88" y="382"/>
      <point x="44" y="259"/>
      <point x="44" y="199" type="qcurve" smooth="yes"/>
      <point x="44" y="141"/>
      <point x="85" y="62"/>
      <point x="149" y="13"/>
      <point x="228" y="-8"/>
      <point x="265" y="-8" type="qcurve" smooth="yes"/>
      <point x="279" y="-8"/>
      <point x="312" y="-7"/>
      <point x="344" y="-5"/>
      <point x="370" y="-4"/>
      <point x="375" y="-4" type="qcurve" smooth="yes"/>
      <point x="389" y="-4"/>
      <point x="404" y="-19"/>
      <point x="402" y="-30" type="qcurve"/>
      <point x="403" y="-41"/>
      <point x="389" y="-58"/>
      <point x="364" y="-71"/>
      <point x="326" y="-78"/>
      <point x="303" y="-78" type="qcurve" smooth="yes"/>
      <point x="282" y="-78"/>
      <point x="250" y="-74"/>
      <point x="239" y="-74" type="qcurve"/>
      <point x="239" y="-207" type="line"/>
      <point x="274" y="-213"/>
      <point x="321" y="-217"/>
    </contour>
  </outline>
</glyph>
<glyph name="theta" format="2">
  <advance width="683"/>
  <unicode hex="03B8"/>
  <outline>
    <contour>
      <point x="345" y="-8" type="qcurve" smooth="yes"/>
      <point x="411" y="-8"/>
      <point x="516" y="48"/>
      <point x="589" y="150"/>
      <point x="627" y="292"/>
      <point x="626" y="377" type="qcurve"/>
      <point x="627" y="465"/>
      <point x="587" y="608"/>
      <point x="514" y="708"/>
      <point x="409" y="762"/>
      <point x="345" y="761" type="qcurve"/>
      <point x="282" y="762"/>
      <point x="177" y="710"/>
      <point x="100" y="611"/>
      <point x="58" y="468"/>
      <point x="58" y="377" type="qcurve" smooth="yes"/>
      <point x="58" y="289"/>
      <point x="98" y="147"/>
      <point x="173" y="47"/>
      <point x="279" y="-8"/>
    </contour>
    <contour>
      <point x="329" y="143" type="qcurve" smooth="yes"/>
      <point x="300" y="143"/>
      <point x="251" y="181"/>
      <point x="218" y="245"/>
      <point x="202" y="331"/>
      <point x="205" y="379" type="qcurve" smooth="yes"/>
      <point x="208" y="430"/>
      <point x="234" y="513"/>
      <point x="275" y="573"/>
      <point x="328" y="606"/>
      <point x="357" y="606" type="qcurve" smooth="yes"/>
      <point x="385" y="606"/>
      <point x="432" y="573"/>
      <point x="465" y="513"/>
      <point x="481" y="430"/>
      <point x="478" y="379" type="qcurve"/>
      <point x="477" y="332"/>
      <point x="453" y="246"/>
      <point x="413" y="181"/>
      <point x="360" y="143"/>
    </contour>
    <contour>
      <point x="534" y="319" type="line"/>
      <point x="534" y="434" type="line"/>
      <point x="151" y="434" type="line"/>
      <point x="151" y="319" type="line"/>
    </contour>
  </outline>
</glyph>
<glyph name="kappa" format="2">
  <advance width="630"/>
  <unicode hex="03BA"/>
  <outline>
    <contour>
      <point x="227" y="0" type="line"/>
      <point x="250" y="69"/>
      <point x="327" y="200"/>
      <point x="419" y="304"/>
      <point x="520" y="367"/>
      <point x="568" y="367" type="qcurve"/>
      <point x="568" y="530" type="line"/>
      <point x="525" y="526"/>
      <point x="425" y="493"/>
      <point x="325" y="416"/>
      <point x="233" y="286"/>
      <point x="197" y="187" type="qcurve"/>
      <point x="227" y="189" type="line"/>
      <point x="229" y="239"/>
      <point x="233" y="308"/>
      <point x="233" y="341" type="qcurve" smooth="yes"/>
      <point x="233" y="372"/>
      <point x="215" y="433"/>
      <point x="184" y="485"/>
      <point x="142" y="523"/>
      <point x="118" y="530" type="qcurve"/>
      <point x="42" y="398" type="line"/>
      <point x="78" y="384"/>
      <point x="102" y="295"/>
      <point x="100" y="239" type="qcurve"/>
      <point x="102" y="192"/>
      <point x="83" y="66"/>
      <point x="72" y="0" type="qcurve"/>
    </contour>
    <contour>
      <point x="588" y="116" type="line"/>
      <point x="551" y="127"/>
      <point x="483" y="170"/>
      <point x="432" y="226"/>
      <point x="399" y="291"/>
      <point x="396" y="325" type="qcurve"/>
      <point x="303" y="237" type="line"/>
      <point x="300" y="198"/>
      <point x="333" y="121"/>
      <point x="391" y="54"/>
      <point x="469" y="0"/>
      <point x="512" y="-16" type="qcurve"/>
    </contour>
  </outline>
</glyph>
<glyph name="lambda" format="2">
  <advance width="644"/>
  <unicode hex="03BB"/>
  <outline>
    <contour>
      <point x="518" y="-8" type="qcurve" smooth="yes"/>
      <point x="548" y="-8"/>
      <point x="606" y="3"/>
      <point x="626" y="12" type="qcurve"/>
      <point x="594" y="165" type="line"/>
      <point x="586" y="160"/>
      <point x="566" y="151"/>
      <point x="558" y="151" type="qcurve" smooth="yes"/>
      <point x="546" y="151"/>
      <point x="525" y="169"/>
      <point x="504" y="211"/>
      <point x="480" y="277"/>
      <point x="466" y="325" type="qcurve" smooth="yes"/>
      <point x="404" y="534" type="line"/>
      <point x="388" y="594"/>
      <point x="345" y="681"/>
      <point x="287" y="736"/>
      <point x="214" y="762"/>
      <point x="167" y="761" type="qcurve"/>
      <point x="122" y="763"/>
      <point x="58" y="748"/>
      <point x="34" y="737" type="qcurve"/>
      <point x="72" y="590" type="line"/>
      <point x="87" y="596"/>
      <point x="118" y="606"/>
      <point x="147" y="606" type="qcurve" smooth="yes"/>
      <point x="160" y="606"/>
      <point x="187" y="598"/>
      <point x="211" y="582"/>
      <point x="229" y="559"/>
      <point x="233" y="544" type="qcurve" smooth="yes"/>
      <point x="265" y="438" type="line"/>
      <point x="271" y="586" type="line"/>
      <point x="12" y="0" type="line"/>
      <point x="195" y="0" type="line"/>
      <point x="311" y="305" type="line"/>
      <point x="315" y="305" type="line"/>
      <point x="343" y="199" type="line" smooth="yes"/>
      <point x="356" y="148"/>
      <point x="387" y="70"/>
      <point x="428" y="18"/>
      <point x="482" y="-8"/>
    </contour>
  </outline>
</glyph>
